<?xml version="1.0" encoding="UTF-8"?>
<svg width="90px" height="90px" viewBox="0 0 90 90" version="1.1" xmlns="http://www.w3.org/2000/svg" xmlns:xlink="http://www.w3.org/1999/xlink">
    <!-- Generator: Sketch 55.2 (78181) - https://sketchapp.com -->
    <title>logo_blue</title>
    <desc>Created with Sketch.</desc>
    <g id="Page-1" stroke="none" stroke-width="1" fill="none" fill-rule="evenodd">
        <g id="logo_blue" fill="#0364CA">
            <text id="LOGO" font-family="SourceCodePro-Bold, Source Code Pro" font-size="31" font-weight="bold" letter-spacing="-0.159542361">
                <tspan x="7.69908497" y="56.0699983">LOGO</tspan>
            </text>
            <path d="M44.57,5.09 C66.3742019,5.09 84.05,22.7657981 84.05,44.57 C84.05,66.3742019 66.3742019,84.05 44.57,84.05 C22.7657981,84.05 5.09,66.3742019 5.09,44.57 C5.11204864,22.7749375 22.7749375,5.11204864 44.57,5.09 L44.57,5.09 Z M44.57,-1.12345646e-06 C19.9559712,0.0055225554 0.00631900143,19.962636 0.0100004985,44.5766652 C0.0136819956,69.1906943 19.9693032,89.1418392 44.5833326,89.1399988 C69.1973619,89.1381583 89.15,69.1840294 89.15,44.57 C89.15,32.7475682 84.4528732,21.4094986 76.0922139,13.0507147 C67.7315546,4.6919308 56.3924315,-0.00265255368 44.57,-1.12345646e-06 Z" id="Shape" fill-rule="nonzero"></path>
        </g>
    </g>
</svg>