<svg xmlns="http://www.w3.org/2000/svg" viewBox="0 0 89.15 89.15"><defs><style>.cls-1{fill:#0364ca;}</style></defs><title>アセット 1</title><g id="レイヤー_2" data-name="レイヤー 2"><g id="レイヤー_1-2" data-name="レイヤー 1"><path class="cls-1" d="M43.08,10.58c-.79,0-1.57,0-2.35.09A113.26,113.26,0,0,1,27.88,23.13a1.31,1.31,0,0,0-.42,1.32c4.2,16.61.62,37.06-1.11,45l-.88,3.89a1.31,1.31,0,0,0,2.17,1.25l2.94-2.72h0c6.06-5.5,22-18.79,38.41-23.46a1.31,1.31,0,0,0,.93-1,111.77,111.77,0,0,1,4.56-17.88A35.56,35.56,0,0,0,43.08,10.58ZM56.84,35.07a6.8,6.8,0,0,1-8.06,3L30,70.68l-.28.25-2.95,2.72.88-3.9c0-.12.05-.26.08-.39L46.52,36.78a6.77,6.77,0,1,1,10.32-1.71Z"/><path class="cls-1" d="M44.57,5.09A39.48,39.48,0,1,1,5.09,44.57,39.52,39.52,0,0,1,44.57,5.09m0-5.09A44.57,44.57,0,1,0,89.15,44.57,44.57,44.57,0,0,0,44.57,0Z"/></g></g></svg>