<?xml version="1.0" encoding="utf-8"?>
<!-- Generator: Adobe Illustrator 22.1.0, SVG Export Plug-In . SVG Version: 6.00 Build 0)  -->
<svg version="1.1" id="レイヤー_1" xmlns="http://www.w3.org/2000/svg" xmlns:xlink="http://www.w3.org/1999/xlink" x="0px"
	 y="0px" viewBox="0 0 753.4 659.1" style="enable-background:new 0 0 753.4 659.1;" xml:space="preserve">
<style type="text/css">
	.st0{fill:#D7D8D8;}
	.st1{fill:#E18C2D;}
	.st2{fill:#FBF9E7;}
	.st3{fill:#231815;}
	.st4{fill:#E50012;}
	.st5{fill:#3E3A39;}
	.st6{fill:#00913A;}
	.st7{fill:#A7B8B1;}
	.st8{fill:#2B9ECE;}
	.st9{fill:#0A678C;}
	.st10{fill:#207DA7;}
	.st11{fill:#572719;}
	.st12{fill:#E8E2DF;}
	.st13{fill:#4C3E22;}
	.st14{fill:#F9F7F6;}
	.st15{fill:#5A492F;}
	.st16{fill:#ECECEB;}
	.st17{fill:#161515;}
	.st18{fill:#333636;}
	.st19{fill:#C2C1C1;}
	.st20{fill:#434445;}
	.st21{fill:#F6F7F6;}
	.st22{fill:#AFADAD;}
	.st23{fill:#505050;}
	.st24{fill:#C8C8C9;}
	.st25{fill:#21415A;}
	.st26{fill:#B2B2B2;}
	.st27{fill:#264C6B;}
	.st28{fill:#3980B8;}
	.st29{fill:#357EB6;}
	.st30{fill:#337BB4;}
	.st31{fill:#0F468E;}
	.st32{fill:#4C9ACA;}
	.st33{fill:none;stroke:#FFFFFF;stroke-width:0.97;stroke-linecap:round;stroke-linejoin:round;}
	.st34{fill:#C9E5F4;}
	.st35{fill:#98CDE8;}
	.st36{fill:#7DBDE0;}
	.st37{fill:#65ABD5;}
	.st38{fill:#4F9BCB;}
	.st39{fill:#408BBF;}
	.st40{fill:#256CA8;}
	.st41{fill:#1C63A2;}
	.st42{fill:none;stroke:#FFFFFF;stroke-width:0.64;}
	.st43{fill:#D7E9F5;}
	.st44{fill:#C0DFF1;}
	.st45{fill:#ABD8EE;}
	.st46{fill:#97CBE7;}
	.st47{fill:#82BFE1;}
	.st48{fill:#6EB5DA;}
	.st49{fill:#5FA6D2;}
	.st50{fill:#4694C6;}
	.st51{fill:#397FB7;}
	.st52{fill:none;stroke:#FFFFFF;stroke-width:0.49;}
	.st53{fill:none;stroke:#FFFFFF;stroke-width:1.28;}
	.st54{fill:#323333;}
	.st55{fill:#F8DFD2;}
	.st56{fill:#E7C1AD;}
	.st57{fill:#463B38;}
	.st58{fill:#DDECF5;}
</style>
<title>task_summary</title>
<polygon class="st0" points="468.5,570.6 658.8,647.5 752.3,464 574.4,396.9 "/>
<polygon class="st1" points="664.2,659.3 585.4,627.1 610.6,575.5 689.3,607.6 "/>
<polygon class="st2" points="735.6,524 671.2,495.9 684.7,468.3 749.1,496.3 "/>
<path class="st3" d="M723.6,476.8c-0.2-0.6-0.8-1-1.5-1l0,0L713,476c-0.9,0-1.5,0.7-1.5,1.6c0,0.2,0.1,0.4,0.1,0.6l2.4,5.2
	c0.2,0.4,0.6,0.7,1,0.9c0.1,0,0.2,0,0.4,0c0.4,0,0.7-0.1,1-0.3l6.8-5.4C723.7,478.1,723.9,477.4,723.6,476.8z"/>
<path class="st4" d="M562.6,535c-2.9,0-5.2-2.3-5.2-5.2c0-2.3,1.5-4.3,3.6-5l150.7-49.6c2.5-0.8,6,9,3.2,9.9l-150.7,49.6
	C563.7,534.9,563.1,535,562.6,535L562.6,535z"/>
<path class="st5" d="M711.7,475.3l-38.5,12.7c2.7,2.6,3.7,6,4.1,9.6l37.7-12.4C717.6,484.2,714.1,474.5,711.7,475.3z"/>
<path class="st6" d="M564.9,528.7c-0.9,0-1.7-0.7-1.7-1.7l-0.2-6.2c0-0.8,0.4-1.5,1.2-1.7l38.3-12.9c0.9-0.3,1.9,0.2,2.2,1.1
	c0,0,0,0,0,0c0.3,0.9-0.1,1.9-1,2.2c0,0,0,0,0,0L566.5,522l0.2,4.9C566.7,527.9,565.9,528.7,564.9,528.7L564.9,528.7z"/>
<polygon class="st7" points="726.9,348.2 725.8,354.2 640.1,362.7 636.2,343.4 638.9,337.8 722.1,336 "/>
<polygon class="st8" points="726.9,348.3 642.5,355.9 638.9,337.7 723.3,330.1 "/>
<polygon class="st9" points="667.2,353.6 663.5,337.3 638.9,337.8 636.2,343.4 640.1,362.7 665.9,360.1 "/>
<polygon class="st10" points="667.2,353.6 663.1,335.5 638.9,337.7 642.5,355.9 667.2,353.7 "/>
<g>
	<path class="st11" d="M655.7,188.1c7.1-1.8,4.1-12.8-3-11c-13.2,3.3-24.9,13.4-24.7,27.8c0.1,13.1,11,23.2,23,26.3
		c7.1,1.9,10.1-9.1,3-11c-6.9-1.8-13.8-6.9-14.5-14.5C638.4,196.1,647.4,190.2,655.7,188.1z"/>
	<path class="st11" d="M749.1,203.7l-24.5-0.7c-8.3-4.7-17.7-7.1-27.3-7c-8.4-0.1-16.8,1.8-24.4,5.5l-27.2-0.8l5.1,33.8
		c0.1,1.9,0.4,3.9,0.9,5.8l0.1,0.6h0.1c4.6,16.6,23.2,29,45.5,29c24.3,0,44.2-14.7,46.3-33.5L749.1,203.7z"/>
	<path class="st12" d="M748.6,196.7c0,24.7-22.9,44.7-51.1,44.7s-51.1-20-51.1-44.7s22.9-44.7,51.1-44.7
		C725.7,152,748.6,172,748.6,196.7z"/>
	<path class="st13" d="M743.6,201.9c0,20.4-20.7,36.9-46.2,36.9c-25.5,0-46.2-16.5-46.2-36.9s20.7-36.9,46.2-36.9
		C722.9,165,743.6,181.5,743.6,201.9z"/>
	<path class="st14" d="M697.4,245.2c-30.3,0-54.9-21.7-54.9-48.4s24.6-48.5,54.9-48.5s54.8,21.7,54.8,48.5S727.7,245.2,697.4,245.2z
		 M697.4,155.7c-26.1,0-47.4,18.4-47.4,40.9s21.3,40.9,47.4,40.9s47.4-18.4,47.4-40.9S723.6,155.7,697.4,155.7z"/>
	<path class="st15" d="M721.8,217.7c-5.1,4.5-22.1,8.5-24.9,8.4c-1.3-0.1-5.4,1-3.8-0.8c1.4-1.6,3.8-2,5.7-2.4
		c2.2-0.4,4.5-0.8,6.6-1.4c6.6-1.8,16.1-5.4,15.2-13.9c-1-8.8-8.7-15.1-15.9-17.9c-5.3-2.1-13.4-2.2-19.2-0.8
		c-4.4,1.1-6.3,4.2-6.1,9c0.2,4.4,5.3,6.2,6,10.3c0.5,2.2-2.8,5.9-5,6.7c-2.2,0.8-4.6-0.8-6.1-2.4c-6.6-6.6-8.2-18-2.2-25.5
		c5.9-7.5,20-8.9,28.7-6.5c9.9,2.7,19.9,7.9,25.3,16.7C726.1,197.3,733.6,207.2,721.8,217.7z"/>
</g>
<polygon class="st0" points="21.3,134.4 201.2,145.3 197.1,327.8 3,321.7 "/>
<polygon class="st16" points="165.9,73.5 60.7,241.2 267.7,296.1 352.5,117.6 "/>
<path class="st17" d="M331.5,99c0.7,6.5-3.6,16.7-12.2,15.3l-110.8,0.2c-7.3-0.5-15.2-4-15.9-10.5l-4.7-43.2
	c-0.7-6.5,4-17.1,12.3-17L305,49.1c8.2,0,13.7,5.2,14.4,11.7L331.5,99z"/>
<path class="st18" d="M331.5,97.9c0.7,6.5-5.4,11.8-13.6,11.8l-107.1-0.3c-8.3,0-15.5-5.3-16.2-11.9l-4.7-43.2
	c-0.7-6.5,5.4-11.8,13.7-11.8L307,42.6c8.3,0,13.7,5.2,14.4,11.7L331.5,97.9z"/>
<polygon class="st19" points="311.8,103.4 207.3,103.7 200.1,47.4 298.2,47.4 "/>
<path class="st16" d="M230,86.3c11.5-7.2,23.2-14.3,35.2-20.5c10.4-5.4,21.5-9.2,32.5-13.3l1.6-0.6l-1.1-4.5H262
	c-9.6,4.7-19.2,9.5-28.6,14.8c-1.8,1-3.7,2.1-5.5,3.2c-7.8,5.8-15.4,11.8-23.2,17.6l2.4,19.2C214.4,96.4,222.1,91.1,230,86.3z"/>
<path class="st16" d="M269,72.2c-11.9,6.4-23.7,13.3-35.2,20.5c-5.5,3.5-11.1,7.1-16.4,11l94.4-0.3l-10.7-44.2
	C290.3,63.1,279.1,66.8,269,72.2z"/>
<path class="st17" d="M320.3,72.9c0,3.4-2.8,6.1-6.2,6c-3.4,0-6.1-2.8-6-6.2c0-3.4,2.8-6.1,6.1-6C317.6,66.7,320.3,69.4,320.3,72.9
	C320.3,72.8,320.3,72.8,320.3,72.9z"/>
<g>
	<path class="st20" d="M621,293.7c-0.7,10.1-9.2,16-18.9,13.1l-242.8-91.5c-16.4-5.7-17.1-8.5-16.3-23.4l18.5-175.9
		c0.6-13.9,4.2-17.5,18.9-13.1l249.1,72.9c14.3,3.3,17.9,8.3,16.3,23.4L621,293.7z"/>
	<path class="st18" d="M440.1,64c20-9,40.3-17.9,60.8-25.9L380.4,2.9c-14.7-4.4-18.2-0.8-18.9,13.1l-10.1,95.7
		C380.6,95,409.5,77.8,440.1,64z"/>
	<path class="st18" d="M347.5,209.8c14.8-8,30.2-15,45.2-22.6c39.6-20.1,77.2-43.6,116.9-63.5c37-18.5,75.5-33.8,113.7-49.8
		l-94.7-27.7c-18.2,6.7-36.3,14-54.2,21.6c-20.6,8.8-41,18-60.8,28.6c-21.7,11.7-42.9,24.2-64.3,36.4l-6.2,59.1
		C342.5,201.6,342.6,206.2,347.5,209.8z"/>
	<path class="st18" d="M632,163.9c-19,7.6-38.3,14.7-57.2,22.5c-14.7,6.3-29,13.3-43.5,20.2c-16.7,7.9-33.3,15.8-49.8,24.1
		c-11.5,5.8-22.9,11.7-34.2,17.8l154.8,58.3c9.7,2.9,18.2-3,18.9-13.1l16.9-132.1L632,163.9z"/>
	<path class="st21" d="M598.2,263.7c-0.6,7.9-7.8,12.6-16,10.3l-205.4-76c-13.9-4.5-14.5-6.7-13.8-18.5l16.6-140.7
		c0.6-11,3-16,15.5-12.6l211.5,65c12.1,2.6,15.1,6.5,13.8,18.4L598.2,263.7z"/>
	<path class="st22" d="M528.3,461.2c-10,17.9-16,15.8-24.2,13.6L233.4,361.3c-13.9-4.5-18.1-9.9-13.9-18.4l110.5-118.4
		c5.7-7.1,12.1-14.3,20-12.1l243.8,92c12.1,2.6,15.1,6.5,13.8,18.5L528.3,461.2z"/>
	<path class="st19" d="M501.2,469.3c8.4,2.3,14.6,4.4,24.8-13.9l81.3-141.7c0-0.2,0-0.4,0.1-0.6c-1.4-4.8-5.5-7.1-13.5-8.8
		l-243.8-92c-7.8-2.1-14.3,5-20,12.1L219.6,342.9c-1.5,3.1-2,5.7-1.3,8.1c1.7,0.8,3.7,1.5,5.9,2.2L501.2,469.3z"/>
	<path class="st18" d="M516.9,389.9c7,1.9,11.5,6.6,20-8.6l37.6-63v-0.5c-1.2-4-8.4-6.4-11.2-7.4l-201.1-76.8
		c-6.5-1.8-10.9,1.2-15.7,7.1l-50.1,52.6c-3.3,5.2,2,8,3.9,8.6L516.9,389.9z"/>
	<path class="st23" d="M532,308.1c1.8,0.7,3.9,0.2,5.1-1.4c1-1.5,0.3-3.2-1.5-4L531,301c-1.8-0.7-3.9-0.2-5.2,1.3
		c-1.1,1.5-0.3,3.2,1.5,4L532,308.1z"/>
	<path class="st23" d="M490.3,318.8c-0.9,1.1-0.8,2.8,0.4,3.7c0.3,0.2,0.5,0.4,0.8,0.5l5.3,2.1c1.9,0.7,4.1,0,5.4-1.6l2.9-4.1
		c0.9-1.1,0.7-2.8-0.4-3.7c-0.3-0.2-0.5-0.4-0.9-0.5l-5.1-2c-1.9-0.7-4.1-0.1-5.4,1.6L490.3,318.8z"/>
	<path class="st23" d="M513.7,363.7c1.9,0.7,4.1,0,5.3-1.6l3.2-4.7c0.9-1.2,0.7-2.9-0.5-3.9c-0.2-0.2-0.5-0.3-0.8-0.4l-3.3-1.3
		c-1.9-0.7-4.1,0-5.3,1.6l-3.2,4.6c-0.9,1.2-0.7,2.9,0.5,3.9c0.2,0.2,0.5,0.3,0.8,0.4L513.7,363.7z"/>
	<path class="st23" d="M538.7,325.8c1.9,0.7,4.1,0,5.3-1.7l2.6-3.9c0.9-1.2,0.7-2.9-0.6-3.9c-0.2-0.2-0.5-0.3-0.8-0.4l-5-2
		c-1.9-0.7-4.1,0-5.3,1.6l-2.6,3.9c-0.9,1.2-0.7,2.9,0.5,3.8c0.2,0.2,0.5,0.3,0.8,0.4L538.7,325.8z"/>
	<path class="st23" d="M546.5,313.9c1.8,0.7,3.9,0.2,5.1-1.4c1-1.5,0.3-3.3-1.5-4l-4.6-1.8c-1.8-0.7-3.9-0.2-5.1,1.4
		c-1,1.5-0.3,3.2,1.5,4L546.5,313.9z"/>
	<path class="st23" d="M465.1,281.8c1.8,0.7,3.9,0.2,5.3-1.3c1.1-1.4,0.5-3.2-1.3-3.9l-3.3-1.3c-1.9-0.7-4-0.2-5.3,1.3
		c-1.1,1.4-0.5,3.2,1.3,3.9L465.1,281.8z"/>
	<path class="st23" d="M478.1,286.9c1.8,0.7,3.9,0.2,5.3-1.3c1.1-1.4,0.5-3.2-1.4-3.9l-3.1-1.2c-1.8-0.7-3.9-0.2-5.3,1.3
		c-1.1,1.4-0.5,3.2,1.3,3.9L478.1,286.9z"/>
	<path class="st23" d="M517.4,302.4c1.8,0.7,3.9,0.2,5.2-1.3c1.1-1.4,0.4-3.2-1.5-4l-3.2-1.2c-1.9-0.7-4-0.2-5.3,1.3
		c-1.1,1.5-0.4,3.2,1.4,3.9L517.4,302.4z"/>
	<path class="st23" d="M491.1,292c1.9,0.7,4,0.2,5.3-1.3c1.1-1.4,0.4-3.2-1.4-3.9l-3-1.2c-1.9-0.7-3.9-0.2-5.3,1.3
		c-1.1,1.4-0.5,3.2,1.4,3.9L491.1,292z"/>
	<path class="st23" d="M504.3,297.2c1.9,0.7,4,0.2,5.3-1.3c1.1-1.4,0.4-3.2-1.4-3.9l-3.3-1.3c-1.9-0.7-3.9-0.2-5.3,1.3
		c-1.1,1.4-0.4,3.2,1.4,3.9L504.3,297.2z"/>
	<path class="st23" d="M526,308.5c-2-0.7-4.1,0-5.4,1.6l-2.7,3.8c-0.9,1.2-0.7,2.9,0.5,3.8c0.2,0.2,0.5,0.3,0.8,0.4l5,2
		c1.9,0.7,4.1,0,5.3-1.6l2.6-3.9c0.9-1.2,0.7-2.9-0.6-3.8c-0.2-0.2-0.5-0.3-0.7-0.4L526,308.5z"/>
	<path class="st23" d="M411.6,323.2c2,0.7,4.2,0.1,5.5-1.5l3.6-4.5c0.9-1,0.9-2.6-0.1-3.6c-0.3-0.3-0.6-0.4-1-0.6l-5.3-2.1
		c-2-0.7-4.2-0.1-5.5,1.5l-3.6,4.5c-1,1-0.9,2.6,0.1,3.5c0.3,0.3,0.6,0.5,1,0.6L411.6,323.2z"/>
	<path class="st23" d="M486,352.7c1.9,0.7,4.1,0,5.3-1.6l3.2-4.7c0.9-1.2,0.7-2.9-0.5-3.8c-0.2-0.2-0.5-0.3-0.8-0.4l-5.1-2
		c-1.9-0.7-4.1-0.1-5.4,1.6l-3.3,4.6c-0.9,1.1-0.8,2.8,0.4,3.7c0.3,0.2,0.5,0.4,0.9,0.5L486,352.7z"/>
	<path class="st23" d="M396.8,317.3c2,0.7,4.2,0.1,5.5-1.4l3.6-4.5c0.9-1,0.9-2.6-0.1-3.5c-0.3-0.3-0.6-0.5-1-0.6l-5.3-2.1
		c-2-0.7-4.2-0.1-5.6,1.4l-3.7,4.5c-0.9,1-0.9,2.5,0,3.5c0.3,0.3,0.6,0.5,1,0.6L396.8,317.3z"/>
	<path class="st23" d="M513.3,318.9c-2-0.7-4.1,0-5.4,1.6l-2.9,4.1c-0.9,1.2-0.7,2.9,0.5,3.8c0.2,0.2,0.5,0.3,0.8,0.4l4.9,2
		c1.9,0.7,4.1,0,5.3-1.6l2.8-4.1c0.9-1.2,0.7-2.9-0.5-3.8c-0.2-0.2-0.5-0.3-0.8-0.4L513.3,318.9z"/>
	<path class="st23" d="M451.9,276.5c1.9,0.7,4,0.2,5.3-1.3c1.1-1.4,0.5-3.2-1.3-3.9l-2.9-1.1c-1.9-0.7-4-0.2-5.4,1.2
		c-1.1,1.4-0.5,3.2,1.3,3.9L451.9,276.5z"/>
	<path class="st23" d="M426.5,329.1c2,0.7,4.1,0.1,5.5-1.5l3.5-4.5c0.9-1.1,0.9-2.7-0.2-3.6c-0.3-0.2-0.6-0.4-0.9-0.5l-5.4-2.1
		c-2-0.7-4.2-0.1-5.5,1.5l-3.6,4.5c-1,1-0.9,2.6,0.1,3.6c0.3,0.2,0.6,0.4,0.9,0.6L426.5,329.1z"/>
	<path class="st23" d="M511.9,302.9c-2-0.7-4.1,0-5.4,1.6l-2.7,3.8c-0.9,1.1-0.7,2.8,0.4,3.8c0.2,0.2,0.5,0.4,0.8,0.5l4.8,1.9
		c2,0.7,4.1,0,5.4-1.6l2.7-3.8c0.9-1.2,0.7-2.9-0.5-3.8c-0.2-0.2-0.5-0.3-0.8-0.4L511.9,302.9z"/>
	<path class="st23" d="M471.4,346.9c1.9,0.7,4.1,0.1,5.4-1.6l3.3-4.6c0.9-1.1,0.8-2.8-0.4-3.7c-0.2-0.2-0.5-0.4-0.8-0.5l-5.4-2.1
		c-2-0.7-4.1-0.1-5.4,1.6l-3.4,4.6c-0.9,1.1-0.8,2.8,0.3,3.7c0.3,0.2,0.6,0.4,0.9,0.5L471.4,346.9z"/>
	<path class="st23" d="M456.5,341c2,0.7,4.1,0.1,5.4-1.6l3.4-4.6c0.9-1.1,0.8-2.7-0.3-3.7c-0.3-0.2-0.6-0.4-0.9-0.5l-5.5-2.2
		c-2-0.7-4.2-0.1-5.5,1.5l-3.4,4.6c-1,1.1-0.9,2.7,0.2,3.7c0.3,0.2,0.6,0.4,1,0.5L456.5,341z"/>
	<path class="st23" d="M366.8,273.6c2,0.7,4.2,0.1,5.7-1.4l3.4-4c1-0.9,1-2.4,0.1-3.3c-0.3-0.3-0.7-0.5-1.1-0.7l-4.7-1.9
		c-2-0.7-4.2-0.1-5.7,1.4l-3.5,4c-1,0.9-1,2.4-0.1,3.3c0.3,0.3,0.7,0.6,1.1,0.7L366.8,273.6z"/>
	<path class="st23" d="M500.9,358.6c1.9,0.7,4.1,0,5.3-1.6l3.2-4.6c0.9-1.2,0.7-2.9-0.5-3.8c-0.2-0.2-0.5-0.3-0.8-0.4l-5.5-2.2
		c-1.9-0.7-4.1,0-5.3,1.6l-3.2,4.6c-0.9,1.2-0.7,2.9,0.5,3.8c0.2,0.2,0.5,0.3,0.7,0.4L500.9,358.6z"/>
	<path class="st23" d="M450.7,341.9c-2-0.7-4.1-0.1-5.4,1.5l-3.6,4.9c-0.9,1.1-0.8,2.7,0.2,3.7c0.3,0.2,0.6,0.4,0.9,0.5l5.9,2.3
		c1.9,0.7,4.1,0.1,5.4-1.5l3.6-4.9c0.9-1.1,0.8-2.8-0.3-3.7c-0.3-0.2-0.6-0.4-0.9-0.5L450.7,341.9z"/>
	<path class="st23" d="M437.8,336.7c-2-0.7-4.1-0.1-5.5,1.5l-3.7,4.8c-0.9,1.1-0.8,2.7,0.2,3.6c0.3,0.2,0.6,0.4,0.9,0.5l3.7,1.4
		c2,0.7,4.1,0.1,5.4-1.5l3.6-4.9c1-1.1,0.9-2.7-0.2-3.7c-0.3-0.2-0.6-0.4-1-0.5L437.8,336.7z"/>
	<path class="st23" d="M465.9,347.9c-2-0.7-4.1-0.1-5.4,1.6l-3.6,4.9c-0.9,1.1-0.8,2.8,0.4,3.7c0.3,0.2,0.5,0.4,0.9,0.5l3.9,1.5
		c1.9,0.7,4.1,0.1,5.4-1.6l3.5-4.9c0.9-1.1,0.8-2.8-0.4-3.7c-0.3-0.2-0.5-0.4-0.8-0.5L465.9,347.9z"/>
	<path class="st23" d="M357.8,304.9c-2-0.7-4.2-0.1-5.6,1.4L348,311c-0.9,0.9-1,2.4-0.1,3.3c0.3,0.3,0.7,0.5,1.1,0.7l5.6,2.2
		c2,0.7,4.2,0.1,5.6-1.4l4-4.8c1-0.9,1-2.4,0.1-3.4c-0.3-0.3-0.7-0.5-1.1-0.6L357.8,304.9z"/>
	<path class="st23" d="M372.6,310.8c-2-0.7-4.2-0.1-5.6,1.4l-4,4.8c-0.9,0.9-1,2.5,0,3.4c0.3,0.3,0.7,0.5,1.1,0.6l3.9,1.5
		c2,0.7,4.2,0.1,5.6-1.4l3.9-4.8c0.9-1,0.9-2.5,0-3.4c-0.3-0.3-0.6-0.5-1-0.6L372.6,310.8z"/>
	<path class="st23" d="M439,271.5c1.9,0.7,4,0.2,5.4-1.3c1.1-1.4,0.6-3.2-1.3-3.9l-3.1-1.2c-1.9-0.7-4-0.2-5.4,1.2
		c-1.1,1.4-0.6,3.2,1.2,3.9L439,271.5z"/>
	<path class="st23" d="M508.6,364.9c-1.9-0.7-4.1,0-5.3,1.6l-3.3,4.9c-0.9,1.2-0.7,2.9,0.5,3.8c0.2,0.2,0.5,0.3,0.8,0.4l3.5,1.4
		c1.9,0.7,4.1,0,5.3-1.6l3.3-4.9c0.9-1.2,0.6-3-0.6-3.9c-0.2-0.2-0.5-0.3-0.7-0.4L508.6,364.9z"/>
	<path class="st23" d="M521.4,370c-1.9-0.7-4.1,0-5.3,1.6l-3.3,5c-0.9,1.2-0.7,3,0.6,3.9c0.2,0.2,0.5,0.3,0.8,0.4l5.9,2.4
		c1.9,0.7,4.1,0,5.3-1.7l3.2-5c0.9-1.3,0.6-3-0.6-3.9c-0.2-0.2-0.5-0.3-0.7-0.4L521.4,370z"/>
	<path class="st23" d="M479.1,353.1c-1.9-0.7-4.1-0.1-5.4,1.6l-3.5,4.9c-0.9,1.2-0.7,2.9,0.5,3.8c0.2,0.2,0.5,0.3,0.8,0.4l5.3,2.1
		c2,0.7,4.1,0,5.4-1.6l3.4-4.9c0.9-1.2,0.7-2.9-0.5-3.8c-0.2-0.2-0.5-0.3-0.8-0.4L479.1,353.1z"/>
	<path class="st23" d="M493.7,359c-1.9-0.7-4.1-0.1-5.3,1.6l-3.4,4.9c-0.9,1.2-0.7,2.9,0.5,3.8c0.2,0.2,0.5,0.3,0.8,0.4l5.7,2.3
		c1.9,0.7,4.1,0,5.3-1.6l3.3-4.9c0.9-1.2,0.7-2.9-0.5-3.8c-0.2-0.2-0.5-0.3-0.8-0.4L493.7,359z"/>
	<path class="st23" d="M385.8,316c-2-0.7-4.2-0.1-5.6,1.4l-3.9,4.8c-0.9,1-0.9,2.5,0,3.5c0.3,0.3,0.6,0.5,1,0.6l43.2,17.2
		c2,0.7,4.1,0.1,5.5-1.5l3.7-4.8c1-1,0.9-2.7-0.2-3.6c-0.3-0.3-0.6-0.5-1-0.6L385.8,316z"/>
	<path class="st23" d="M400,256.1c1.9,0.7,4,0.2,5.4-1.2c1.2-1.4,0.7-3.1-1.2-3.8l-2.9-1.1c-1.9-0.7-4-0.3-5.5,1.2
		c-1.2,1.4-0.7,3.1,1.1,3.8L400,256.1z"/>
	<path class="st23" d="M412.9,261.2c1.9,0.7,4,0.2,5.4-1.2c1.2-1.4,0.6-3.2-1.2-3.8l-2.9-1.1c-1.9-0.7-4-0.2-5.5,1.2
		c-1.2,1.4-0.7,3.2,1.2,3.8L412.9,261.2z"/>
	<path class="st23" d="M387.1,251.1c1.9,0.7,4.1,0.3,5.5-1.2c1.2-1.4,0.7-3.1-1.1-3.8l-3.2-1.2c-1.9-0.7-4.1-0.3-5.5,1.2
		c-1.2,1.4-0.7,3.1,1.1,3.8L387.1,251.1z"/>
	<path class="st23" d="M426,266.4c1.9,0.7,4,0.2,5.4-1.2c1.1-1.4,0.6-3.2-1.2-3.8L427,260c-1.9-0.7-4-0.2-5.4,1.2
		c-1.2,1.4-0.6,3.2,1.2,3.8L426,266.4z"/>
	<path class="st23" d="M374,245.9c1.9,0.7,4.1,0.2,5.5-1.2c1.2-1.4,0.7-3.1-1.1-3.8l-2.8-1.1c-1.9-0.7-4.1-0.3-5.5,1.2
		c-1.2,1.4-0.7,3.1,1.1,3.8L374,245.9z"/>
	<path class="st23" d="M328.1,293.1c-2-0.7-4.2-0.2-5.7,1.3l-4.3,4.7c-1,0.9-1,2.3-0.2,3.3c0.3,0.3,0.7,0.6,1.1,0.7l5.6,2.2
		c2,0.7,4.2,0.2,5.7-1.4l4.2-4.7c1-0.9,1-2.4,0.1-3.3c-0.3-0.3-0.7-0.5-1.1-0.7L328.1,293.1z"/>
	<path class="st23" d="M313.8,287.4c-2-0.7-4.2-0.2-5.7,1.3l-4.3,4.7c-1,0.8-1.1,2.3-0.2,3.2c0.3,0.3,0.7,0.6,1.1,0.7l5,2
		c2,0.7,4.2,0.2,5.7-1.3l4.2-4.7c1-0.9,1-2.3,0.2-3.3c-0.3-0.3-0.7-0.6-1.1-0.7L313.8,287.4z"/>
	<path class="st23" d="M343,299c-2-0.7-4.2-0.2-5.7,1.4l-4.2,4.7c-1,0.9-1,2.4-0.1,3.3c0.3,0.3,0.7,0.5,1.1,0.7l5.5,2.2
		c2,0.7,4.2,0.1,5.6-1.4l4.1-4.7c1-0.9,1-2.4,0.1-3.4c-0.3-0.3-0.7-0.5-1.1-0.6L343,299z"/>
	<path class="st23" d="M361.2,240.9c1.9,0.7,4,0.2,5.5-1.1c1.2-1.4,0.7-3.1-1.1-3.8l-3.3-1.3c-1.9-0.7-4.1-0.3-5.6,1.1
		c-1.2,1.4-0.8,3,1.1,3.8L361.2,240.9z"/>
	<path class="st23" d="M352.8,252.5c2,0.7,4.2,0.2,5.7-1.3l3.4-3.7c0.9-0.8,1-2.3,0.2-3.2c-0.3-0.3-0.7-0.6-1.1-0.7l-4.9-1.9
		c-2-0.7-4.2-0.2-5.7,1.3l-3.4,3.8c-1,0.8-1.1,2.3-0.2,3.2c0.3,0.3,0.7,0.6,1.1,0.7L352.8,252.5z"/>
	<path class="st23" d="M359.5,286.1c2,0.7,4.2,0.1,5.6-1.4l3.6-4.2c1-0.9,1-2.4,0.1-3.4c-0.3-0.3-0.7-0.5-1.1-0.7l-4.8-1.9
		c-2-0.7-4.2-0.2-5.7,1.4l-3.7,4.2c-1,0.9-1,2.4-0.1,3.3c0.3,0.3,0.7,0.5,1.1,0.7L359.5,286.1z"/>
	<path class="st23" d="M441.4,335c2,0.7,4.1,0.1,5.5-1.5l3.4-4.6c1-1.1,0.9-2.7-0.2-3.6c-0.3-0.3-0.6-0.4-1-0.6l-5.4-2.2
		c-2-0.7-4.1-0.1-5.5,1.5l-3.5,4.5c-0.9,1-0.9,2.7,0.2,3.6c0.3,0.2,0.6,0.4,1,0.5L441.4,335z"/>
	<path class="st23" d="M376.7,299.7c0.9-0.9,0.9-2.5,0-3.4c-0.3-0.3-0.7-0.5-1.1-0.6l-5.3-2.1c-2-0.7-4.2-0.1-5.7,1.4l-3.8,4.5
		c-1,0.9-1,2.4-0.1,3.4c0.3,0.3,0.7,0.5,1.1,0.7l5.4,2.1c2,0.7,4.2,0.1,5.6-1.4L376.7,299.7z"/>
	<path class="st23" d="M391.3,305.4c0.9-1,0.9-2.5-0.1-3.5c-0.3-0.3-0.6-0.5-1-0.6l-5.1-2c-2-0.7-4.2-0.1-5.6,1.4l-3.8,4.5
		c-0.9,0.9-1,2.5,0,3.4c0.3,0.3,0.7,0.5,1.1,0.6l5.2,2.1c2,0.7,4.2,0.1,5.6-1.4L391.3,305.4z"/>
	<path class="st23" d="M384.2,252.6c-2-0.7-4.2-0.1-5.7,1.4l-3.3,3.7c-1,0.9-1,2.4-0.1,3.3c0.3,0.3,0.7,0.6,1.1,0.7l4.8,1.9
		c2,0.7,4.2,0.1,5.6-1.4l3.2-3.8c1-0.9,1-2.4,0.1-3.4c-0.3-0.3-0.7-0.5-1.1-0.7L384.2,252.6z"/>
	<path class="st23" d="M352.5,299.7c2,0.7,4.2,0.1,5.7-1.4l3.8-4.5c1-0.9,1-2.4,0.1-3.4c-0.3-0.3-0.7-0.5-1.1-0.7l-5.1-2
		c-2-0.7-4.2-0.2-5.7,1.4l-3.9,4.5c-1,0.9-1,2.4-0.1,3.4c0.3,0.3,0.7,0.5,1.1,0.7L352.5,299.7z"/>
	<path class="st23" d="M432,280.1c-0.9,1-0.9,2.6,0.1,3.5c0.3,0.3,0.6,0.5,1,0.6l4.9,1.9c2,0.7,4.2,0.1,5.5-1.5l3-3.8
		c0.9-1,0.9-2.6-0.1-3.5c-0.3-0.3-0.6-0.5-1-0.6l-4.8-1.9c-2-0.7-4.2-0.1-5.6,1.5L432,280.1z"/>
	<path class="st23" d="M417.6,274.4c-0.9,1-0.9,2.5,0,3.5c0.3,0.3,0.6,0.5,1,0.6l5,2c2,0.7,4.2,0.1,5.6-1.5l3-3.8
		c0.9-1,0.9-2.5-0.1-3.5c-0.3-0.3-0.6-0.5-1-0.6l-4.9-1.9c-2-0.7-4.2-0.1-5.6,1.4L417.6,274.4z"/>
	<path class="st23" d="M403.7,268.9c-0.9,0.9-1,2.5,0,3.4c0.3,0.3,0.7,0.5,1.1,0.6l4.6,1.8c2,0.7,4.2,0.1,5.6-1.4l3.2-3.8
		c0.9-1,0.9-2.5,0-3.4c-0.3-0.3-0.6-0.5-1-0.6l-4.5-1.8c-2-0.7-4.2-0.1-5.6,1.4L403.7,268.9z"/>
	<path class="st23" d="M389.5,263.3c-0.9,0.9-1,2.4-0.1,3.4c0.3,0.3,0.7,0.5,1.1,0.6l4.9,2c2,0.7,4.2,0.1,5.6-1.4l3.2-3.8
		c0.9-0.9,1-2.4,0-3.4c-0.3-0.3-0.7-0.5-1.1-0.6l-4.8-1.9c-2-0.7-4.2-0.1-5.6,1.4L389.5,263.3z"/>
	<path class="st23" d="M446.2,285.7c-0.9,1-0.9,2.6,0.1,3.5c0.3,0.3,0.6,0.5,1,0.6l5.1,2c2,0.7,4.2,0.1,5.5-1.5l2.9-3.8
		c0.9-1,0.8-2.7-0.2-3.6c-0.3-0.2-0.6-0.4-0.9-0.5l-4.9-2c-2-0.7-4.2-0.1-5.5,1.5L446.2,285.7z"/>
	<path class="st23" d="M541.8,330.1c-1.9-0.7-4.1,0-5.3,1.6l-2.8,4.1c-0.9,1.2-0.7,3,0.6,3.9c0.2,0.2,0.5,0.3,0.8,0.4l10.3,4.1
		c1.9,0.7,4.1,0,5.3-1.7l2.7-4.2c0.9-1.3,0.6-3-0.6-3.9c-0.2-0.2-0.5-0.3-0.7-0.4L541.8,330.1z"/>
	<path class="st23" d="M530.1,356.9c-1.9-0.7-4.1,0-5.3,1.7l-3.1,4.6c-0.9,1.2-0.6,3,0.6,3.9c0.2,0.2,0.5,0.3,0.7,0.4l5.8,2.3
		c1.9,0.7,4.1,0,5.3-1.7l3-4.7c0.9-1.3,0.6-3-0.7-3.9c-0.2-0.2-0.5-0.3-0.7-0.4L530.1,356.9z"/>
	<path class="st23" d="M560,312.3c-1.8-0.7-3.9-0.2-5.1,1.4c-1,1.5-0.3,3.3,1.5,4l4.9,2c1.8,0.7,3.9,0.2,5.1-1.4
		c1-1.5,0.3-3.3-1.6-4L560,312.3z"/>
	<path class="st23" d="M337.9,293.9c2,0.7,4.2,0.2,5.7-1.4l3.9-4.4c1-0.9,1-2.4,0.1-3.3c-0.3-0.3-0.7-0.5-1.1-0.7l-21.7-8.6
		c-2-0.7-4.2-0.2-5.7,1.3l-4.1,4.4c-1,0.8-1.1,2.3-0.3,3.2c0.3,0.4,0.7,0.6,1.1,0.7L337.9,293.9z"/>
	<path class="st23" d="M527.4,324.4c-1.9-0.7-4.1,0-5.3,1.6l-2.8,4.1c-0.9,1.2-0.6,2.9,0.6,3.8c0.2,0.2,0.5,0.3,0.7,0.4l5.3,2.1
		c1.9,0.7,4.1,0,5.3-1.7l2.8-4.1c0.9-1.2,0.7-2.9-0.5-3.9c-0.2-0.2-0.5-0.3-0.8-0.4L527.4,324.4z"/>
	<path class="st23" d="M554.6,319.7c-1.9-0.7-4.1,0-5.3,1.6l-2.6,3.9c-0.9,1.2-0.7,3,0.6,3.9c0.2,0.2,0.5,0.3,0.8,0.4l5.5,2.2
		c1.9,0.7,4.1,0,5.3-1.7l2.5-3.9c0.9-1.2,0.6-3-0.6-3.9c-0.2-0.2-0.5-0.3-0.7-0.4L554.6,319.7z"/>
	<path class="st23" d="M513.8,343.5c-0.9,1.2-0.7,2.9,0.5,3.8c0.2,0.2,0.5,0.3,0.8,0.4l5.2,2.1c1.9,0.7,4.1,0,5.3-1.7l2.9-4.4
		c0.9-1.2,0.7-3-0.6-3.9c-0.2-0.2-0.5-0.3-0.7-0.4l-5-2c-1.9-0.7-4.1,0-5.3,1.6L513.8,343.5z"/>
	<path class="st23" d="M345.2,280.4c2,0.7,4.2,0.2,5.7-1.4l3.7-4.2c1-0.9,1-2.4,0.1-3.3c-0.3-0.3-0.7-0.6-1.1-0.7l-18-7.1
		c-2-0.7-4.2-0.2-5.7,1.3l-3.8,4.2c-1,0.8-1.1,2.3-0.2,3.2c0.3,0.3,0.7,0.6,1.1,0.7L345.2,280.4z"/>
	<path class="st23" d="M366.9,258c2,0.7,4.2,0.1,5.7-1.4l3.3-3.8c0.9-0.9,1-2.4,0.1-3.3c-0.3-0.3-0.7-0.5-1.1-0.7l-4.6-1.8
		c-2-0.7-4.2-0.1-5.7,1.3l-3.4,3.7c-1,0.9-1,2.3-0.2,3.3c0.3,0.3,0.7,0.6,1.1,0.7L366.9,258z"/>
	<path class="st23" d="M352.6,268c2,0.7,4.2,0.2,5.7-1.4l3.5-4c1-0.9,1-2.3,0.2-3.3c-0.3-0.3-0.7-0.6-1.1-0.7l-15.1-6
		c-2-0.7-4.2-0.2-5.7,1.3l-3.6,4c-1,0.8-1.1,2.3-0.2,3.2c0.3,0.3,0.7,0.6,1.1,0.7L352.6,268z"/>
	<path class="st23" d="M489.5,302.7c-0.9,1.1-0.8,2.7,0.3,3.7c0.3,0.2,0.6,0.4,0.9,0.5l5,2c2,0.7,4.1,0,5.4-1.6l2.7-3.8
		c0.9-1.1,0.8-2.8-0.3-3.7c-0.3-0.2-0.6-0.4-0.9-0.5l-4.9-1.9c-2-0.7-4.1-0.1-5.4,1.6L489.5,302.7z"/>
	<path class="st23" d="M470,301.8c-2-0.7-4.2-0.1-5.5,1.5l-3.1,4.1c-0.9,1.1-0.8,2.7,0.2,3.6c0.3,0.2,0.6,0.4,0.9,0.5l5.3,2.1
		c2,0.7,4.1,0.1,5.4-1.6l3-4c0.9-1.1,0.8-2.7-0.3-3.7c-0.3-0.2-0.6-0.4-0.9-0.5L470,301.8z"/>
	<path class="st23" d="M411.9,297.6c1-1,0.9-2.5,0-3.5c-0.3-0.3-0.6-0.5-1-0.6l-5-2c-2-0.7-4.2-0.1-5.6,1.4l-3.5,4.2
		c-1,1-1,2.5,0,3.4c0.3,0.3,0.7,0.5,1.1,0.6l5.1,2c2,0.7,4.2,0.1,5.6-1.5L411.9,297.6z"/>
	<path class="st23" d="M446.9,320.7c2,0.7,4.1,0.1,5.5-1.5l3.3-4.3c0.9-1.1,0.8-2.7-0.2-3.6c-0.3-0.2-0.6-0.4-0.9-0.5l-5.1-2
		c-2-0.7-4.1-0.1-5.5,1.5l-3.3,4.3c-0.9,1-0.9,2.7,0.2,3.6c0.3,0.2,0.6,0.4,1,0.5L446.9,320.7z"/>
	<path class="st23" d="M441.1,309.2c0.9-1,0.9-2.7-0.2-3.6c-0.3-0.2-0.6-0.4-0.9-0.5l-5.2-2c-2-0.7-4.2-0.1-5.5,1.5l-3.4,4.2
		c-0.9,1-0.9,2.6,0.1,3.5c0.3,0.3,0.6,0.5,1,0.6l5.3,2.1c2,0.7,4.2,0.1,5.5-1.5L441.1,309.2z"/>
	<path class="st23" d="M397.4,291.8c0.9-1,0.9-2.5,0-3.4c-0.3-0.3-0.6-0.5-1-0.6l-5-2c-2-0.7-4.2-0.1-5.6,1.4l-3.6,4.2
		c-0.9,0.9-1,2.4,0,3.4c0.3,0.3,0.7,0.5,1.1,0.6l5.1,2c2,0.7,4.2,0.1,5.6-1.4L397.4,291.8z"/>
	<path class="st23" d="M460.6,291.3c-0.9,1.1-0.8,2.7,0.2,3.6c0.3,0.2,0.6,0.4,0.9,0.5l5,2c2,0.7,4.1,0.1,5.5-1.5l2.9-3.8
		c0.9-1.1,0.8-2.7-0.2-3.6c-0.3-0.2-0.6-0.4-0.9-0.5L469,286c-2-0.7-4.1-0.1-5.5,1.5L460.6,291.3z"/>
	<path class="st23" d="M432.3,295.9c-1,1-0.9,2.6,0.1,3.5c0.3,0.3,0.6,0.5,1,0.6l5.3,2.1c2,0.7,4.2,0.1,5.5-1.5l3.2-4
		c0.9-1,0.9-2.6-0.2-3.6c-0.3-0.3-0.6-0.4-1-0.6l-5.3-2.1c-2-0.7-4.2-0.1-5.5,1.5L432.3,295.9z"/>
	<path class="st23" d="M389.6,279c-0.9,0.9-1,2.4,0,3.4c0.3,0.3,0.7,0.5,1.1,0.6l5,2c2,0.7,4.2,0.1,5.6-1.4l3.3-4
		c0.9-1,0.9-2.5,0-3.4c-0.3-0.3-0.6-0.5-1-0.6l-4.9-1.9c-2-0.7-4.2-0.1-5.6,1.4L389.6,279z"/>
	<path class="st23" d="M418.1,290.2c-0.9,1-0.9,2.5,0.1,3.5c0.3,0.3,0.6,0.5,1,0.6l4.9,1.9c2,0.7,4.2,0.1,5.5-1.5l3.2-4
		c1-1,0.9-2.6-0.1-3.5c-0.3-0.3-0.6-0.5-1-0.6l-4.8-1.9c-2-0.7-4.2-0.1-5.6,1.5L418.1,290.2z"/>
	<path class="st23" d="M404,284.7c-1,0.9-1,2.5,0,3.4c0.3,0.3,0.7,0.5,1.1,0.6l4.8,1.9c2,0.7,4.2,0.1,5.6-1.4l3.3-4
		c0.9-1,0.9-2.5,0-3.5c-0.3-0.3-0.6-0.5-1-0.6l-4.7-1.8c-2-0.7-4.2-0.1-5.6,1.4L404,284.7z"/>
	<path class="st23" d="M426.6,303.3c0.9-1,0.9-2.6-0.1-3.5c-0.3-0.3-0.6-0.5-1-0.6l-5.3-2.1c-2-0.7-4.2-0.1-5.6,1.5l-3.4,4.2
		c-0.9,1-0.9,2.5,0.1,3.5c0.3,0.3,0.6,0.5,1,0.6l5.4,2.1c2,0.7,4.2,0.1,5.5-1.5L426.6,303.3z"/>
	<path class="st23" d="M499.3,332.2c0.9-1.2,0.7-2.9-0.5-3.8c-0.2-0.2-0.5-0.3-0.8-0.4l-4.8-1.9c-2-0.7-4.1-0.1-5.4,1.6l-3.1,4.3
		c-0.9,1.1-0.8,2.8,0.3,3.7c0.3,0.2,0.6,0.4,0.9,0.5l5,2c2,0.7,4.1,0,5.4-1.6L499.3,332.2z"/>
	<path class="st23" d="M447,301.6c-0.9,1-0.9,2.6,0.2,3.6c0.3,0.3,0.6,0.4,1,0.6l5.2,2c2,0.7,4.1,0.1,5.5-1.5l3.1-4.1
		c0.9-1.1,0.8-2.7-0.2-3.6c-0.3-0.2-0.6-0.4-0.9-0.5l-5-2c-2-0.7-4.1-0.1-5.5,1.5L447,301.6z"/>
	<path class="st23" d="M505.7,344c1.9,0.7,4.1,0,5.3-1.6l3-4.4c0.9-1.2,0.7-2.9-0.5-3.8c-0.2-0.2-0.5-0.3-0.8-0.4l-5.4-2.1
		c-1.9-0.7-4.1,0-5.4,1.6l-3.1,4.3c-0.9,1.2-0.7,2.9,0.5,3.8c0.2,0.2,0.5,0.3,0.8,0.4L505.7,344z"/>
	<path class="st23" d="M474.9,297c-1,1.1-0.9,2.7,0.2,3.6c0.3,0.3,0.6,0.5,1,0.6l5.3,2.1c2,0.7,4.1,0.1,5.4-1.6l2.8-3.8
		c0.9-1.1,0.8-2.7-0.2-3.7c-0.3-0.2-0.6-0.4-1-0.5l-5.1-2c-2-0.7-4.1-0.1-5.5,1.5L474.9,297z"/>
	<path class="st23" d="M470.4,320.8c0.9-1.1,0.8-2.7-0.3-3.7c-0.3-0.2-0.6-0.4-0.9-0.5l-5.4-2.1c-2-0.7-4.1-0.1-5.5,1.5l-3.2,4.3
		c-0.9,1.1-0.8,2.7,0.2,3.6c0.3,0.2,0.6,0.4,0.9,0.5l5.6,2.2c1.9,0.7,4.1,0,5.4-1.6L470.4,320.8z"/>
	<path class="st23" d="M390.3,273.9c1-0.9,1-2.4,0.1-3.4c-0.3-0.3-0.7-0.5-1.1-0.6l-5-2c-2-0.7-4.2-0.1-5.7,1.4l-3.5,4
		c-1,0.9-1,2.4-0.1,3.3c0.3,0.3,0.7,0.5,1.1,0.7l5.1,2c2,0.7,4.2,0.1,5.6-1.4L390.3,273.9z"/>
	<path class="st23" d="M383.1,286.1c0.9-0.9,1-2.4,0-3.4c-0.3-0.3-0.7-0.5-1.1-0.6l-4.9-2c-2-0.7-4.2-0.1-5.7,1.4l-3.6,4.2
		c-1,0.9-1,2.4-0.1,3.4c0.3,0.3,0.7,0.5,1.1,0.7l5,2c2,0.7,4.2,0.1,5.6-1.4L383.1,286.1z"/>
	<path class="st23" d="M484.5,307.5c-2-0.7-4.1,0-5.4,1.6l-3,4.1c-0.9,1.1-0.8,2.7,0.2,3.7c0.3,0.2,0.6,0.4,1,0.5l5,2
		c2,0.7,4.1,0.1,5.4-1.6l2.9-4.1c0.9-1.1,0.8-2.8-0.3-3.7c-0.3-0.2-0.6-0.4-0.9-0.5L484.5,307.5z"/>
	<path class="st23" d="M485,326.6c0.9-1.1,0.8-2.8-0.3-3.7c-0.3-0.2-0.6-0.4-0.9-0.5l-5.2-2c-2-0.7-4.1-0.1-5.4,1.6l-3.2,4.3
		c-0.9,1.1-0.8,2.7,0.3,3.7c0.3,0.2,0.6,0.4,0.9,0.5l5.3,2.1c1.9,0.7,4.1,0.1,5.4-1.6L485,326.6z"/>
	<path class="st24" d="M594.7,247.1c-0.6,5-5.6,7.6-11.1,5.8l-154.9-52.1c-5.5-1.9-9.5-7.5-8.8-12.5l11.8-94.3
		c0.6-5.1,5.6-7.6,11.1-5.8l154.9,52.1c5.5,1.8,9.5,7.5,8.8,12.5L594.7,247.1z"/>
	<path class="st25" d="M606.3,154.5l0.2-1.8c0.6-5-3.3-10.7-8.8-12.5L442.8,88.1c-5.5-1.8-10.5,0.7-11.1,5.8l-0.2,1.8L606.3,154.5z"
		/>
	<polygon class="st21" points="583.2,157.8 517.3,137.9 506.6,207 572.9,229.5 	"/>
	<path class="st26" d="M489.9,196l3.4,1.1l0.9-2.7l-3.4-1.1L489.9,196z M483.2,193.7l3.4,1.2l0.9-2.7L484,191L483.2,193.7z
		 M476.4,191.4l3.4,1.1l0.9-2.7l-3.4-1.1L476.4,191.4z M469.6,189.1l3.4,1.1l0.9-2.7l-3.4-1.1L469.6,189.1z M462.9,186.8l3.4,1.2
		l0.9-2.7l-3.4-1.1L462.9,186.8z M456.1,184.6l3.4,1.1l0.9-2.7l-3.4-1.2L456.1,184.6z M449.4,182.3l3.4,1.1l0.9-2.7l-3.4-1.1
		L449.4,182.3z M442.6,180l3.4,1.1l0.9-2.7l-3.4-1.1L442.6,180z M435.9,177.7l3.4,1.1l0.9-2.7l-3.4-1.1L435.9,177.7z M429.1,175.4
		l3.4,1.1l0.9-2.7l-3.4-1.1L429.1,175.4z"/>
	<path class="st26" d="M492,203.5l3.4,1.1l0.9-2.7l-3.4-1.1L492,203.5z M485.3,201.2l3.4,1.1l0.9-2.7l-3.4-1.1L485.3,201.2z
		 M478.5,198.9l3.4,1.1l0.9-2.7l-3.4-1.1L478.5,198.9z M471.7,196.7l3.4,1.1l0.9-2.7l-3.4-1.1L471.7,196.7z M465,194.4l3.4,1.1
		l0.9-2.7l-3.4-1.1L465,194.4z M458.3,192.1l3.4,1.1l0.9-2.7l-3.4-1.1L458.3,192.1z M451.5,189.8l3.4,1.1l0.9-2.7l-3.4-1.1
		L451.5,189.8z M444.7,187.5l3.4,1.1l0.9-2.7l-3.4-1.1L444.7,187.5z M438,185.3l3.4,1.1l0.9-2.7l-3.4-1.2L438,185.3z M431.2,183
		l3.4,1.1l0.9-2.7l-3.4-1.1L431.2,183z"/>
	<path class="st26" d="M569.5,237.8l3.4,1.2l0.9-2.7l-3.4-1.2L569.5,237.8z M562.7,235.5l3.4,1.1l0.9-2.7l-3.4-1.1L562.7,235.5z
		 M556,233.2l3.4,1.1l0.9-2.7l-3.4-1.2L556,233.2z M549.2,230.9l3.4,1.2l0.9-2.7l-3.4-1.1L549.2,230.9z M542.5,228.6l3.4,1.1
		l0.9-2.7l-3.4-1.1L542.5,228.6z"/>
	<path class="st16" d="M552.3,194.5c-0.7,5.1-5.6,7.8-11.2,6L386,151.1c-5.5-1.8-9.5-7.3-8.9-12.4l11.8-94.6c0.6-5.1,5.6-7.8,11.1-6
		l155.1,49.4c5.5,1.8,9.5,7.3,8.9,12.4L552.3,194.5z"/>
	<path class="st27" d="M563.9,101.8l0.2-1.8c0.6-5.1-3.3-10.6-8.9-12.4L400.1,38.2c-5.5-1.8-10.5,0.9-11.1,6l-0.3,1.7L563.9,101.8z"
		/>
	<path class="st28" d="M415.9,93l0.2-0.1l0,0c5-3.9,11.6-4.8,17.5-2.6l0,0l0.2,0.1l3.3-13c-10.7-3.8-21-2.3-29.5,4.3L415.9,93
		L415.9,93z"/>
	<path class="st29" d="M408.5,109.8L408.5,109.8c-0.1-2.2,0.1-4.4,0.6-6.6c1-4,3.4-7.6,6.6-10.2l0,0l0.1-0.1l-8.2-11.3
		c-8.5,6.7-12.8,16.5-12.2,28.1l13,0.3L408.5,109.8z"/>
	<path class="st30" d="M423.3,130.6c-8.5-3.2-14.3-11.2-14.8-20.3l0,0V110l0,0l-13-0.3c0.6,15.3,10.3,28.6,24.7,33.9l3.3-13
		L423.3,130.6L423.3,130.6z"/>
	<path class="st28" d="M445.6,123.4l-0.1,0.2l0,0c-4.8,7.4-13.3,10.1-21.8,7.2l0,0l-0.2-0.1l-3.3,13c14.2,5.1,28.5,0.4,36.4-12
		L445.6,123.4z"/>
	<path class="st31" d="M459.7,100.3l-12.2,4l0.1,0.2l0,0c1.5,4.1,1.8,8.6,0.7,12.9c-0.5,2.1-1.4,4.1-2.5,5.9l0,0l-0.1,0.2l0,0
		l10.9,8.3C462.6,122.5,463.6,111.5,459.7,100.3z"/>
	<path class="st32" d="M434,90.4c6.3,2.3,11.2,7.3,13.4,13.7l0,0l0.1,0.2l0,0l12.2-4c-4-11.1-11.8-19.2-22.5-23l-3.3,13L434,90.4z"
		/>
	<path class="st33" d="M415.9,93l0.2-0.1l0,0c5-3.9,11.6-4.8,17.5-2.6l0,0l0.2,0.1l3.3-13c-10.7-3.8-21-2.3-29.5,4.3L415.9,93
		L415.9,93z"/>
	<path class="st33" d="M408.5,109.8L408.5,109.8c-0.1-2.2,0.1-4.4,0.6-6.6c1-4,3.4-7.6,6.6-10.2l0,0l0.1-0.1l-8.2-11.3
		c-8.5,6.7-12.8,16.5-12.2,28.1l13,0.3L408.5,109.8z"/>
	<path class="st33" d="M423.3,130.6c-8.5-3.2-14.3-11.2-14.8-20.3l0,0V110l0,0l-13-0.3c0.6,15.3,10.3,28.6,24.7,33.9l3.3-13
		L423.3,130.6L423.3,130.6z"/>
	<path class="st33" d="M445.6,123.4l-0.1,0.2l0,0c-4.8,7.4-13.3,10.1-21.8,7.2l0,0l-0.2-0.1l-3.3,13c14.2,5.1,28.5,0.4,36.4-12
		L445.6,123.4z"/>
	<path class="st33" d="M459.7,100.3l-12.2,4l0.1,0.2l0,0c1.5,4.1,1.8,8.6,0.7,12.9c-0.5,2.1-1.4,4.1-2.5,5.9l0,0l-0.1,0.2l0,0
		l10.9,8.3C462.6,122.5,463.6,111.5,459.7,100.3z"/>
	<path class="st33" d="M434,90.4c6.3,2.3,11.2,7.3,13.4,13.7l0,0l0.1,0.2l0,0l12.2-4c-4-11.1-11.8-19.2-22.5-23l-3.3,13L434,90.4z"
		/>
	<path class="st34" d="M506.4,135.3l-12.1-33.9c6.7-2.3,14-2.1,20.6,0.4L506.4,135.3z"/>
	<path class="st35" d="M506.4,135.3L478.3,114c3.7-5.9,9.4-10.4,16-12.5L506.4,135.3z"/>
	<path class="st36" d="M506.4,135.3l-33.4-0.7c-0.6-7.3,1.3-14.5,5.3-20.7L506.4,135.3z"/>
	<path class="st37" d="M506.4,135.3l-25.9,20.2c-4.5-6.1-7.1-13.4-7.4-20.9L506.4,135.3z"/>
	<path class="st38" d="M506.4,135.3l-8.6,33.4c-7-2.5-13.1-7.1-17.4-13.2L506.4,135.3z"/>
	<path class="st39" d="M506.4,135.3l12.1,33.8c-6.7,2.3-14,2.1-20.6-0.4L506.4,135.3z"/>
	<path class="st30" d="M506.4,135.3l28.1,21.3c-3.7,6-9.4,10.4-16,12.5L506.4,135.3z"/>
	<path class="st40" d="M506.4,135.3l33.4,0.7c0.5,7.3-1.3,14.5-5.3,20.6L506.4,135.3z"/>
	<path class="st41" d="M506.4,135.3l8.6-33.4c14.4,5.3,24.2,18.8,24.8,34.1L506.4,135.3z"/>
	<path class="st42" d="M506.4,135.3l-12.1-33.9c6.7-2.3,14-2.1,20.6,0.4L506.4,135.3z"/>
	<path class="st42" d="M506.4,135.3L478.3,114c3.7-5.9,9.4-10.4,16-12.5L506.4,135.3z"/>
	<path class="st42" d="M506.4,135.3l-33.4-0.7c-0.6-7.3,1.3-14.5,5.3-20.7L506.4,135.3z"/>
	<path class="st42" d="M506.4,135.3l-25.9,20.2c-4.5-6.1-7.1-13.4-7.4-20.9L506.4,135.3z"/>
	<path class="st42" d="M506.4,135.3l-8.6,33.4c-7-2.5-13.1-7.1-17.4-13.2L506.4,135.3z"/>
	<path class="st42" d="M506.4,135.3l12.1,33.8c-6.7,2.3-14,2.1-20.6-0.4L506.4,135.3z"/>
	<path class="st42" d="M506.4,135.3l28.1,21.3c-3.7,6-9.4,10.4-16,12.5L506.4,135.3z"/>
	<path class="st42" d="M506.4,135.3l33.4,0.7c0.5,7.3-1.3,14.5-5.3,20.6L506.4,135.3z"/>
	<path class="st42" d="M506.4,135.3l8.6-33.4c14.4,5.3,24.2,18.8,24.8,34.1L506.4,135.3z"/>
	<path class="st43" d="M506.4,135.3l-9.3-26c5.2-1.7,10.8-1.6,15.9,0.3L506.4,135.3z"/>
	<path class="st44" d="M506.4,135.3l-21.6-16.4c2.8-4.6,7.2-8,12.3-9.6L506.4,135.3z"/>
	<path class="st45" d="M506.4,135.3l-25.7-0.6c-0.4-5.6,1-11.2,4.1-15.8L506.4,135.3z"/>
	<path class="st46" d="M506.4,135.3l-20,15.5c-3.5-4.7-5.5-10.3-5.7-16.1L506.4,135.3z"/>
	<path class="st47" d="M506.4,135.3l-6.6,25.7c-5.4-1.9-10.1-5.5-13.3-10.2L506.4,135.3z"/>
	<path class="st48" d="M506.4,135.3l9.3,26c-5.2,1.7-10.8,1.6-15.8-0.3L506.4,135.3z"/>
	<path class="st49" d="M506.4,135.3l21.6,16.4c-2.8,4.6-7.2,8-12.3,9.6L506.4,135.3z"/>
	<path class="st50" d="M506.4,135.3l25.7,0.5c0.4,5.6-1,11.2-4.1,15.9L506.4,135.3z"/>
	<path class="st51" d="M506.4,135.3l6.6-25.7c11.1,4.1,18.6,14.4,19.1,26.2L506.4,135.3z"/>
	<path class="st52" d="M506.4,135.3l-9.3-26c5.2-1.7,10.8-1.6,15.9,0.3L506.4,135.3z"/>
	<path class="st52" d="M506.4,135.3l-21.6-16.4c2.8-4.6,7.2-8,12.3-9.6L506.4,135.3z"/>
	<path class="st52" d="M506.4,135.3l-25.7-0.6c-0.4-5.6,1-11.2,4.1-15.8L506.4,135.3z"/>
	<path class="st52" d="M506.4,135.3l-20,15.5c-3.5-4.7-5.5-10.3-5.7-16.1L506.4,135.3z"/>
	<path class="st52" d="M506.4,135.3l-6.6,25.7c-5.4-1.9-10.1-5.5-13.3-10.2L506.4,135.3z"/>
	<path class="st52" d="M506.4,135.3l9.3,26c-5.2,1.7-10.8,1.6-15.8-0.3L506.4,135.3z"/>
	<path class="st52" d="M506.4,135.3l21.6,16.4c-2.8,4.6-7.2,8-12.3,9.6L506.4,135.3z"/>
	<path class="st52" d="M506.4,135.3l25.7,0.5c0.4,5.6-1,11.2-4.1,15.9L506.4,135.3z"/>
	<path class="st52" d="M506.4,135.3l6.6-25.7c11.1,4.1,18.6,14.4,19.1,26.2L506.4,135.3z"/>
	<path class="st53" d="M532,135.9c-0.5-11.8-8-22.1-19.1-26.2c-5.1-2-10.7-2.1-15.9-0.3c-5.1,1.6-9.5,5-12.3,9.6
		c-3.1,4.7-4.5,10.3-4.1,15.8c0.2,5.8,2.2,11.4,5.7,16.1c3.3,4.7,7.9,8.3,13.4,10.2c5.1,2,10.7,2.1,15.9,0.3c5.1-1.6,9.5-5,12.3-9.6
		C531,147,532.4,141.5,532,135.9z"/>
	<path class="st16" d="M523,135.7c-0.3-7.7-5.2-14.4-12.4-17c-3.3-1.3-6.9-1.3-10.3-0.2c-3.3,1.1-6.2,3.3-8,6.3
		c-2,3.1-2.9,6.7-2.6,10.3c0.2,3.8,1.5,7.4,3.7,10.5c2.1,3,5.2,5.3,8.7,6.6c3.3,1.3,7,1.3,10.3,0.2c3.3-1,6.2-3.3,8-6.2
		C522.4,142.9,523.3,139.3,523,135.7z"/>
</g>
<g>
	<path class="st54" d="M8.3,430.2c-1.8,0.1-3.6-0.7-4.8-2.1l3.7-3c0.2,0.2,1.2,0.5,3,0c2.6-0.8,5.1-2.2,7.2-4c2.3-1.8,4.2-4,5.5-6.6
		l4.3,1.9c-1.6,3.3-4,6.1-6.8,8.3c-2.6,2.2-5.7,3.9-9,4.9C10.4,430,9.4,430.1,8.3,430.2L8.3,430.2z"/>
	<path class="st54" d="M12.2,444.3c-1.8,0.1-3.6-0.7-4.8-2.1l3.7-3c0.2,0.2,1.2,0.5,3.1,0c2.6-0.8,5.1-2.2,7.2-4
		c2.3-1.8,4.2-4,5.5-6.6l4.3,2c-1.6,3.3-4,6.1-6.8,8.3c-2.6,2.2-5.7,3.9-9,4.9C14.3,444.1,13.3,444.2,12.2,444.3L12.2,444.3z"/>
	<path class="st54" d="M17.4,458c-1.8,0.1-3.6-0.7-4.8-2.1l3.7-3c0.2,0.3,1.2,0.5,3.1,0c2.6-0.8,5.1-2.2,7.2-4
		c2.3-1.8,4.2-4,5.5-6.6l4.3,2c-1.6,3.2-4,6.1-6.8,8.3c-2.6,2.2-5.7,3.9-9,4.9C19.5,457.8,18.4,458,17.4,458L17.4,458z"/>
	<path class="st54" d="M22,472.2c-1.8,0.1-3.6-0.7-4.8-2.1l3.7-3c0.2,0.3,1.2,0.5,3.1,0c2.6-0.8,5.1-2.2,7.2-4
		c2.3-1.8,4.2-4,5.5-6.6l4.3,1.9c-1.6,3.3-4,6.1-6.8,8.3c-2.6,2.2-5.7,3.9-9,4.9C24.1,472,23.1,472.2,22,472.2L22,472.2z"/>
	<path class="st54" d="M26.4,486.9c-1.8,0.1-3.6-0.7-4.8-2.1l3.7-3c0.2,0.3,1.2,0.5,3.1,0c2.6-0.8,5.1-2.2,7.2-4
		c2.3-1.8,4.2-4,5.5-6.6l4.3,1.9c-1.6,3.2-4,6.1-6.8,8.3c-2.6,2.2-5.7,3.9-9,4.9C28.6,486.7,27.5,486.8,26.4,486.9L26.4,486.9z"/>
	<path class="st54" d="M30.4,501.1c-1.8,0.1-3.6-0.7-4.8-2.1l3.7-3c0.2,0.3,1.2,0.5,3.1,0c2.6-0.8,5.1-2.2,7.2-4
		c2.3-1.8,4.2-4,5.5-6.6l4.3,2c-1.6,3.3-4,6.1-6.9,8.4c-2.6,2.2-5.7,3.9-9,4.9C32.5,500.9,31.5,501.1,30.4,501.1L30.4,501.1z"/>
	<path class="st54" d="M34.6,516.3c-1.8,0.1-3.6-0.7-4.8-2.1l3.7-3c0.2,0.3,1.2,0.5,3.1,0c2.6-0.8,5.1-2.2,7.2-4
		c2.3-1.8,4.2-4,5.5-6.6l4.3,2c-1.6,3.2-4,6.1-6.8,8.3c-2.6,2.2-5.7,3.9-9,4.9C36.7,516.1,35.7,516.2,34.6,516.3L34.6,516.3z"/>
	<path class="st54" d="M40,529.7c-1.8,0.1-3.6-0.7-4.8-2.1l3.7-3c0.2,0.3,1.2,0.5,3.1,0c2.6-0.8,5.1-2.2,7.2-4
		c2.3-1.8,4.2-4,5.5-6.6l4.3,2c-1.6,3.2-4,6.1-6.8,8.3c-2.6,2.2-5.7,3.9-9,4.9C42.1,529.5,41,529.6,40,529.7L40,529.7z"/>
	<path class="st54" d="M43.9,543.7c-1.8,0.1-3.6-0.6-4.8-2l3.7-3c0.2,0.3,1.2,0.5,3,0c2.6-0.8,5.1-2.2,7.2-4c2.3-1.8,4.2-4,5.5-6.6
		l4.3,1.9c-1.6,3.2-4,6.1-6.8,8.3c-2.6,2.2-5.7,3.9-9,4.9C46,543.6,45,543.7,43.9,543.7L43.9,543.7z"/>
	<path class="st54" d="M49,557.5c-1.8,0.1-3.6-0.7-4.8-2.1l3.6-3c0.2,0.3,1.2,0.5,3.1,0c2.6-0.8,5.1-2.2,7.2-4
		c2.3-1.8,4.2-4,5.5-6.6l4.3,2c-1.6,3.2-4,6.1-6.8,8.3c-2.6,2.2-5.7,3.9-9,4.9C51.2,557.3,50.1,557.5,49,557.5L49,557.5z"/>
	<path class="st54" d="M53.7,571.7c-1.8,0.1-3.6-0.7-4.8-2.1l3.6-3c0.2,0.3,1.2,0.5,3.1,0c2.6-0.8,5.1-2.2,7.2-3.9
		c2.3-1.8,4.2-4,5.5-6.6l4.3,1.9c-1.6,3.3-4,6.1-6.8,8.3c-2.6,2.2-5.7,3.9-9,4.9C55.8,571.6,54.8,571.7,53.7,571.7L53.7,571.7z"/>
	<path class="st54" d="M58.1,586.4c-1.8,0.1-3.6-0.7-4.8-2.1l3.7-3c0.2,0.3,1.2,0.5,3.1,0c2.6-0.8,5.1-2.2,7.2-4
		c2.3-1.8,4.2-4,5.5-6.6l4.3,1.9c-1.6,3.3-4,6.1-6.8,8.3c-2.6,2.2-5.7,3.9-9,4.9C60.3,586.2,59.2,586.3,58.1,586.4L58.1,586.4z"/>
	<path class="st54" d="M62.1,600.6c-1.8,0.1-3.6-0.6-4.8-2.1l3.7-3c0.2,0.3,1.2,0.5,3.1,0c2.6-0.8,5.1-2.2,7.2-4
		c2.3-1.8,4.2-4,5.5-6.6L81,587c-1.6,3.3-4,6.1-6.8,8.4c-2.6,2.2-5.7,3.9-9,4.8C64.1,600.4,63.1,600.6,62.1,600.6z"/>
	<path class="st54" d="M66.3,615.8c-1.8,0.1-3.6-0.7-4.8-2.1l3.7-2.9c0.2,0.2,1.2,0.5,3,0c2.6-0.8,5.1-2.2,7.2-4
		c2.3-1.8,4.2-4,5.5-6.6l4.3,2c-1.6,3.2-4,6.1-6.8,8.3c-2.6,2.2-5.7,3.9-9,4.9C68.4,615.6,67.4,615.7,66.3,615.8L66.3,615.8z"/>
	<path class="st54" d="M71.2,629c-1.8,0.1-3.6-0.7-4.8-2.1l3.7-3c0.2,0.3,1.2,0.5,3.1,0c2.6-0.8,5.1-2.2,7.2-4
		c2.3-1.8,4.1-4,5.4-6.6l4.3,2c-1.6,3.2-4,6.1-6.8,8.3c-2.6,2.2-5.7,3.9-9,4.9C73.2,628.9,72.2,629,71.2,629L71.2,629z"/>
	<path class="st54" d="M75.1,643.2c-1.8,0.1-3.6-0.7-4.8-2.1l3.7-3c0.2,0.3,1.2,0.5,3,0c2.6-0.8,5.1-2.2,7.2-4
		c2.3-1.8,4.2-4,5.5-6.6l4.3,1.9c-1.6,3.2-4,6.1-6.8,8.3c-2.6,2.2-5.7,3.9-9,4.9C77.2,643,76.2,643.2,75.1,643.2L75.1,643.2z"/>
	<path class="st0" d="M304.4,563.9c3.4,10.6-4.4,16.6-14,18.9l-199.9,63c-9.6,2.3-12.2-4.9-15.7-15.5L9.4,429
		c-3.4-10.6-2.6-22.9,7-25.2l194-44.4c9.6-2.3,13.7-0.4,17.1,10.2L304.4,563.9z"/>
	<path class="st16" d="M304.4,555.5c3.4,10.6-4.4,16.6-14,18.9L98.2,633.8c-9.6,2.3-12.2-4.9-15.6-15.5L17.1,417.1
		c-3.4-10.6-4.7-15.9,4.9-18.2L210.5,351c9.6-2.3,13.7-0.4,17.1,10.2L304.4,555.5z"/>
	<path class="st23" d="M5.3,429c-0.7,0-1.4-0.3-1.8-0.9c-0.9-1.1-2.2-3.7,0.1-8.1c1.6-3,3.9-5.7,6.6-7.8c2.6-2.2,5.7-3.9,9-4.9
		c4.7-1.3,7,0.4,7.9,1.6c0.9,1.1,2.1,3.5,0.2,7.6c-0.5,1.2-1.9,1.8-3.1,1.3c-1.2-0.5-1.8-1.9-1.3-3.1c0,0,0-0.1,0.1-0.1
		c0.7-1.5,0.6-2.4,0.4-2.6c-0.2-0.2-1.2-0.5-3,0c-2.6,0.8-5.1,2.2-7.2,4c-2.2,1.7-4,3.8-5.3,6.3c-0.8,1.7-0.8,2.7-0.6,3
		c0.8,1,0.7,2.5-0.3,3.3C6.4,428.8,5.9,429,5.3,429L5.3,429z"/>
	<path class="st23" d="M9.2,443.1c-0.7,0-1.4-0.3-1.8-0.9c-0.9-1.1-2.1-3.7,0.1-8.1c1.6-3,3.9-5.7,6.6-7.8c2.6-2.2,5.7-3.9,9-4.9
		c4.7-1.3,7,0.5,7.9,1.6c0.9,1.1,2.1,3.5,0.2,7.6c-0.4,1.2-1.8,1.9-3,1.4c-1.2-0.4-1.9-1.8-1.4-3c0-0.1,0.1-0.2,0.1-0.3
		c0.7-1.5,0.6-2.4,0.5-2.6c-0.2-0.2-1.2-0.5-3.1,0c-2.6,0.8-5.1,2.2-7.2,4c-2.2,1.7-4,3.8-5.3,6.3c-0.9,1.7-0.8,2.7-0.6,3
		c0.8,1,0.7,2.5-0.3,3.3C10.3,442.9,9.8,443.1,9.2,443.1L9.2,443.1z"/>
	<path class="st23" d="M14.4,456.8c-0.7,0-1.4-0.3-1.8-0.9c-0.9-1.1-2.1-3.7,0.1-8.1c1.6-3,3.9-5.7,6.6-7.8c2.6-2.2,5.7-3.9,9-4.9
		c4.7-1.3,7,0.4,7.9,1.6s2.1,3.5,0.2,7.6c-0.5,1.2-1.9,1.7-3.1,1.2c-1.2-0.5-1.7-1.9-1.2-3.1c0.7-1.5,0.6-2.4,0.5-2.6
		c-0.2-0.2-1.2-0.5-3.1,0c-2.6,0.8-5.1,2.2-7.2,4c-2.2,1.7-4,3.8-5.3,6.3c-0.9,1.7-0.8,2.7-0.6,3c0.8,1,0.7,2.5-0.3,3.3c0,0,0,0,0,0
		C15.4,456.7,14.9,456.9,14.4,456.8L14.4,456.8z"/>
	<path class="st23" d="M19,471.1c-0.7,0-1.4-0.3-1.8-0.9c-0.9-1.1-2.2-3.7,0-8.1c1.6-3,3.9-5.7,6.6-7.8c2.6-2.2,5.7-3.9,9-4.9
		c4.7-1.3,7,0.4,7.9,1.6s2.1,3.5,0.2,7.6c-0.5,1.2-1.9,1.7-3.1,1.2c-1.2-0.5-1.7-1.9-1.2-3.1c0.7-1.5,0.6-2.4,0.5-2.6
		c-0.2-0.2-1.2-0.5-3.1,0c-2.6,0.8-5.1,2.2-7.2,4c-2.2,1.7-4,3.8-5.3,6.3c-0.9,1.7-0.8,2.7-0.6,3c0.8,1,0.7,2.5-0.3,3.3
		C20.1,470.9,19.5,471.1,19,471.1L19,471.1z"/>
	<path class="st23" d="M23.4,485.7c-0.7,0-1.4-0.3-1.8-0.9c-0.9-1.1-2.1-3.7,0.1-8.1c1.6-3,3.9-5.7,6.6-7.8c2.6-2.2,5.7-3.9,9-4.9
		c4.7-1.3,7,0.4,7.9,1.6c0.9,1.1,2.1,3.5,0.2,7.6c-0.5,1.2-1.9,1.7-3.1,1.2c-1.2-0.5-1.7-1.9-1.2-3.1c0.7-1.5,0.6-2.4,0.4-2.6
		c-0.2-0.2-1.2-0.5-3.1,0c-5.3,1.7-9.8,5.4-12.6,10.2c-0.8,1.7-0.8,2.7-0.6,3c0.8,1,0.7,2.5-0.3,3.3C24.5,485.6,24,485.7,23.4,485.7
		L23.4,485.7z"/>
	<path class="st23" d="M27.4,500c-0.7,0-1.4-0.3-1.8-0.9c-0.9-1.1-2.2-3.7,0.1-8.1c1.6-3,3.9-5.7,6.6-7.8c2.6-2.2,5.7-3.9,9-4.9
		c4.7-1.3,7,0.4,7.9,1.6c0.9,1.1,2.1,3.5,0.2,7.6c-0.5,1.2-1.9,1.7-3.1,1.2c-1.2-0.5-1.7-1.9-1.2-3.1c0.7-1.5,0.6-2.4,0.5-2.6
		c-0.2-0.2-1.2-0.5-3.1,0c-2.6,0.8-5.1,2.2-7.2,4c-2.2,1.7-4,3.8-5.4,6.3c-0.8,1.7-0.8,2.7-0.6,3c0.8,1,0.7,2.5-0.3,3.3
		C28.5,499.7,27.9,499.9,27.4,500L27.4,500z"/>
	<path class="st23" d="M31.6,515.1c-0.7,0-1.4-0.3-1.8-0.9c-0.9-1.1-2.1-3.7,0.1-8.1c1.6-3,3.9-5.7,6.6-7.8c2.6-2.2,5.7-3.9,9-4.9
		c4.7-1.3,7,0.5,7.9,1.6c0.9,1.1,2.1,3.5,0.2,7.6c-0.6,1.2-1.9,1.7-3.1,1.2c-1.2-0.5-1.7-1.9-1.2-3.1c0.7-1.5,0.6-2.4,0.4-2.6
		c-0.2-0.2-1.2-0.5-3.1,0c-2.6,0.8-5.1,2.2-7.2,4c-2.2,1.7-4,3.8-5.3,6.3c-0.8,1.7-0.8,2.7-0.6,3c0.8,1,0.7,2.5-0.3,3.3c0,0,0,0,0,0
		C32.7,515,32.1,515.1,31.6,515.1L31.6,515.1z"/>
	<path class="st23" d="M37,528.5c-0.7,0-1.4-0.3-1.8-0.9c-0.9-1.1-2.2-3.7,0.1-8.1c1.6-3,3.9-5.7,6.6-7.8c2.6-2.2,5.6-3.9,8.9-4.9
		c4.7-1.3,7,0.4,7.9,1.6c0.9,1.1,2.1,3.5,0.2,7.6c-0.5,1.2-1.9,1.7-3.1,1.2c-1.2-0.6-1.7-1.9-1.2-3.1c0.7-1.5,0.6-2.4,0.5-2.6
		c-0.2-0.2-1.2-0.5-3.1,0c-5.3,1.8-9.7,5.4-12.5,10.2c-0.9,1.7-0.8,2.7-0.6,3c0.8,1,0.7,2.5-0.4,3.3C38,528.3,37.5,528.5,37,528.5
		L37,528.5z"/>
	<path class="st23" d="M40.9,542.6c-0.7,0-1.4-0.3-1.8-0.9c-0.9-1.1-2.1-3.7,0.1-8.1c1.6-3,3.9-5.7,6.6-7.8c2.6-2.2,5.7-3.9,9-4.9
		c4.8-1.3,7,0.4,7.9,1.6c0.9,1.1,2.1,3.5,0.2,7.6c-0.5,1.2-1.9,1.7-3.1,1.2c0,0,0,0,0,0c-1.2-0.5-1.7-1.9-1.2-3.1
		c0.7-1.5,0.6-2.4,0.5-2.6c-0.2-0.2-1.2-0.5-3.1,0c-2.6,0.8-5.1,2.2-7.2,4c-2.2,1.7-4,3.8-5.4,6.3c-0.8,1.7-0.8,2.7-0.6,3
		c0.8,1,0.7,2.5-0.3,3.3c0,0,0,0,0,0C42,542.4,41.5,542.6,40.9,542.6L40.9,542.6z"/>
	<path class="st23" d="M46.1,556.3c-0.7,0-1.4-0.3-1.8-0.9c-0.9-1.1-2.2-3.7,0-8.1c1.6-3,3.9-5.7,6.6-7.8c2.6-2.2,5.7-3.9,9-4.9
		c4.7-1.3,7,0.5,7.9,1.6s2.1,3.5,0.2,7.6c-0.5,1.2-1.9,1.7-3.1,1.2c-1.2-0.5-1.7-1.9-1.2-3.1c0.7-1.5,0.6-2.4,0.5-2.6
		c-0.2-0.2-1.2-0.5-3.1,0c-2.6,0.8-5.1,2.2-7.2,4c-2.2,1.7-4,3.8-5.3,6.3c-0.9,1.7-0.8,2.7-0.6,3c0.8,1,0.7,2.5-0.3,3.3
		C47.1,556.2,46.6,556.4,46.1,556.3L46.1,556.3z"/>
	<path class="st23" d="M50.7,570.6c-0.7,0-1.4-0.3-1.8-0.9c-0.9-1.1-2.1-3.7,0.1-8.1c3.4-6,9-10.5,15.6-12.7c4.7-1.3,7,0.5,7.9,1.6
		c0.9,1.1,2.1,3.5,0.2,7.6c-0.5,1.2-1.9,1.7-3.1,1.2c-1.2-0.5-1.7-1.9-1.2-3.1c0.7-1.5,0.6-2.4,0.5-2.6c-0.2-0.2-1.2-0.5-3.1,0
		c-5.3,1.8-9.8,5.4-12.6,10.2c-0.9,1.7-0.8,2.7-0.6,3c0.8,1,0.7,2.5-0.3,3.3c0,0,0,0,0,0C51.8,570.4,51.3,570.6,50.7,570.6z"/>
	<path class="st23" d="M55.2,585.2c-0.7,0-1.4-0.3-1.8-0.9c-0.9-1.1-2.1-3.7,0.1-8.1c1.6-3,3.9-5.7,6.6-7.8c2.6-2.2,5.7-3.9,9-4.9
		c4.7-1.3,7,0.5,7.9,1.6c0.9,1.1,2.1,3.5,0.2,7.5c-0.6,1.2-2,1.6-3.2,1c-1.1-0.6-1.6-1.8-1.1-3c0.7-1.5,0.6-2.4,0.5-2.6
		c-0.2-0.2-1.2-0.5-3.1,0c-2.6,0.8-5.1,2.2-7.2,4c-2.2,1.7-4,3.8-5.4,6.3c-0.8,1.7-0.8,2.7-0.6,3c0.8,1,0.7,2.5-0.3,3.3
		C56.2,585,55.7,585.2,55.2,585.2L55.2,585.2z"/>
	<path class="st23" d="M59.1,599.4c-0.7,0-1.4-0.3-1.8-0.9c-0.9-1.1-2.2-3.7,0.1-8.1c1.6-3,3.9-5.7,6.6-7.8c2.6-2.2,5.7-3.9,9-4.9
		c4.7-1.3,7,0.4,7.9,1.6c0.9,1.1,2.1,3.5,0.2,7.6c-0.5,1.2-1.9,1.8-3.1,1.2c-1.2-0.5-1.8-1.9-1.2-3.1c0,0,0-0.1,0-0.1
		c0.7-1.5,0.6-2.4,0.4-2.6c-0.2-0.2-1.2-0.5-3,0c-5.3,1.8-9.8,5.4-12.6,10.2c-0.9,1.7-0.8,2.7-0.6,3c0.8,1,0.7,2.5-0.3,3.3
		C60.2,599.3,59.6,599.5,59.1,599.4L59.1,599.4z"/>
	<path class="st23" d="M63.3,614.6c-0.7,0-1.4-0.3-1.8-0.9c-0.9-1.1-2.1-3.7,0.1-8.1c3.4-6,9-10.6,15.6-12.7c4.7-1.3,7,0.4,7.9,1.6
		c0.9,1.1,2.1,3.5,0.2,7.6c-0.5,1.2-1.9,1.7-3.1,1.2c-1.2-0.5-1.7-1.9-1.2-3.1l0,0c0.7-1.5,0.6-2.4,0.5-2.6c-0.2-0.2-1.2-0.5-3.1,0
		c-5.3,1.8-9.8,5.4-12.6,10.2c-0.9,1.7-0.8,2.7-0.6,3c0.8,1,0.7,2.5-0.3,3.3C64.3,614.4,63.8,614.6,63.3,614.6L63.3,614.6z"/>
	<path class="st23" d="M68.2,627.9c-0.7,0-1.4-0.3-1.8-0.9c-0.9-1.1-2.1-3.7,0.1-8.1c3.4-6,9-10.6,15.6-12.7c4.7-1.3,7,0.4,7.9,1.6
		c0.9,1.1,2.1,3.5,0.2,7.6c-0.5,1.2-2,1.7-3.2,1.2c-1.2-0.5-1.7-2-1.2-3.2l0,0c0.7-1.5,0.6-2.4,0.5-2.6c-0.2-0.2-1.2-0.5-3.1,0
		c-5.3,1.8-9.7,5.4-12.5,10.2c-0.9,1.7-0.8,2.7-0.6,3c0.8,1,0.7,2.5-0.3,3.3C69.2,627.7,68.7,627.9,68.2,627.9L68.2,627.9z"/>
	<path class="st23" d="M72.2,642.1c-0.7,0-1.4-0.3-1.8-0.9c-0.9-1.2-2.2-3.7,0-8.1c1.6-3,3.9-5.7,6.6-7.8c2.6-2.2,5.7-3.9,9-4.9
		c4.7-1.3,7,0.4,7.9,1.6c0.9,1.1,2.1,3.5,0.2,7.5c-0.6,1.2-2,1.7-3.2,1.1c-1.1-0.5-1.6-1.9-1.1-3c0.7-1.5,0.6-2.4,0.4-2.6
		s-1.2-0.5-3.1,0c-2.6,0.8-5.1,2.2-7.2,4c-2.2,1.7-4,3.8-5.3,6.3c-0.8,1.7-0.8,2.7-0.6,3c0.8,1,0.7,2.5-0.3,3.3
		C73.2,641.9,72.6,642.1,72.2,642.1L72.2,642.1z"/>
</g>
<g>
	<path class="st55" d="M314.4,483.7c4.8-17.7,10.3-35.9,11.5-54.2c0.3-0.5-1-21.5-2.2-22.5c-9.2-8-20-14.3-30.9-19.8
		c-0.8-0.4-1.7-0.4-2.4,0.2h-0.3c-0.9,0.2-1.8,0.5-2.7,0.8c-1.3-3.1-2.7-6.2-4.2-9.1c-1.4-2.8-2.8-6.4-5.1-8.7
		c-0.3-1-1.2-1.8-2.3-1.8c-18.3-1.8-32.4,12-45.4,23l-1.3,0.9c-0.2,0.2-0.5,0.4-0.6,0.6l-3.3,1c-1.1,0.3-2.2,0.6-3.3,1.1
		c-0.4,0-0.9,0.1-1.3,0.3c-3.2,1.6-6.4,4.7-6.7,8.5c-0.1,2.4,0.7,4.7,2.4,6.4c-0.6,0.7-1.3,1.5-1.9,2.3c-4.3-3.9-10.2-5.3-15.9-5.4
		c-1.2,0-2.2,0.9-2.2,2.1c0,0.1,0,0.2,0,0.2c-5.4,7.2-11.6,13.6-17.5,20.3c-0.5,0.5-0.7,1.2-0.6,1.9c-1.7,5.3,1.3,12.1,3.1,17
		c1.6,4.2,3.3,8.3,5,12.4c0.3,5.6,1.1,11.2,2.4,16.6c0.2,0.6,0.6,1.2,1.2,1.4c7.6,14.7,15.9,29,24.5,43.1c0,0.3,0.1,0.5,0.2,0.7
		c4.1,8.2,8.7,16.3,13.4,24.3c4.5,7.7,8.6,15.7,13.2,23.3c1.1,3.5,2.3,7,3.5,10.6c1.8,5.2,3.2,10.6,5.4,15.7
		c-1.2,1.5,0.4,4.5,2.6,3.7c22.7-8.6,46.1-15.2,69-23c1.1-0.4,1.9-1.5,1.8-2.7c0-0.3,0-0.7-0.2-1c-1.6-4.2-3.7-8.2-5.5-12.5
		c-2-4.8-3.8-9.8-5.6-14.7c-2.6-7.1-5.2-14.2-8.2-21.1c1-4.8,2-9.6,3.1-14.3C309.3,502.1,311.9,492.9,314.4,483.7z"/>
	<path class="st56" d="M311.4,397.8c-6-3.9-12.2-7.4-18.7-10.6c-0.8-0.4-1.7-0.4-2.4,0.2h-0.3c-0.8,0.2-1.6,0.4-2.4,0.7
		c1.5,4.8,3.2,9.6,4.2,14.5C298.2,400.5,304.8,398.9,311.4,397.8z"/>
	<path class="st56" d="M266.9,407.9c0-0.2,0-0.4,0-0.6c-0.2-4.7-1.8-9.3-2.1-14c-0.2-5.6,0.4-11.2,1.9-16.6c0.8-3-3.6-4.1-4.5-1.2
		c-1.7,5.4-2.6,11-2.6,16.6c0,5.1,0.3,11.8,2.8,16.4c-0.2,0.4-0.4,0.9-0.6,1.3c-3.6-0.6-7.4,0.2-10.9,0.8c-1.9,0.3-3.7,0.7-5.6,1.1
		c-4.2-4.2-7-9.5-8.2-15.2c-0.7-3.1-5.3-1.8-4.8,1.3c0.9,5.6,3.3,10.8,6.8,15.2c-1,0.2-2,0.4-3,0.5c-6.6,1.1-15.4,2.8-21.2-1.7
		c-0.3,0.3-0.5,0.6-0.8,1c-3-2.6-6.7-4.3-10.6-4.9c-0.3,0.9-0.6,1.6-0.7,1.8c-1.8,4.1-6.8,8.2-10.9,5.2l-1,1.2
		c4.7,3.7,9.9,0.6,14.4-2.6c0-0.7,0.7-1.5,1.4-1c0.8-0.5,1.5,0.3,1.4,1c4.9,4.2,6.5,10.5,5.5,16.7c-1-0.5-2.1-0.9-3.1-1.4
		c-3.3-1.3-8.6-2.4-11.8-0.4c-0.9,0.6-1.2,1.8-0.7,2.7c0.3,0.4,0.7,0.7,1.1,0.9c2.8,1,6,0.6,9,1.5c1.6,0.5,3.1,1.2,4.5,2
		c2.6,2.5,5.1,5.1,7.3,7.9c0.2,0.3,0.3,0.7,0.2,1c-1.2,0.2-2.3,0.6-3.3,1.2c-1,0.6-1.3,1.9-0.7,2.8c0.3,0.4,0.7,0.7,1.1,0.9
		c3,1.2,7.3-0.2,10.3-0.9c3.9-1,7.8-2.5,11.4-4.3c5.3-2.6,10.1-6,14.2-10.2c6.3-5.1,11.8-11,11.3-18.2c0.5-1,1-2.1,1.5-3.2
		c0.3-0.8,0.6-1.6,0.8-2.4c0.1-0.5,0.2-1,0.2-1.5C267,408.5,267,408.3,266.9,407.9z"/>
	<path class="st57" d="M346.1,397.5c-0.5-3.8-4.1-6.5-7.9-5.9c0,0,0,0,0,0l-126.5,19.3c3.3,2.3,4.8,6.2,5.7,10.1l122.8-15.6
		C344,404.9,346.6,401.4,346.1,397.5C346.1,397.6,346.1,397.6,346.1,397.5z"/>
	<path class="st58" d="M340.3,585.1c-0.9-5.8-4.2-12-6.9-17.3c0-1.7-1.1-3.2-2.8-3.5c-7.6-1.3-16.2,0.2-23.7,1.4
		c-8.5,1.4-16.8,3.6-24.8,6.5c-15.6,5.6-30.2,13.6-43.3,23.9c-1.7,1.3-1.4,3.4-0.3,4.9c0.2,2.2,0.7,4.3,1.4,6.3
		c0.6,1.7,1.3,3.4,2.3,4.9c0.2,1.8,1.8,3.1,3.6,2.9c0.3,0,0.5-0.1,0.8-0.2l0.2-0.1c0.7-0.1,1.3-0.3,1.9-0.6
		c13.9-4.6,27.8-9.1,41.9-13.1c7.4-2.1,14.7-4.1,22.2-6c7.3-1.9,14.7-3.3,22-5.4C337.2,591,340.8,588.2,340.3,585.1z"/>
	<path class="st27" d="M235.4,624.5l6.8,33.4h136L364.8,628c-2.4-8.4-6.4-16.6-9.7-24.7c-3.4-8.2-6.8-16.5-10.4-24.7
		c-0.8-1.6-2.7-2.3-4.3-1.6c0,0-0.1,0-0.1,0.1c-0.4,0-0.8,0.1-1.2,0.2c-17.6,4.7-35.5,8.7-52.9,14c-17.5,5.3-35.6,12.2-50.5,23.2
		c-0.4,0.3-0.8,0.7-1,1.2c-0.9,0.8-1.3,2.2-0.9,3.4c0.6,2.8,1.7,5.5,2.6,8.1"/>
</g>
</svg>
