<?xml version="1.0" encoding="utf-8"?>
<!-- Generator: Adobe Illustrator 22.1.0, SVG Export Plug-In . SVG Version: 6.00 Build 0)  -->
<svg version="1.1" id="レイヤー_1" xmlns="http://www.w3.org/2000/svg" xmlns:xlink="http://www.w3.org/1999/xlink" x="0px"
	 y="0px" viewBox="0 0 1546.7 824.4" style="enable-background:new 0 0 1546.7 824.4;" xml:space="preserve">
<style type="text/css">
	.st0{fill:#888888;}
	.st1{fill:url(#SVGID_1_);}
	.st2{fill:#E4E4E3;}
	.st3{fill:#231815;}
	.st4{fill:#FFFFFF;}
	.st5{fill:#9E9E9F;}
	.st6{fill:#00253F;}
	.st7{clip-path:url(#SVGID_3_);}
	.st8{fill:url(#SVGID_4_);}
	.st9{fill:#BCE2E8;}
	.st10{fill:#CCCCCC;}
	.st11{fill:#E6E6E6;}
	.st12{fill:#DCDCDC;}
	.st13{fill:#B3B3B3;}
	.st14{fill:#666666;}
	.st15{fill:#B0AFB0;}
	.st16{clip-path:url(#SVGID_6_);}
	.st17{fill:url(#SVGID_7_);}
	.st18{fill:#BEBEBE;}
	.st19{fill:#EBEBEB;}
	.st20{fill:#999999;}
	.st21{fill:#A9AAAA;}
	.st22{fill:#656464;}
	.st23{fill:#313333;}
	.st24{fill:#181919;}
	.st25{fill:#969696;}
	.st26{fill:#595757;}
	.st27{fill:#7F8080;}
	.st28{fill:#008BD0;}
	.st29{opacity:0.56;fill:#FFFFFF;enable-background:new    ;}
	.st30{clip-path:url(#SVGID_9_);}
	.st31{fill:url(#SVGID_10_);}
	.st32{font-family:'GothicMB101Pro-Heavy-90ms-RKSJ-H';}
	.st33{font-size:24px;}
	.st34{fill:url(#SVGID_11_);}
	.st35{fill:url(#SVGID_12_);}
	.st36{fill:url(#SVGID_13_);}
	.st37{fill:url(#SVGID_14_);}
	.st38{fill:url(#SVGID_15_);}
	.st39{fill:#F2DAC0;}
	.st40{fill:#B28146;}
	.st41{fill:#FDEBCC;}
	.st42{fill:#98A97D;}
	.st43{fill:#DDCDB8;}
	.st44{fill:#BCD981;}
	.st45{fill:#C79F62;}
	.st46{fill:url(#SVGID_16_);}
	.st47{fill:#0F2350;}
	.st48{fill:#FAD9C7;}
	.st49{fill:#FA8072;}
	.st50{fill:url(#SVGID_17_);}
	.st51{fill:#262727;}
	.st52{fill:#0A0808;}
	.st53{fill:#F8DFD2;}
	.st54{fill:#E7C1AD;}
	.st55{fill:#928E6D;}
	.st56{fill:#7D795C;}
	.st57{fill:#C2C1C1;}
	.st58{fill:#604C3F;}
	.st59{fill:#DBEEEA;}
	.st60{fill:#002544;}
	.st61{fill:#7C4A0D;}
	.st62{fill:#A8D4A1;}
	.st63{fill:#3B2E2B;}
	.st64{fill:#D5E8F7;}
	.st65{fill:#E5BD35;}
	.st66{fill:#281E1C;}
	.st67{fill:#004B20;}
	.st68{fill:#006934;}
	.st69{fill:#383231;}
	.st70{fill:#3E3A39;}
	.st71{fill:#82AE46;}
	.st72{fill:#AE951B;}
	.st73{fill:#808080;}
	.st74{fill:#4A0000;}
	.st75{fill:#810008;}
	.st76{fill:#000018;}
	.st77{fill:#00002D;}
	.st78{fill:#705A4A;}
	.st79{fill:#1A1613;}
	.st80{fill:#D5E59E;}
	.st81{fill:#BCB09B;}
	.st82{fill:#FADCC9;}
	.st83{fill:#E0B7B1;}
	.st84{fill:#D3C9B3;}
	.st85{fill:#F15A24;}
	.st86{fill:none;}
	.st87{fill:#6C5B4E;}
	.st88{fill:#E2A093;}
	.st89{fill:#BB8418;}
</style>
<g id="monitor">
	<path class="st0" d="M979,735.3c0.2-0.2,0.3-0.5,0.4-0.8c0.1-0.1,0.1-0.2,0.2-0.3c0.2-0.4,0.3-0.8,0.4-1.2c0-0.1,0-0.2,0-0.2
		c0.1-0.4,0.1-0.7,0.1-1.1c0-0.1,0-0.1,0-0.2c0-0.3,0-3.9-0.1-4.3c-0.3-1.9-1.4-0.7-3.7-2.8c-3.6-3.3-9.9-9.5-15.7-15.5
		c-1.3-1.3-2.6-2.7-3.8-3.9l-1.8-1.9c-1.1-1.2-2.2-2.4-3.2-3.4l-1.3-1.5l-1.2-1.3c-1-1.2-1.9-2.5-2.6-3.9c-1.8-3.8-1.4-7.4-1.4-10.5
		v-84.1H799.7v84.1c0,3.1,0.3,6.7-1.4,10.5c-0.7,1.4-1.5,2.7-2.6,3.9l-1.2,1.3l-1.3,1.5c-1,1-2,2.2-3.2,3.4l-1.8,1.9
		c-1.2,1.3-2.5,2.6-3.8,3.9c-5.8,6-12.1,12.3-15.7,15.5c-2.3,2.1-3.4,0.9-3.7,2.8c-0.1,0.4-0.1,3.9-0.1,4.3c0,0.1,0,0.1,0,0.2
		c0,0.4,0,0.7,0.1,1.1c0,0.1,0,0.2,0,0.2c0.1,0.4,0.2,0.8,0.4,1.2c0,0.1,0.1,0.2,0.2,0.3c0.1,0.3,0.3,0.5,0.5,0.8l0.2,0.3
		c0.2,0.2,0.4,0.5,0.6,0.7l0.2,0.2c0.3,0.3,0.6,0.5,0.9,0.7l0.2,0.1c0.3,0.2,0.5,0.3,0.8,0.4l0.3,0.1c0.2,0.1,0.5,0.2,0.8,0.3
		l0.3,0.1c0.4,0.1,0.7,0.1,1.1,0.1h202c0.4,0,0.7,0,1.1-0.1l0.3-0.1c0.3-0.1,0.5-0.2,0.8-0.3l0.3-0.1c0.3-0.1,0.5-0.3,0.8-0.4
		l0.2-0.1c0.3-0.2,0.6-0.5,0.9-0.7l0.2-0.2c0.2-0.2,0.4-0.4,0.6-0.7L979,735.3z"/>
	
		<linearGradient id="SVGID_1_" gradientUnits="userSpaceOnUse" x1="1093.6655" y1="-32.67" x2="1093.6655" y2="-194.05" gradientTransform="matrix(1 0 0 -1 -221.11 554.61)">
		<stop  offset="0.22" style="stop-color:#B0AFB0"/>
		<stop  offset="0.37" style="stop-color:#B8B7B8"/>
		<stop  offset="0.56" style="stop-color:#C9C9C9"/>
		<stop  offset="0.58" style="stop-color:#CECECE"/>
		<stop  offset="0.67" style="stop-color:#DCDCDC"/>
		<stop  offset="0.78" style="stop-color:#E4E4E4"/>
		<stop  offset="0.98" style="stop-color:#E6E6E6"/>
	</linearGradient>
	<path class="st1" d="M976.4,720.8c-6.5-5.8-21.2-20.8-26.9-27.3c-1-1.2-1.9-2.5-2.7-3.9c-1.7-4-0.9-7.8-0.9-10.8v-84.2h-146v84.2
		c0,3.1,0.1,6.8-1.6,10.8c-0.8,1.4-1.7,2.7-2.7,3.9c-5.7,6.5-20.4,21.6-26.9,27.4c-7.7,7-2,13.7,2.8,13.7h202
		C978.4,734.6,984.1,727.8,976.4,720.8z"/>
	<path class="st2" d="M528.8,128.7h695.5c12.6,0,22.9,10.2,22.9,22.9v453.5c0,12.6-10.2,22.9-22.9,22.9H528.8
		c-12.6,0-22.9-10.2-22.9-22.9V151.6C506,139,516.2,128.7,528.8,128.7z"/>
	<path class="st3" d="M1247.2,551.2H506V151.6c0-12.6,10.2-22.8,22.9-22.9h695.5c12.6,0,22.8,10.3,22.9,22.9V551.2z"/>
	<rect x="539" y="161.7" class="st4" width="673.2" height="354.5"/>
	<circle class="st5" cx="872.6" cy="146" r="4.3"/>
	<circle class="st6" cx="872.6" cy="146" r="3.4"/>
	<circle class="st4" cx="871" cy="144.4" r="2.1"/>
</g>
<g id="画面">
	<g>
		<defs>
			<polygon id="SVGID_2_" points="539.3,161.7 1212.2,161.7 1212.2,516 539.3,516.4 			"/>
		</defs>
		<clipPath id="SVGID_3_">
			<use xlink:href="#SVGID_2_"  style="overflow:visible;"/>
		</clipPath>
		<g class="st7">
			
				<linearGradient id="SVGID_4_" gradientUnits="userSpaceOnUse" x1="532.79" y1="646.68" x2="1219.8" y2="646.68" gradientTransform="matrix(1 0 0 -1 0 826)">
				<stop  offset="0" style="stop-color:#84FAB0"/>
				<stop  offset="1" style="stop-color:#8FD3F4"/>
			</linearGradient>
			<rect x="532.8" y="147.8" class="st8" width="687" height="63"/>
			<rect x="579.9" y="210.8" class="st9" width="10" height="310"/>
			<rect x="1162.9" y="210.8" class="st9" width="10" height="310"/>
		</g>
	</g>
	<rect x="579.9" y="179" class="st4" width="150" height="15"/>
	<circle class="st4" cx="1162.9" cy="186.1" r="10"/>
	<circle class="st4" cx="1135.6" cy="186.1" r="10"/>
	<rect x="1033.7" y="178.6" class="st4" width="75" height="15"/>
	<rect x="650" y="294.5" class="st10" width="129" height="4"/>
	<rect x="896.5" y="294.5" class="st11" width="207" height="4"/>
	<rect x="650" y="285.5" class="st12" width="129" height="4"/>
	<rect x="896.5" y="285.5" class="st11" width="207" height="4"/>
	<rect x="650" y="276.5" class="st11" width="129" height="4"/>
	<rect x="896.5" y="276.5" class="st12" width="207" height="4"/>
	<rect x="650" y="267.5" class="st12" width="129" height="4"/>
	<rect x="896.5" y="267.5" class="st10" width="207" height="4"/>
	<rect x="650" y="258.5" class="st10" width="129" height="4"/>
	<rect x="896.5" y="258.5" class="st12" width="207" height="4"/>
	<rect x="650" y="249.5" class="st12" width="129" height="4"/>
	<rect x="896.5" y="249.5" class="st11" width="207" height="4"/>
	<rect x="650" y="240.5" class="st11" width="129" height="4"/>
	<rect x="896.5" y="240.5" class="st12" width="207" height="4"/>
	<rect x="650" y="231.5" class="st12" width="129" height="4"/>
	<rect x="896.5" y="231.5" class="st12" width="207" height="4"/>
	<rect x="969.5" y="479.1" class="st12" width="134" height="5"/>
	<rect x="809.5" y="479.1" class="st12" width="134" height="5"/>
	<rect x="650.5" y="479.1" class="st12" width="134" height="5"/>
	<rect x="969.5" y="492.1" class="st12" width="134" height="5"/>
	<rect x="809.5" y="492.1" class="st12" width="134" height="5"/>
	<rect x="650.5" y="492.1" class="st12" width="134" height="5"/>
	<rect x="969.5" y="505.1" class="st12" width="134" height="5"/>
	<rect x="809.5" y="505.1" class="st12" width="134" height="5"/>
	<rect x="650.5" y="505.1" class="st12" width="134" height="5"/>
	<rect x="651" y="374.5" class="st10" width="207" height="4"/>
	<rect x="897.5" y="374.5" class="st11" width="207" height="4"/>
	<rect x="651" y="365.5" class="st12" width="207" height="4"/>
	<rect x="897.5" y="365.5" class="st11" width="207" height="4"/>
	<rect x="651" y="356.5" class="st11" width="207" height="4"/>
	<rect x="897.5" y="356.5" class="st12" width="207" height="4"/>
	<rect x="651" y="347.5" class="st12" width="207" height="4"/>
	<rect x="897.5" y="347.5" class="st10" width="207" height="4"/>
	<rect x="651" y="338.5" class="st10" width="207" height="4"/>
	<rect x="897.5" y="338.5" class="st12" width="207" height="4"/>
	<rect x="651" y="329.5" class="st12" width="207" height="4"/>
	<rect x="897.5" y="329.5" class="st11" width="207" height="4"/>
	<rect x="651" y="320.5" class="st11" width="207" height="4"/>
	<rect x="897.5" y="320.5" class="st12" width="207" height="4"/>
	<rect x="651" y="311.5" class="st12" width="207" height="4"/>
	<rect x="897.5" y="311.5" class="st12" width="207" height="4"/>
	<rect x="650" y="454.5" class="st10" width="207" height="4"/>
	<rect x="977.5" y="454.5" class="st11" width="127" height="4"/>
	<rect x="650" y="445.5" class="st12" width="207" height="4"/>
	<rect x="977.5" y="445.5" class="st11" width="127" height="4"/>
	<rect x="650" y="436.5" class="st11" width="207" height="4"/>
	<rect x="977.5" y="436.5" class="st12" width="127" height="4"/>
	<rect x="650" y="427.5" class="st12" width="207" height="4"/>
	<rect x="977.5" y="427.5" class="st10" width="127" height="4"/>
	<rect x="650" y="418.5" class="st10" width="207" height="4"/>
	<rect x="977.5" y="418.5" class="st12" width="127" height="4"/>
	<rect x="650" y="409.5" class="st12" width="207" height="4"/>
	<rect x="977.5" y="409.5" class="st11" width="127" height="4"/>
	<rect x="650" y="400.5" class="st11" width="207" height="4"/>
	<rect x="977.5" y="400.5" class="st12" width="127" height="4"/>
	<rect x="650" y="391.5" class="st12" width="207" height="4"/>
	<rect x="977.5" y="391.5" class="st12" width="127" height="4"/>
	<rect x="896.9" y="390.6" class="st11" width="70" height="70"/>
	<circle class="st11" cx="823.1" cy="267.3" r="35.2"/>
	<path class="st13" d="M846.9,277c0.8-1.7,1.2-3.5,1.2-5.3c0-7.8-8.2-13.2-16-10.1c0-5.7-3.9-11.1-12-11.1
		c-7.7,0-13.5,6.5-12.3,14.6c0-1.1-2.8-0.9-3.5-0.8c-1.7,0.3-3.2,1.2-4.3,2.5c-1.4,1.8-2.1,4-1.9,6.3c0,0.5,0.2,3.9,0.9,3.9
		L846.9,277z"/>
</g>
<g id="book">
	<path class="st14" d="M357.3,795.7h-1.1L25,797v3.5c0,0,39.1,5.6,77,5.6h509.6c37.9,0,77-5.6,77-5.6V797L357.3,795.7z"/>
	<path class="st2" d="M688.6,797.7c0,1-1.3,1.8-2.9,1.8H25.5c-1.6,0-2.9-0.8-2.9-1.8v-6.2c0-1,1.3-1.8,2.9-1.8h660.1
		c1.6,0,2.9,0.8,2.9,1.8L688.6,797.7z"/>
	<path class="st15" d="M404.8,793.7c0,1.2-1.8,2.1-3.9,2.1h-90.6c-2.2,0-3.9-1-3.9-2.1v-4.3h98.5V793.7z"/>
	<path class="st3" d="M622.3,789.7H89.1V451.1c0-9.7,7.9-17.6,17.6-17.6h498c9.7,0,17.6,7.9,17.6,17.6V789.7z"/>
	<rect x="100.8" y="451.1" class="st4" width="509.7" height="326.8"/>
	<circle class="st5" cx="355.6" cy="443.3" r="2.7"/>
	<circle class="st6" cx="355.6" cy="443.3" r="2.1"/>
	<circle class="st4" cx="354.6" cy="442.3" r="1.3"/>
</g>
<g>
	<defs>
		<rect id="SVGID_5_" x="100.8" y="451.1" width="509.7" height="326.8"/>
	</defs>
	<clipPath id="SVGID_6_">
		<use xlink:href="#SVGID_5_"  style="overflow:visible;"/>
	</clipPath>
	<g class="st16">
		
			<linearGradient id="SVGID_7_" gradientUnits="userSpaceOnUse" x1="74.21" y1="358.2" x2="635.21" y2="358.2" gradientTransform="matrix(1 0 0 -1 0 826)">
			<stop  offset="0" style="stop-color:#C2E9FB"/>
			<stop  offset="1" style="stop-color:#A1C4FD"/>
		</linearGradient>
		<rect x="74.2" y="436.3" class="st17" width="561" height="63"/>
	</g>
</g>
<rect x="120.5" y="467.5" class="st4" width="150" height="15"/>
<rect x="516.2" y="467.5" class="st4" width="75" height="15"/>
<rect x="435.2" y="467.5" class="st4" width="75" height="15"/>
<polygon class="st18" points="119.9,499.3 589.9,499.3 589.9,549.3 119.9,550.3 "/>
<rect x="119.7" y="581.5" class="st12" width="470" height="10"/>
<rect x="182" y="639.2" class="st19" width="30" height="30"/>
<rect x="145" y="639.2" class="st19" width="30" height="30"/>
<rect x="182" y="602.2" class="st19" width="30" height="30"/>
<rect x="145" y="602.2" class="st19" width="30" height="30"/>
<rect x="232.2" y="603.3" class="st19" width="340" height="5"/>
<rect x="145" y="693" class="st11" width="67" height="3"/>
<rect x="145.2" y="701.3" class="st11" width="67" height="3"/>
<rect x="145" y="678" class="st11" width="67" height="3"/>
<rect x="145.2" y="686.3" class="st11" width="67" height="3"/>
<rect x="255" y="627.3" class="st11" width="300" height="131"/>
<rect x="263.1" y="747.5" class="st4" width="280" height="3"/>
<rect x="263.1" y="747.5" class="st20" width="200" height="3"/>
<path class="st3" d="M403.2,669h0.3c0.9,0,1.5,0.7,1.5,1.5v4.3c0,0.9-0.7,1.5-1.5,1.5h-0.3c-0.9,0-1.5-0.7-1.5-1.5v-4.3
	C401.6,669.7,402.3,669,403.2,669z"/>
<path class="st3" d="M403.2,669h0.3c0.9,0,1.5,0.7,1.5,1.5v4.3c0,0.9-0.7,1.5-1.5,1.5h-0.3c-0.9,0-1.5-0.7-1.5-1.5v-4.3
	C401.6,669.7,402.3,669,403.2,669z"/>
<path class="st3" d="M403.2,669h0.3c0.9,0,1.5,0.7,1.5,1.5v4.3c0,0.9-0.7,1.5-1.5,1.5h-0.3c-0.9,0-1.5-0.7-1.5-1.5v-4.3
	C401.6,669.7,402.3,669,403.2,669z"/>
<path class="st3" d="M408.3,676.5l3-3c0.6-0.6,1.6-0.6,2.2,0l0.2,0.2c0.6,0.6,0.6,1.6,0,2.2l-3,3c-0.6,0.6-1.6,0.6-2.2,0l-0.2-0.2
	C407.7,678.1,407.7,677.1,408.3,676.5z"/>
<path class="st3" d="M412.4,682.2h4.3c0.9,0,1.5,0.7,1.5,1.5v0.4c0,0.9-0.7,1.5-1.5,1.5h-4.3c-0.9,0-1.5-0.7-1.5-1.5v-0.4
	C410.9,682.8,411.6,682.2,412.4,682.2z"/>
<path class="st3" d="M408.4,689.3l0.2-0.2c0.6-0.6,1.6-0.6,2.2,0l3,3c0.6,0.6,0.6,1.6,0,2.2l-0.2,0.2c-0.6,0.6-1.6,0.6-2.2,0l-3-3
	C407.8,690.9,407.8,689.9,408.4,689.3z"/>
<path class="st21" d="M392.8,673.6l0.2-0.2c0.6-0.6,1.6-0.6,2.2,0l3,3c0.6,0.6,0.6,1.6,0,2.2l-0.2,0.2c-0.6,0.6-1.6,0.6-2.2,0l-3-3
	C392.2,675.2,392.2,674.2,392.8,673.6z"/>
<path class="st3" d="M403.3,691.1h0.3c0.9,0,1.5,0.7,1.5,1.5v4.3c0,0.9-0.7,1.5-1.5,1.5h-0.3c-0.9,0-1.5-0.7-1.5-1.5v-4.3
	C401.8,691.8,402.5,691.1,403.3,691.1z"/>
<path class="st22" d="M392.9,692.1l3-3c0.6-0.6,1.6-0.6,2.2,0l0.2,0.2c0.6,0.6,0.6,1.6,0,2.2l-3,3c-0.6,0.6-1.6,0.6-2.2,0l-0.2-0.2
	C392.3,693.7,392.3,692.7,392.9,692.1z"/>
<path class="st0" d="M390.1,682.1h4.3c0.9,0,1.5,0.7,1.5,1.5v0.4c0,0.9-0.7,1.5-1.5,1.5h-4.3c-0.9,0-1.5-0.7-1.5-1.5v-0.4
	C388.5,682.7,389.2,682.1,390.1,682.1z"/>
<path class="st4" d="M348.4,705.3h3.3l4.3,6.3v-6.3h3.3v11.3h-3.3l-4.2-6.2v6.2h-3.3L348.4,705.3z"/>
<path class="st4" d="M360.9,712.5c0-1.2,0.4-2.3,1.3-3.1c2.1-1.7,5.1-1.6,7.1,0.2c1.4,1.7,1.3,4.3-0.2,5.9c-0.9,0.8-2.2,1.3-3.5,1.2
	c-1.1,0.1-2.3-0.3-3.2-1C361.4,715,360.9,713.8,360.9,712.5z M364,712.5c0,0.6,0.1,1.1,0.4,1.6c0.5,0.6,1.4,0.7,2,0.2
	c0.1-0.1,0.1-0.1,0.2-0.2c0.3-0.5,0.5-1.1,0.4-1.7c0-0.6-0.1-1.1-0.4-1.6c-0.3-0.3-0.7-0.5-1.1-0.5c-0.4,0-0.9,0.2-1.1,0.5
	C364.2,711.4,364,712,364,712.5L364,712.5z"/>
<path class="st4" d="M370.9,708.4h3l1.3,5.1l1.7-5.1h2.8l1.7,5.1l1.3-5.1h3l-3,8.2H380l-1.7-4.9l-1.6,4.9h-2.8L370.9,708.4z"/>
<path class="st4" d="M392.2,705.3h3.5v8.5h5.4v2.8h-8.9V705.3z"/>
<path class="st4" d="M402.1,712.5c0-1.2,0.4-2.3,1.3-3.1c2.1-1.7,5.1-1.6,7.1,0.2c1.4,1.7,1.3,4.3-0.2,5.9c-0.9,0.8-2.2,1.3-3.5,1.2
	c-1.1,0.1-2.3-0.3-3.2-1C402.6,715,402,713.8,402.1,712.5z M405.2,712.5c0,0.6,0.1,1.1,0.4,1.6c0.5,0.6,1.4,0.7,2,0.2
	c0.1-0.1,0.1-0.1,0.2-0.2c0.3-0.5,0.5-1.1,0.4-1.7c0-0.6-0.1-1.1-0.4-1.6c-0.3-0.3-0.7-0.5-1.1-0.5c-0.4,0-0.9,0.2-1.1,0.5
	C405.3,711.4,405.2,712,405.2,712.5L405.2,712.5z"/>
<path class="st4" d="M415.8,711.1l-3-0.3c0.1-0.4,0.2-0.9,0.5-1.2c0.2-0.3,0.6-0.6,0.9-0.8c0.4-0.2,0.8-0.3,1.2-0.4
	c0.5-0.1,1.1-0.1,1.6-0.1c0.8,0,1.5,0,2.3,0.2c0.5,0.1,1,0.3,1.4,0.7c0.3,0.3,0.5,0.6,0.6,1c0.1,0.4,0.2,0.8,0.2,1.2v3.6
	c0,0.3,0,0.6,0.1,0.9c0.1,0.3,0.2,0.6,0.3,0.8H419c-0.1-0.2-0.2-0.3-0.2-0.5c0-0.2-0.1-0.3-0.1-0.5c-0.4,0.4-0.8,0.6-1.2,0.8
	c-0.6,0.2-1.3,0.4-1.9,0.3c-0.8,0.1-1.6-0.2-2.2-0.7c-0.5-0.4-0.8-1-0.8-1.7c0-0.6,0.2-1.1,0.5-1.5c0.6-0.5,1.3-0.8,2-0.9
	c1.2-0.2,1.9-0.4,2.3-0.5c0.4-0.1,0.7-0.2,1.1-0.4c0-0.3-0.1-0.6-0.2-0.8c-0.2-0.2-0.5-0.3-0.8-0.2c-0.4,0-0.8,0.1-1.2,0.3
	C416,710.5,415.9,710.8,415.8,711.1z M418.5,712.7c-0.4,0.2-0.9,0.3-1.3,0.4c-0.4,0.1-0.8,0.3-1.2,0.5c-0.3,0.3-0.3,0.8,0,1.1
	c0,0,0,0,0,0c0.2,0.2,0.5,0.3,0.8,0.2c0.3,0,0.7-0.1,1-0.3c0.3-0.1,0.5-0.4,0.6-0.6c0.1-0.3,0.2-0.6,0.2-1L418.5,712.7z"/>
<path class="st4" d="M432.1,705.3v11.3h-2.9v-1.2c-0.3,0.4-0.7,0.7-1.1,1c-0.5,0.2-1,0.4-1.5,0.3c-1,0.1-2-0.4-2.5-1.3
	c-0.6-0.9-0.9-2-0.9-3.1c-0.1-1.1,0.3-2.2,1-3.1c0.6-0.7,1.5-1.1,2.5-1.1c0.5,0,0.9,0.1,1.3,0.3c0.4,0.2,0.8,0.4,1.1,0.7v-3.9H432.1
	z M428.9,712.5c0-0.5-0.1-1-0.4-1.4c-0.2-0.3-0.6-0.5-1-0.5c-0.4,0-0.7,0.2-0.9,0.5c-0.3,0.5-0.4,1-0.4,1.5c0,0.5,0.1,1,0.4,1.5
	c0.2,0.3,0.6,0.5,0.9,0.5c0.4,0,0.8-0.2,1-0.5C428.8,713.6,428.9,713,428.9,712.5z"/>
<path class="st4" d="M434.1,705.3h3.1v2.1h-3.1V705.3z M434.1,708.4h3.1v8.2h-3.1V708.4z"/>
<path class="st4" d="M439.2,708.4h2.9v1.3c0.4-0.5,0.8-0.9,1.3-1.2c0.5-0.2,1.1-0.4,1.6-0.3c0.7,0,1.5,0.2,2,0.8
	c0.5,0.7,0.8,1.5,0.7,2.4v5.2h-3.2v-4.5c0-0.4-0.1-0.8-0.3-1.1c-0.2-0.2-0.5-0.3-0.8-0.3c-0.4,0-0.7,0.2-0.9,0.4
	c-0.3,0.5-0.4,1-0.3,1.5v3.9h-3.1L439.2,708.4z"/>
<path class="st4" d="M455.4,708.4h2.9v8.1c0,0.5-0.1,1-0.3,1.5c-0.2,0.4-0.5,0.8-0.9,1.1c-0.4,0.3-0.9,0.5-1.4,0.6
	c-0.6,0.1-1.3,0.2-1.9,0.2c-1.2,0.1-2.4-0.1-3.4-0.7c-0.6-0.5-1-1.2-0.9-2c0-0.1,0-0.2,0-0.4l3,0.3c0,0.2,0.2,0.4,0.3,0.6
	c0.3,0.2,0.6,0.3,0.9,0.2c0.4,0,0.7-0.1,1-0.4c0.3-0.4,0.4-0.8,0.3-1.3v-1.2c-0.6,0.8-1.5,1.2-2.5,1.2c-1.1,0-2.1-0.5-2.7-1.4
	c-0.5-0.8-0.8-1.7-0.7-2.7c-0.1-1.1,0.3-2.1,0.9-2.9c0.6-0.7,1.5-1,2.4-1c0.5,0,1.1,0.1,1.6,0.3c0.5,0.3,0.9,0.6,1.2,1.1
	L455.4,708.4z M452.4,712.4c0,0.5,0.1,0.9,0.4,1.3c0.5,0.6,1.4,0.6,1.9,0.1c0,0,0.1-0.1,0.1-0.1c0.3-0.4,0.4-0.9,0.4-1.3
	c0-0.5-0.1-1-0.4-1.4c-0.2-0.3-0.6-0.5-1-0.5c-0.4,0-0.8,0.1-1,0.4C452.5,711.4,452.4,711.9,452.4,712.4L452.4,712.4z"/>
<g id="tablet">
	<path class="st23" d="M1184.6,484.2h147.1c13.2,0,23.9,10.7,23.9,23.9v231.9c0,13.2-10.7,23.9-23.9,23.9h-147.1
		c-13.2,0-23.9-10.7-23.9-23.9V508C1160.8,494.9,1171.4,484.2,1184.6,484.2z"/>
	<path class="st24" d="M1184.6,486.2h147.1c12.1,0,21.9,9.8,21.9,21.9v231.9c0,12.1-9.8,21.9-21.9,21.9h-147.1
		c-12.1,0-21.9-9.8-21.9-21.9V508C1162.7,496,1172.5,486.2,1184.6,486.2z"/>
	<path class="st3" d="M1184.6,492.1h147.1c8.8,0,15.9,7.1,15.9,15.9v231.9c0,8.8-7.1,15.9-15.9,15.9h-147.1
		c-8.8,0-15.9-7.1-15.9-15.9V508C1168.7,499.3,1175.8,492.1,1184.6,492.1z"/>
	<path class="st25" d="M1160.8,532.3h-0.2c-0.3,0-0.6-0.3-0.6-0.6v-8.8c0-0.3,0.3-0.6,0.6-0.6h0.2
		C1160.8,522.3,1160.8,532.3,1160.8,532.3z"/>
	<path class="st25" d="M1160.8,561.8h-0.2c-0.3,0-0.6-0.3-0.6-0.6V543c0-0.3,0.3-0.6,0.6-0.6h0.2
		C1160.8,542.4,1160.8,561.8,1160.8,561.8z"/>
	<path class="st25" d="M1355.6,548.6h0.2c0.3,0,0.6,0.3,0.6,0.6v31.3c0,0.3-0.3,0.6-0.6,0.6h-0.2
		C1355.6,581.1,1355.6,548.6,1355.6,548.6z"/>
	<path class="st26" d="M1270.7,499.6c0,0.6-0.9,1.1-2,1.1h-13.2c-1.1,0-2-0.5-2-1.1s0.9-1.1,2-1.1h13.2
		C1269.9,498.5,1270.7,499,1270.7,499.6z"/>
	<circle class="st27" cx="1247.8" cy="499.6" r="2.2"/>
	<circle class="st3" cx="1247.8" cy="499.6" r="1.4"/>
	<circle class="st28" cx="1247.5" cy="499.5" r="0.8"/>
	<circle class="st29" cx="1248" cy="498.9" r="0.3"/>
	<path class="st25" d="M1160.8,587.5h-0.2c-0.3,0-0.6-0.3-0.6-0.6v-18.2c0-0.3,0.3-0.6,0.6-0.6h0.2
		C1160.8,568.2,1160.8,587.5,1160.8,587.5z"/>
	<rect x="1176.6" y="514.9" class="st4" width="163.2" height="206.9"/>
	<circle class="st15" cx="1258.2" cy="739.3" r="9.9"/>
	<circle class="st3" cx="1258.2" cy="739.3" r="8.9"/>
</g>
<g id="画面-3">
	<g>
		<defs>
			<rect id="SVGID_8_" x="1176.6" y="515.1" width="163.2" height="206.9"/>
		</defs>
		<clipPath id="SVGID_9_">
			<use xlink:href="#SVGID_8_"  style="overflow:visible;"/>
		</clipPath>
		<g class="st30">
			
				<linearGradient id="SVGID_10_" gradientUnits="userSpaceOnUse" x1="1169.34" y1="298.565" x2="1342.6699" y2="298.565" gradientTransform="matrix(1 0 0 -1 0 826)">
				<stop  offset="0" style="stop-color:#FF9A9E"/>
				<stop  offset="1" style="stop-color:#FAD0C4"/>
			</linearGradient>
			<rect x="1169.3" y="510.1" class="st31" width="173.3" height="34.7"/>
		</g>
	</g>
	<path class="st4" d="M1324.9,537.8h-39c-4.1,0-7.5-3.4-7.5-7.5l0,0c0-4.1,3.4-7.5,7.5-7.5h39c4.1,0,7.5,3.4,7.5,7.5l0,0
		C1332.4,534.4,1329,537.8,1324.9,537.8z"/>
	<rect x="1197" y="556.8" class="st10" width="38.5" height="38.5"/>
	<text transform="matrix(1 0 0 1 1204.01 586.1)" class="st4 st32 st33">W</text>
	
		<linearGradient id="SVGID_11_" gradientUnits="userSpaceOnUse" x1="1319.34" y1="234.73" x2="1242.34" y2="234.73" gradientTransform="matrix(1 0 0 -1 0 826)">
		<stop  offset="0" style="stop-color:#FF9A9E"/>
		<stop  offset="1" style="stop-color:#FAD0C4"/>
	</linearGradient>
	<rect x="1242.7" y="588.8" class="st34" width="78" height="5"/>
	
		<linearGradient id="SVGID_12_" gradientUnits="userSpaceOnUse" x1="1319.34" y1="245.73" x2="1242.34" y2="245.73" gradientTransform="matrix(1 0 0 -1 0 826)">
		<stop  offset="0" style="stop-color:#FF9A9E"/>
		<stop  offset="1" style="stop-color:#FAD0C4"/>
	</linearGradient>
	<rect x="1242.7" y="577.8" class="st35" width="78" height="5"/>
	
		<linearGradient id="SVGID_13_" gradientUnits="userSpaceOnUse" x1="1319.34" y1="255.73" x2="1242.34" y2="255.73" gradientTransform="matrix(1 0 0 -1 0 826)">
		<stop  offset="0" style="stop-color:#FF9A9E"/>
		<stop  offset="1" style="stop-color:#FAD0C4"/>
	</linearGradient>
	<rect x="1242.7" y="567.8" class="st36" width="78" height="5"/>
	
		<linearGradient id="SVGID_14_" gradientUnits="userSpaceOnUse" x1="1319.34" y1="266.73" x2="1242.34" y2="266.73" gradientTransform="matrix(1 0 0 -1 0 826)">
		<stop  offset="0" style="stop-color:#FF9A9E"/>
		<stop  offset="1" style="stop-color:#FAD0C4"/>
	</linearGradient>
	<rect x="1242.7" y="556.8" class="st37" width="78" height="5"/>
	<rect x="1197.3" y="710.8" class="st11" width="123" height="4"/>
	<rect x="1197.3" y="700.8" class="st11" width="123" height="4"/>
	<rect x="1197.3" y="690.8" class="st11" width="123" height="4"/>
	<rect x="1197.3" y="680.8" class="st11" width="123" height="4"/>
	<rect x="1197.3" y="670.8" class="st11" width="123" height="4"/>
	<rect x="1197.3" y="660.8" class="st11" width="123" height="4"/>
	<rect x="1197.3" y="650.8" class="st11" width="123" height="4"/>
	<rect x="1197.3" y="640.8" class="st11" width="123" height="4"/>
	<rect x="1197.3" y="630.8" class="st11" width="123" height="4"/>
	<rect x="1197.3" y="620.8" class="st11" width="123" height="4"/>
	<rect x="1197.3" y="610.8" class="st11" width="123" height="4"/>
</g>
<g id="iphone">
	<path class="st23" d="M1388.7,586.7h57.8c8.4,0,15.1,6.8,15.1,15.1v147c0,8.4-6.8,15.1-15.1,15.1h-57.8c-8.4,0-15.1-6.8-15.1-15.1
		v-147C1373.6,593.5,1380.3,586.7,1388.7,586.7z"/>
	
		<linearGradient id="SVGID_15_" gradientUnits="userSpaceOnUse" x1="1374.83" y1="150.625" x2="1460.38" y2="150.625" gradientTransform="matrix(1 0 0 -1 0 826)">
		<stop  offset="0" style="stop-color:#646464"/>
		<stop  offset="0.5" style="stop-color:#3C3C3C"/>
		<stop  offset="1" style="stop-color:#646464"/>
	</linearGradient>
	<path class="st38" d="M1388.7,588h57.8c7.7,0,13.9,6.2,13.9,13.9v147c0,7.7-6.2,13.9-13.9,13.9h-57.8c-7.7,0-13.9-6.2-13.9-13.9
		v-147C1374.8,594.2,1381,588,1388.7,588z"/>
	<path class="st3" d="M1388.7,591.8h57.8c5.6,0,10.1,4.5,10.1,10.1v147c0,5.6-4.5,10.1-10.1,10.1h-57.8c-5.6,0-10.1-4.5-10.1-10.1
		v-147C1378.6,596.3,1383.1,591.8,1388.7,591.8z"/>
	<path class="st25" d="M1373.6,617.3h-0.1c-0.2,0-0.4-0.2-0.4-0.4l0,0v-5.6c0-0.2,0.2-0.4,0.4-0.4l0,0h0.1
		C1373.6,610.9,1373.6,617.2,1373.6,617.3z"/>
	<path class="st25" d="M1373.6,635.9h-0.1c-0.2,0-0.4-0.2-0.4-0.4l0,0V624c0-0.2,0.2-0.4,0.4-0.4l0,0h0.1
		C1373.6,623.7,1373.6,635.9,1373.6,635.9z"/>
	<path class="st25" d="M1461.6,627.6h0.1c0.2,0,0.4,0.2,0.4,0.4l0,0v19.9c0,0.2-0.2,0.4-0.4,0.4l0,0h-0.1
		C1461.6,648.2,1461.6,627.6,1461.6,627.6z"/>
	<path class="st4" d="M1388.8,757.7c-4.9,0-8.8-4-8.8-8.8v-147c0-4.9,4-8.8,8.8-8.8h7c0.3,0,0.4,0.2,0.4,0.3s0,1.8,0,1.8
		c0.1,2.3,2.1,4.2,4.4,4.1h36.1c2.3,0.1,4.3-1.7,4.4-4.1v-1.8c0,0,0.2-0.2,0.4-0.2h5c4.9,0,8.8,4,8.8,8.8v147c0,4.9-4,8.8-8.8,8.8
		L1388.8,757.7z"/>
	<path class="st26" d="M1423.5,593.9c0,0.4-0.6,0.7-1.3,0.7h-8.4c-0.7,0-1.3-0.3-1.3-0.7s0.6-0.7,1.3-0.7h8.4
		C1423,593.2,1423.5,593.6,1423.5,593.9z"/>
	<circle class="st27" cx="1427.8" cy="594" r="1.4"/>
	<circle class="st3" cx="1427.8" cy="594" r="0.9"/>
	<path class="st25" d="M1373.6,652.3h-0.1c-0.2,0-0.4-0.2-0.4-0.4l0,0v-11.5c0-0.2,0.2-0.4,0.4-0.4l0,0h0.1
		C1373.6,640,1373.6,652.3,1373.6,652.3z"/>
	<circle class="st4" cx="1427.9" cy="593.6" r="0.2"/>
</g>
<g id="画面-4">
	<rect x="1398" y="605.2" class="st9" width="40" height="4"/>
	<rect x="1389" y="617.7" class="st11" width="58" height="35"/>
	<rect x="1389" y="686.1" class="st9" width="58" height="4"/>
	<rect x="1389" y="678.1" class="st9" width="58" height="4"/>
	<rect x="1389" y="670.1" class="st9" width="58" height="4"/>
	<rect x="1389" y="662.1" class="st9" width="58" height="4"/>
	<rect x="1389" y="746.5" class="st11" width="58" height="3"/>
	<rect x="1389" y="739.5" class="st11" width="58" height="3"/>
	<rect x="1389" y="732.5" class="st11" width="58" height="3"/>
	<rect x="1389" y="725.5" class="st11" width="58" height="3"/>
	<rect x="1389" y="718.5" class="st11" width="58" height="3"/>
	<rect x="1389" y="711.5" class="st11" width="58" height="3"/>
	<rect x="1389" y="704.5" class="st11" width="58" height="3"/>
	<rect x="1389" y="697.5" class="st11" width="58" height="3"/>
</g>
<g id="人物1">
	<path class="st39" d="M1231.9,78.6c0,0,12-5,14-9s-6-8-6-8l-8,7C1231.9,68.6,1229.9,75.6,1231.9,78.6z"/>
	<path class="st40" d="M1224.6,31.7c-0.7,0.2,0.2,0.9,0.4,1.1c0.3,0.2,0.5,0.5,0.6,0.9c0.3,1.3-2.3,1.2-2.8,1.7
		c-0.1,0.1-0.3,0.3-0.3,0.5c0.2,0.4,0.4,0.9,0.6,1.3c1.5,3.1,3.5,6,5.9,8.5c0.5,0.5,0.9,1,1.5,1.4c0.1,0.1,0.2,0.1,0.3,0.1
		c0.2,0,0.4-0.2,0.4-0.4c0,0,0,0,0-0.1c0-0.1-0.1-0.2-0.2-0.3c-3.6-4.2-4.7-9.3-4.6-14.3h-0.2C1225.6,31.8,1225.1,31.7,1224.6,31.7z
		"/>
	<path class="st39" d="M1206.4,36.6c-0.8,0.6-1.6,1.2-2.4,1.6c3.5,2,5.1,6.5,6.2,10.1c0.5,1.9,1.4,3.7,2.8,5.1
		c0.7,0.7,1.6,1.3,2.3,1.9s1.4,0.4,1.3-0.8c-0.1-0.6-0.2-1.2-0.2-1.8c0-0.6-0.2-1.3-0.4-1.9c-0.7-1.6-0.6-3.3-0.7-5.1
		c-0.2-3.6-0.1-7.4,2-10.4c-1.1-1.5-2.7-2.3-3.9-3.6c-0.9-0.9-1.7-1.9-2.4-2.9C1209.6,31.9,1209,34.4,1206.4,36.6z"/>
	<path class="st41" d="M1231.9,15.6"/>
	<path class="st41" d="M1224.3,18.1c-0.8,0.1-1.5,0.3-2.3,0.6c0.2-0.5,0.5-0.9,0.9-1.3c-0.9,0.5-1.7,1.1-2.5,1.7
		c-0.6,0.3-1.3,0.6-1.8,1c0.5-0.8,1.1-1.7,1.6-2.4c-1.8,1.6-3.8,2.8-5.6,4.3c-1.6,1.3-2.3,6-1.8,7.9c-0.1-0.3-0.7-0.8-0.8-1.3
		c-0.1-0.6-0.2-1.2-0.1-1.8c-1.1,1.7-2.8,4-1.5,6c1.1,1.4,2.4,2.5,3.9,3.4c1.1,0.7,2.1,1.3,3,1.9c1.6,1.1,4.3,2.6,5.7,0.5
		c0.3-0.5,0.3-1.1,0.6-1.5s1.7-0.6,1.2-1.5c0.4,0,0.9-0.1,1.1-0.5c0.3-0.6-0.3-1.5,0.3-2.2c0.3-0.3,0.8-0.4,1.2-0.3
		c0.8,0,1.8,0.5,2.4-0.4c0.4-0.7-0.3-2.1-0.4-2.9c-0.3-2.2-0.1-4.5,0.6-6.6l1.8-6.2c0.6-1.2,0.7-2.6,0.1-3.9L1224.3,18.1z"/>
	<path class="st39" d="M1226.2,20.9c-1.2-0.5-3.2-1.3-4.2-0.1c1,1.1,2.1,2.2,3.3,3.2c0.9,0.8,1.1,1,1.8-0.1S1227.5,21.4,1226.2,20.9
		z"/>
	<path class="st42" d="M1208.7,82.6c-0.7-0.5-1.9-2.1-2.7-2c-0.3,0-1.2,1.1-1.4,1.3c-0.6,0.5-1.2,1-1.9,1.5c0.5,0.8,0.9,1.7,1.2,2.5
		c0.5,0.9,1.6,1.4,2.6,1.1c0.8-0.2,1.5-0.4,2.2-0.7c1.3-0.5,2.6-1.1,3.7-1.4c0.3-0.1,0.7-0.2,1.2-0.2c-0.6-0.8-1.2-1.6-1.7-2.5
		l-0.4,0.3C1210.6,83.2,1209.5,83.2,1208.7,82.6z"/>
	<path class="st40" d="M1231.7,12.3l-0.3,0.3c0.1,0.3,0.1,0.5,0.1,0.8c0.2,1.8,0.1,3.7-0.3,5.5c-0.2,0.9-0.4,1.7-0.6,2.6
		c3.2-8.1,1.8-11.4,1.6-11.8c0-0.1-0.1-0.2-0.1-0.4c0,0.1,0.1,0.2,0.1,0.3C1232.5,10.6,1232.3,11.6,1231.7,12.3z"/>
	<path class="st41" d="M1290.8,138.8c4.8-2.9,12.5-3.9,14.2-9.9c0.2-0.8,0.3-1.6,0.3-2.4c0-0.3,0-0.6,0-0.9
		c-6.8,4.9-17,2.6-21.7,0.1c-11.3-6-21.4-15.5-30.8-24c-5.4-4.9-11.6-9.9-19.3-9.9c-2.1,0.1-4.1,0.6-6,1.5c0.5-0.8,1-1.7,1.4-2.6
		c0.7-1.4,1.5-2.8,2.2-4.2c0.4-0.7,0.7-1.4,1-2.2l9.9-41.6c-6.3,2.5-5,6.9-6.5,10.6c-2,5-4.4,9.8-7.1,14.4c-0.8,0.7-1.6,1.3-2.4,2
		c-1.1,0.9-2.2,1.7-3.3,2.6c-0.8,2.5-4.8,4.3-6.5,5.7c-1.3,1.1-2.8,2.9-4.2,4.1c0.5,0.9,1.1,1.7,1.7,2.5c-0.4,0.1-0.8,0.1-1.2,0.2
		c-1.1,0.3-2.4,0.9-3.7,1.4c0.7,1.4,1.4,2.9,2.3,4.2c0.7,1.1,1.6,2.6,3,3c1.8,0.5,3.1-1.3,4.3-2.3l0.8-0.6c0.9,0.8,1.8,1.5,2.7,2.2
		c1,0.9,2.2,1.5,3.5,1.7c-1.2,0.6-2.4,1.3-3.6,1.9c-1.6,0.8-3.2,1.6-4.8,2.4c-0.4,0.8-1,1.6-1.2,2.1c-0.8,2.2,0.6,4.3,0.6,6.5
		c0,2.6-2.7,4.1-3,6.6c-0.4,3.5,5,6.6,7.2,8.7c1,1,2.8,1.8,3.9,2.9c2.9-1.8,5-5.2,8.3-6.1c5.7-1.5,5.4,8.6,6.9,11.8
		c3.1,6.6,8.7,11,14.4,15.2c3.2,2.3,6.5,4.4,9.6,6.9c3.8,3.1,7.5,6.6,9.8,11c0.4-0.1,0.8-0.1,1.2-0.1c1.4,0.1,2.9-0.1,4.3-0.4
		c5.4-1.3,13.1,0,16.5-5.2c0.4-0.7,0.8-1.4,1-2.1c0.1-0.3,0.2-0.6,0.2-0.9c-7.9,2.7-17-2.6-20.7-6.4c-5.9-5.9-10.9-13.1-15.4-20.5
		l1.6,0.5c3.7,1.3,7.5,2.3,11.2,3.7c4.6,1.8,9.2,4.1,12.6,7.6c0.3-0.2,0.7-0.4,1.1-0.5C1288.2,140.1,1289.5,139.6,1290.8,138.8z"/>
	<path class="st43" d="M1314.6,127.4c-0.3-2-0.6-4.7-2.4-6.1c-2.1-1.6-4.6,0-6.2,1.6c-0.6,0.8-0.9,1.8-0.7,2.8c0,0.3,0,0.6,0,0.9
		c0,0.8-0.1,1.6-0.3,2.4c-1.7,5.9-9.5,7-14.2,9.9c-1.2,0.7-2.6,1.3-3.9,1.6c-0.4,0.1-0.8,0.3-1.1,0.5c-1.2,0.5-1.7,1.9-1.2,3.1
		c0.1,0.1,0.1,0.2,0.2,0.4c0.9,1.5,2.6,3.4,4.3,3.9c4,1,7.9-4.8,10.7-6.7c1.2-0.8,2.4-0.5,3.8-0.5c3.2-0.1,7-1.3,9-3.9
		S1315.1,130.6,1314.6,127.4z"/>
	<path class="st43" d="M1295.2,158.9c-3.4,5.1-11.1,3.9-16.5,5.2c-1.4,0.3-2.8,0.5-4.3,0.4c-0.4,0-0.8,0-1.2,0.1
		c-1.3,0.1-2.2,1.2-2.1,2.5c0,0.2,0,0.3,0.1,0.5c0.4,1.7,1.4,4,3,5c3.5,2.2,9-2.2,12.2-3.2c1.4-0.4,2.4,0.2,3.8,0.6
		c3.1,0.8,7.1,0.8,9.8-1.1s4.3-5.5,4.8-8.6c0.3-2,0.8-4.7-0.4-6.5c-1.5-2.2-4.4-1.4-6.4-0.3c-0.8,0.6-1.4,1.5-1.5,2.5
		c-0.1,0.3-0.2,0.6-0.2,0.9C1296,157.6,1295.7,158.3,1295.2,158.9z"/>
	<path class="st44" d="M1220.4,122.8c-2.1-2.1-7.6-5.2-7.2-8.7c0.3-2.5,2.9-4,3-6.6c0-2.2-1.4-4.3-0.6-6.5c0.2-0.5,0.8-1.3,1.2-2.1
		s0.5-1.3,0.2-1.8c-0.6-0.9-3.1,0.2-4,0.4l-0.3,0.1c-1.6,0.4-3.3,0.5-4.9,0.9c-2,0.6-4.1,1.8-6.1,0.7c-1.7-1-1.8-2.9-2-4.6
		c-0.2-2.4-1.4-5.2-1-7.6c0.3-1.5,1.6-1.9,2.8-2.6c0.4-0.3,0.9-0.6,1.3-0.9c0.6-0.5,1.3-1,1.9-1.5c0.3-0.2,1.2-1.3,1.4-1.3
		c0.8-0.1,2,1.5,2.7,2c0.8,0.6,2,0.6,2.8,0l0.4-0.3c1.4-1.1,2.9-3,4.2-4.1c1.7-1.4,5.8-3.2,6.5-5.7c0.3-0.8,0.1-1.8-0.4-2.5
		c-1.4-2.2-3.2-4.4-4.2-6.8c-1.5-3.3-2-7-1.5-10.6c1-5.4-0.4-9.4-3.2-12.1c-2-1.8-4.4-3.1-7-3.7l-0.6,0.6c-1.5,1.5-3,3.1-4.5,4.7
		c-4.6,5.1-8.5,10.8-11.7,16.9c-3.2,6.1-5.8,12.5-7.7,19.1c-1.1,3.6-3.8,10-10.6,12c-1.9,0.5-3.8,0.8-5.7,0.9l0,0
		c-1.4,0.1-2.9-0.2-4.2-0.9c-0.6-0.3-1.1-0.8-1.4-1.5c-0.7,1.6-1.3,3.3-1.9,4.9c-2.7,7.1-6.2,14.5-7.8,21.9c-0.8,3.6-0.7,7.3-1,10.9
		c-0.3,4.5-1.7,8.8-4.1,12.6c-1.7,2.8-6.7,5.6-7.8,8.6s2.2,4.7,5.8,6.1c3.3,1.6,7.1,1.8,10.6,0.6c5.3-1.7,5.3-1.4,10.6,1.4
		c7.7,4.1,14.2-4,20.9-6.2c4.8-1.6,11.9,0.6,16.7,0.9c3.9,0.3,2.3-6.8,5.2-8.6c0.8-0.4,1.7-0.6,2.5-0.4c2.1,0.3,6.3,3.2,7.5,0
		c0.9-2.4,0.7-5.3,2.4-7.5s5.3-2.6,5.7-5.4c0.1-1-0.2-2-1-2.7C1223.2,124.6,1221.4,123.9,1220.4,122.8z"/>
	<path class="st45" d="M1161.2,90c1.3,0.6,2.7,0.9,4.2,0.9l0,0c1.9,0,3.9-0.3,5.7-0.9c6.8-2,9.6-8.4,10.6-12
		c1.9-6.6,4.5-13,7.7-19.1c3.2-6.1,7.1-11.8,11.7-16.9c1.4-1.6,3-3.2,4.5-4.7l0.6-0.6c1.7-1.8,3.4-3.6,5-5.4c0.2-0.3,0.7-1,1.4-2
		c0.4-0.6,1.1-1.6,1.8-2.6c-0.9-1.2-1-2.7-0.3-4.1c1.9-3.1,4.1-1.9,4.9-0.7c0.6,0.7,0.3,1.9-0.2,3.1c-1.3,3.4-1.5,7.1-0.6,10.6
		c0.1,0.5,0.3,1,0.4,1.5c0.9,2.8,2.2,5.4,3.8,7.9c0.4,0.6,0.8,1.1,1.2,1.6c0.1,0.1,0.2,0.2,0.3,0.1c0.2,0,0.4-0.1,0.4-0.3
		c0,0,0,0,0-0.1c0-0.1,0-0.2-0.1-0.3c-1.6-2.7-2.4-5.8-2.4-9c-0.3-11.3,8.1-22.4,9.7-24.5l0.3-0.3c0.6-0.7,0.8-1.7,0.5-2.6
		c0-0.1-0.1-0.2-0.1-0.3c-1.3-3.5-7.6-7.8-9.6-8.5c-1.6-0.6-3.4-0.9-5.1-0.9c-4.6,0.1-8.9,1.8-12.4,4.8c-2.8,2.3-5,5.1-6.6,8.3
		c-5.9,13.1-14.4,24.9-24.8,34.8c-1.9,1.7-3.9,3.4-6.2,5.2l-1.8,1.3c-3.5,2.6-7.2,5.4-9,9.7c-2.5,5.8-1.4,11.3,3.1,15.9
		c1.3,1.3,1.5,2.9,0.8,5.2l-0.2,0.4c-0.5,1-0.6,2-0.4,3.1C1160.1,89.2,1160.6,89.7,1161.2,90z"/>
	<polygon class="st11" points="1236.9,66.6 1245.9,28.6 1256.9,36.6 1247.8,75.7 	"/>
	<polygon class="st13" points="1244.9,30.6 1245.9,28.6 1236.9,66.6 1247.9,75.5 1247.9,76.6 1235.9,66.6 	"/>
	<path class="st41" d="M1249.5,54.9c-0.8-0.1-1.7-0.1-2.5,0c-0.6,0-1.2,0-1.7,0.1c-0.3,0.1-1,0.2-1.1,0.6s-1.1,0.5-1.5,0.7
		c-0.4,0.3-0.5,0.7-0.4,1.2c0.1,0.2,0.2,0.4,0.2,0.7c0,0.2-0.1,0.3-0.2,0.4c-0.3,0.3-0.4,0.7-0.3,1.1c0.1,0.6,0.8,0.8,1.3,0.9
		c0.5,0.1,0.9,0.2,1.3,0.4c0.3,0.3,0,0.3,0,0.6c-0.1,0.9,1.3,1.1,1.9,1.4l1.5,0.7l1.9,1.1l-0.7,3.1l0.2-0.1c2-0.3,3.8-1.5,5-3.1
		c0.7-1.2,0.9-2.6,0.6-4c-0.4-2.2-0.9-4.2-3.1-5.1l0,0C1251.1,55.3,1250.3,55,1249.5,54.9z"/>
</g>
<g id="人物2">
	
		<linearGradient id="SVGID_16_" gradientUnits="userSpaceOnUse" x1="-755.4567" y1="2005.4529" x2="-756.7267" y2="1955.8229" gradientTransform="matrix(0.72 0.69 0.69 -0.72 -102.85 2606.9202)">
		<stop  offset="0" style="stop-color:#FFFFFF"/>
		<stop  offset="1" style="stop-color:#000000"/>
	</linearGradient>
	<path class="st46" d="M746.7,670.2l-39.1-37.2c-0.8-0.8-0.8-2-0.1-2.8c0,0,0,0,0,0l0,0c0.8-0.8,2-0.8,2.8-0.1c0,0,0,0,0,0
		l39.1,37.2c0.8,0.8,0.8,2,0.1,2.8c0,0,0,0,0,0l0,0C748.8,670.9,747.5,670.9,746.7,670.2C746.7,670.2,746.7,670.2,746.7,670.2z"/>
	<path class="st47" d="M841.4,673.9c0,0,11.2,12.5,13.5,18.9s0.4,9.7-2.4,15.8c-4.7,10.3-14.5,15.4-14.5,15.4l-31.9-21.6l11.7-19.2
		L841.4,673.9z"/>
	<path class="st48" d="M843.6,612.3c0,0,10.1,10.1,8.7,22.9S840.7,686,840.7,686s-21.7,10.3-23.8,6.8c-7.6-12-0.3-26.3-0.3-26.3
		s-3.2-15.9-3.9-25.1c-0.8-9.5,11.8-24.4,11.8-24.4L843.6,612.3z"/>
	<path class="st49" d="M835,618.8c-6.2,2.1-15.3,2.9-15.3,2.9s-12.5,18-12,21.9c1,7.2,5.5,18.1,5.5,18.1s-1.4,13.9-3.6,29.7l-2,2.7
		c0,0,34.6,19.7,48.8,1l-9.1-28.1c0,0,7.8-29.4,5.8-39.7S841.9,616.4,835,618.8z"/>
	<polygon class="st39" points="839.4,596.8 844.3,613.8 825.4,619.3 828.4,602.6 	"/>
	<path class="st48" d="M840.1,585.4c3.6,11.2-5.1,22.9-13.1,26.6c-4.2,1.9-5.3,0.8-6.8-1.7c-1.3-2.1-4.6-2.5-6.1-5.7
		c-1-2-3.2-0.3-3.3-1.7c0-3,1-5.7-0.1-7.2c-1.9-2.5-3.1-5.5-3.4-8.6c-0.9-7.7,4.9-15.1,11-17C826.8,567.3,836.5,574.2,840.1,585.4z"
		/>
	<path class="st41" d="M840.1,585.4c3.6,11.2-5.1,22.9-13.1,26.6c-4.2,1.9-5.3,0.8-6.8-1.7c-1.3-2.1-4.6-2.5-6.1-5.7
		c-1-2-3.2-0.3-3.3-1.7c0-3,1-5.7-0.1-7.2c-1.9-2.5-3.1-5.5-3.4-8.6c-0.9-7.7,4.9-15.1,11-17C826.8,567.3,836.5,574.2,840.1,585.4z"
		/>
	<path class="st39" d="M818.4,570.1c-2.2,0.8-4.3,2.1-5.9,3.8c6.4,1.3,12.5,7.3,15.2,15.6c3.1,9.5,0.7,18.9-5.1,23.3
		c1,0.4,2.3,0.2,4.5-0.8c8-3.7,16.7-15.4,13.1-26.6S826.8,567.3,818.4,570.1z"/>
	<path d="M811.7,578.9c0,0,4.8,2.2,7.8,1.8c7.1-0.9,10.1,10.2,10.1,10.2s4.1,6.2,6.9,7.1c2.6,1,5.1,2.4,7.4,4.1c0,0-0.8-2.6,1.5-6.4
		c1.4-2.3,2.7-3.5,0.5-11.4s-5-13.4-12.3-16.8s-19.8,1.2-21.3,5.2C810.7,577.5,811.7,578.9,811.7,578.9z"/>
	<path class="st39" d="M828.2,587.4c0,0,1.5-3.4,4.1-1.3c1.7,1.3,3.4,5.1,1.7,8.2c-0.7,1.1-1.6,2.1-2.6,2.9L828.2,587.4z"/>
	<path d="M814,577.9c0,2.1-0.9,4.1-2.5,5.4c-4.3,3.2-3.6,6-3.6,6s-6.6-12,4.5-16.5L814,577.9z"/>
	<path class="st41" d="M687.9,710.2c-13.7,2.8-30.8,5.7-30.8,5.7l1.6,11.2l30.5-2.2L687.9,710.2z"/>
	<path class="st41" d="M658.4,715.6l-10.5-5c0,0-11.4-7.7-13.5-8.4s-4-0.7-4.5,1s4.9,4.8,4.9,4.8l7.5,12.6c0,0,0.8,8.8,3.7,11.8
		s6.8,2.8,10.5-0.3c7-5.8,8.4-8.4,8.4-8.4L658.4,715.6z"/>
	<path class="st47" d="M841.9,707.6c-6-5.8-14.3-9.7-21.5-12c-9.7-3.1-33.8-1.7-50.5-0.2c-5.5-2.3-11.3-1.5-16.7-0.2
		c-4.5,1-10.4,4-12,6c-1.9,2.4,8.5,16.6,8.5,16.6s21.2,4.3,52.1,9.4c10.2,1.7,20.5,1.6,30.7-0.3C840.5,725,849.6,715,841.9,707.6z"
		/>
	<path class="st47" d="M736.5,722.7L736.5,722.7c9.6-2.8,20.6-6.6,20.6-6.6l-6.5-20.1c-1.6,0.1-10,1.8-20,4.1l-50.8,4.5
		c0,0,3.4,7.6,4.4,13.3s0,22.8,0,22.8L736.5,722.7z"/>
	<path class="st49" d="M796.7,681.6c13.3-9.9,28.9-18.2,30.5-23.3c2.8-8.9,1.6-12.6-2.1-17.4c0,0-6.5-4.6-18.6,3.6s-22.9,25-22.9,25
		"/>
	<path class="st41" d="M783.4,677.3c0,0-7.8-1.2-17.7-2s-20.2-2.4-20.2-2.4l4.4-7.6c0,0,19.7-2.9,32.6,2.6L783.4,677.3z"/>
	<path class="st41" d="M743.6,674.1l-11-8.9l-6.2-14.2c0,0,2-4.3,7.9,1.7c2.7,2.8,15.8,4.1,16,13.1S743.6,674.1,743.6,674.1z"/>
	<path class="st49" d="M791.3,664l-29.9-0.6c0,0-0.9,13.1-4.8,20.4l16.3-4.4c0,0,17.5,2.2,22.5,2"/>
	<path d="M656.1,730.1c-3.4-4.4-5-10-4.6-15.5l-12.5-8.3c0,0-5.4-6.9-9.2-6.3c0,0-5.7,1-4.1,4.6c0,0,9.1,13.2,10.2,13.9
		c1.8,4.2,3.2,8.5,4.2,13c0,0,3.7,4.3,6.7,4.7C646.7,736.3,653.9,736.7,656.1,730.1z"/>
	
		<linearGradient id="SVGID_17_" gradientUnits="userSpaceOnUse" x1="1054.7312" y1="-704.0281" x2="861.9111" y2="-751.5381" gradientTransform="matrix(0.9859 -0.1671 -0.1671 -0.9859 -502.8668 192.918)">
		<stop  offset="0" style="stop-color:#FFFFFF"/>
		<stop  offset="1" style="stop-color:#000000"/>
	</linearGradient>
	<path class="st50" d="M658.1,729.8c-3.6-4.7-5.4-10.6-4.9-16.5l-13.3-8.8c0,0-5.8-7.3-9.8-6.7c0,0-6.1,1-4.4,4.9
		c0,0,9.6,14,10.8,14.8c0,0,3.4,7.7,4.4,13.8c0,0,3.9,4.5,7.1,5C648.1,736.3,655.8,736.8,658.1,729.8z"/>
	<path d="M840.7,597.1c0,0,2.7,1.2,3.2,2.7c0.3,0.9,0.3,1.8-0.1,2.7c0,0-1.8,1.8-2.8,1s-3.1-0.2-4-1.2
		C833.7,598.3,840.7,597.1,840.7,597.1z"/>
	<path d="M842.8,601c0,0,3-0.1,3.6,0.9c0.6,1.1,1,2.3,1.3,3.5c0,0,0.2,1.4-2.3,1.3s-3,0.1-3.7-1.2c-0.4-1-0.8-2-1.1-3L842.8,601z"/>
	<path d="M847.1,604.4c0,0,2.3,0.8,2.8,2.1s1.3,3.4,0.2,4.6s-4,0.9-4.9-0.3s-1.2-4.6-1.2-4.6L847.1,604.4z"/>
	<path d="M850.3,609.9c0,0,2.3,1.4,2.4,3c0,1.4-0.2,2.7-0.5,4c-1,0-2-0.1-3-0.4c-1.2-0.3-2-1.3-2.3-2.5c-0.1-1.2-0.1-2.4,0.1-3.6
		L850.3,609.9z"/>
	<path d="M851.5,616.3c1.9,0.6,3.3,2.1,3.6,4.1c0.2,1.8,0.7,3.5,1.4,5.1c-0.5-0.2-1-0.6-1.3-1c-0.5-0.8-1-1.6-1.4-2.5
		c0,0,0.4,2.8,1.3,3.4c0,0-3.3-1.2-3.9-3.4c-0.4-1.2-0.5-2.5-0.3-3.7c0,0-1,2.8,0,4.5c0,0-3.3-4.9-1.1-7.3L851.5,616.3z"/>
</g>
<g id="人物_">
	<path class="st51" d="M235.1,538.9c-0.9-3.5-3-6.4-6.1-8.3c-1.6-1-3-3.1-4.2-4.5c-1.4-1.7-2.8-3.5-4.2-5.3
		c-0.6-0.8-1.2-1.7-1.9-2.5c-0.4-0.6-0.6-0.7-0.5-1.4c0.1-0.6,1-6.5,1.4-8.9c0.7-4.6,1.3-9.3,1.9-13.9c1.2-9.3,2.4-18.6,4-27.8
		c1.5-9,1.7-18.4,2.3-27.6c0.3-4.7,0.6-9.4,0.8-14.1c0.1-2.3,0.1-4.5,0.2-6.8c0-1.1,0-2.3,0-3.4c0.6-1,1.1-2.1,1.6-3.1
		c1.7-3.8,2.6-7.8,2.8-11.9c0-1,0-2,0-3c0-0.5-0.1-1-0.1-1.5c0.3-0.1,0.5-0.5,0.5-0.8c0-0.8-1.5-1.4-2.1-1.8c-1-0.7-2.1-1.3-3.1-1.9
		c-0.9-0.5-1.8-1-2.8-1.5l-1.4-0.7c-0.8-0.4-0.3-0.2-0.6-0.8c-0.4-0.8-1.8-0.3-2.5-0.2l-3.9,0.5c-4.6,0.5-9.2,0.9-13.9,1.1
		c-9.2,0.5-18.4,0.1-27.6-1.2c-2.2-0.3-4.4-0.7-6.6-1.2c-1.1-0.2-2.2-0.5-3.3-0.7c-0.7-0.2-2.5-1-3-0.3c-1.4,0.7-2.8,3-3.5,4.3
		c-0.3,0.6,0.2,0.6-0.2,1.3c-0.3,0.4-0.6,0.9-0.9,1.3c-0.7,1-1.4,2-2.2,3c-2.3,3.1-3.6,6.8-2.8,10.8c0.4,1.8,1.2,3.6,2.3,5.1
		c0.6,0.8,0.2,2.2,0.1,3.2c-0.1,1.3-0.2,2.6-0.3,3.9c-0.8,9.3-2,18.5-1.4,27.9c0.1,1.1,0.4,4.5,0.5,5c-0.2,0.2,1.3,4.9,1.8,7
		c1,4.1,1.6,8.2,1.9,12.4c0.4,4.2,0.6,8.3,1,12.5c0.4,4.5,1.1,9,1.8,13.4c0.6,4.7,1.2,9.3,1.7,14c0.2,2.2,0.4,4.5,0.6,6.7
		c0.1,1.1,0.2,2.2,0.2,3.4s-1.7,1.9-2.5,2.5c-3.5,2.7-7,5.4-10.5,8.3c-0.6,0.5-2,1.3-2.2,2.1c-0.1,0.4,0.1,0.7,0.5,0.9
		c0.1,0.3,0.2,0.7,0.3,1c0.4,1.2,1.1,2.3,2,3.2c3.5,3.5,9.2,2,13.3,0.5c4.9-1.8,9.3-4.4,14.1-6.6c1.5-0.7,3-0.4,4.5-1.3
		c1.6-1.1,2.6-2.8,2.8-4.7c0.6-4.5,1.5-8.9,1.9-13.5c0.8-9.3-0.6-18.4-1-27.7c-0.4-9.4-0.2-18.8,0.5-28.2c0.1-2.3,0.3-4.5,0.4-6.8
		s-0.2-5.1,0.9-7.2s1.9-3.9,2.8-5.9c0.5-1,0.9-2,1.3-3c0.5-0.1,1-0.1,1.5-0.1c0.2,0.7,0.3,1.5,0.4,2.2c0.9,4.6,1.5,9.2,2.3,13.8
		c0.4,2.2,0.7,4.4,0.8,6.7c0,2.4,0,4.9,0,7.3c0.1,9.4,0.3,18.8,1.2,28.2c0.5,4.7,1,9.3,1.6,14c0.1,0.8,1,5.1,1,5.6
		c0.1,2.4,0.1,4.9,0,7.3c-0.1,2.6-0.2,5.2-0.5,7.8c-0.1,0.7-0.7,3-0.1,3.4c0,0.9,1.8,1,2.4,1.2c1.9,0.6,4.6,1.5,5.8,3.1
		c3.7,4.8,9.4,7.7,15.5,7.6c1.9,0,3.8-0.3,5.7-0.8c1-0.3,1.9-0.6,2.8-1c0.5-0.2,0.7-0.5,1.1-0.6c0.4,0,0.7-0.4,0.7-0.8
		C235.1,539,235.1,538.9,235.1,538.9"/>
	<path class="st52" d="M194.1,434c0.2,0.7,0.3,1.5,0.4,2.2c0.9,4.6,1.5,9.2,2.3,13.8c0.4,2.2,0.7,4.4,0.8,6.7c0,2.4,0,4.9,0,7.3
		c0,3.4,0.1,6.7,0.2,10.1c1.7-5.3,4.4-10.2,7.9-14.5c-5.5-6.2-0.8-16.8,4.7-21.4c3.2-2.7,7.4-4.2,11.5-2.5c2.2,0.9,4.2,2.3,5.9,4.1
		l0.1-1.2c0.3-4.7,0.6-9.4,0.8-14.1c0.1-2.3,0.1-4.5,0.2-6.8c0-1.1,0-2.3,0-3.4c0.6-1,1.1-2.1,1.6-3.1c1.7-3.8,2.6-7.8,2.8-11.9
		c0-1,0-2,0-3c0-0.5-0.1-1-0.1-1.5c0.3-0.1,0.5-0.5,0.5-0.8c0-0.8-1.5-1.4-2.1-1.8c-1-0.7-2.1-1.3-3.1-1.9c-0.9-0.5-1.8-1-2.8-1.5
		l-1.4-0.7c-0.8-0.4-0.3-0.2-0.6-0.8c-0.4-0.8-1.8-0.3-2.5-0.2l-3.9,0.5c-4.6,0.5-9.2,0.9-13.9,1.1c-9.2,0.5-18.4,0.1-27.5-1.2
		c-2.2-0.3-4.4-0.7-6.6-1.2c-1.1-0.2-2.2-0.5-3.3-0.7c-0.7-0.2-2.5-1-3-0.3c-1.4,0.7-2.8,3-3.5,4.3c-0.3,0.6,0.2,0.6-0.2,1.3
		c-0.3,0.4-0.6,0.9-0.9,1.3c-0.7,1-1.4,2-2.2,3c-2.3,3.1-3.6,6.8-2.8,10.8c0.4,1.8,1.2,3.6,2.3,5.1c0.6,0.8,0.2,2.2,0.1,3.2
		c-0.1,1.3-0.2,2.6-0.3,3.9c-0.6,6.8-1.3,13.5-1.5,20.3c3.6-4.8,8.8-8.3,15-7.3c7.4,1.1,16,6.9,13.7,15.4c-0.1,0.3-0.3,0.5-0.6,0.5
		c-0.8,0.2-1.6,0.4-2.3,0.8c1.3,1,2.6,2.3,2.4,3.9s-1.7,3.4-2.4,5.2c2.9,1.1,5.3,3.1,7,5.7c0.1-1.9,0.2-3.8,0.3-5.7
		c0.1-2.3,0.3-4.5,0.4-6.8s-0.2-5.1,0.9-7.2s1.9-3.9,2.8-5.9c0.5-1,0.9-2,1.3-3C193.1,434,193.6,434,194.1,434z"/>
	<rect x="181.6" y="299.4" class="st53" width="20.2" height="17.3"/>
	<path class="st54" d="M184.3,312.5c1.7-0.7,3.4-1.3,5.1-2c3.9-1.8,7.7-3.9,11.2-6.3l1.2-0.8v-4h-20.2v14.1
		C182.8,313.1,184,312.7,184.3,312.5z"/>
	<path class="st55" d="M239.7,358.8c-0.4-9.2-1.8-18.3-4.1-27.1c-0.8-3-1.3-6.3-3.3-8.8c-1.2-1.3-2.6-2.3-4.2-2.9
		c-2-1-4.1-2-6.2-2.9c-4-1.8-7.9-3.9-12-5.6c-1.7-0.5-3.4-1.2-5-1.9c-1.2-0.7-1.4-2.1-1.8-3.3c-1.2-4.3-1.4-0.9-2.9,0.5
		c-0.8,0.7-7.5,5.3-8.4,5.5c-1.7,0.4-3.5-1.7-4.7-2.6c-1.5-1-2.9-2.2-4-3.7c-0.7-1-2.3-2.8-3.1-1c-0.6,1.3-0.4,2.7-1.3,3.8
		c-1.3,1.5-3.8,2.2-5.5,2.9c-4.1,1.7-8.1,3.8-12.1,5.9c-1.8,1-3.6,1.8-5.4,2.8s-3.1,1.9-3.5,3.9s-0.5,4-0.9,6
		c-0.4,2.3-0.9,4.5-1.3,6.8c-0.7,4.6-1,9.2-0.9,13.9c0,9.4,0.8,18.7,2.3,28c1.1,7.3,2.8,14.5,4.5,21.6c0.3,1.3,0.6,2.4,1.8,3.1
		s2.7,1.4,4,2.1c3.1,1.8,6.1,3.9,9.3,5.5c1.5,0.8,3,1.3,4.5,2.1c0.9,0.5,2.3,2,3.5,1.4s2.2-2.6,2.8-3.8c0.8-1.6,1.8-3.1,2.8-4.6
		c1.6-2.2,4.3-4.5,1.4-6.9c-2.7-2.2-6.1-3.5-9-5.3c11.9,2.7,24.3,2.8,36.3,0.2c-1.5,1.3-3,2.7-4.6,3.9c-1,0.7-2.7,1.3-2.7,2.7
		s1.6,2.2,2.7,2.9c1.5,1.3,2.9,2.8,4,4.5c1.1,1.2,1.9,2.7,2.3,4.4c0.3,1.6,1.3,1.7,2.7,1c3.6-2,6.4-5.1,9.5-7.7
		c1.6-1.3,3.3-2.7,5-3.9s3.7-2.3,5.3-3.7c1.2-1.1,1.9-2.6,1.9-4.3c0.1-2.3,0.3-4.6,0.5-6.9c0.6-9.3,0.6-18.7,0.1-28
		C239.8,359.2,239.8,359,239.7,358.8"/>
	<path class="st56" d="M232.3,376.5c-2-0.2-4-0.1-6,0.2c-1.2-0.4-2.3-1.1-3.2-2c2.7-9.8,2.3-20.8,2-30.7c0-0.7-0.6-1.3-1.3-1.3
		c-0.7,0-1.3,0.6-1.3,1.3c0.3,13,1.2,28.2-6,39.6c-0.5,0.5-1.1,1-1.7,1.5c-2.6,1.7-5.3,1.5-8.3,1.1c-8.2-1-15.7-5-21.8-10.4
		c-3.2-2.9-6.2-6-8.9-9.3c-2.8-3.6-6.6-6.4-10.8-8l0,0c1.8,6.6,4.1,13,5.9,19.6l0.3,0.2c-5.3,0-10.5,0.8-15.5,2.3
		c-1.6,0.5-0.9,3,0.7,2.5c5.6-1.8,11.5-2.5,17.4-2.2c0.2,0.6,0.3,1.2,0.2,1.8c-0.1,0.6-0.3,1.2-0.5,1.7c-4.4,2.1-8.6,4.4-13,6.5
		c-1.5,0.7-0.2,2.9,1.3,2.2c3.7-1.8,7.3-3.7,11-5.5c1.2,2.5,3.2,4.5,4.9,6.8c10.8,2.5,22.5,3.4,35.1,0c4.1-2.6,6-4.7,8.6-9
		c1.3-2.2,2.7-4.2,4.4-6.1c2.1-0.4,4.3-0.5,6.4-0.3C233.9,379.2,233.9,376.7,232.3,376.5z"/>
	<path class="st56" d="M162.9,349.1c-2-7.1-4.9-13.9-8.6-20.3c-0.4-0.6-1.2-0.8-1.8-0.4c-0.6,0.4-0.8,1.1-0.4,1.7
		c3.6,6.2,6.4,12.8,8.3,19.7c0.2,0.7,0.9,1.1,1.6,0.9C162.7,350.5,163.1,349.8,162.9,349.1z"/>
	<path class="st56" d="M180.3,398.2c-2.9,4-5.7,8.1-8.4,12.3c-0.9,1.4,1.3,2.7,2.2,1.3c2.7-4.2,5.5-8.3,8.4-12.3
		C183.5,398.1,181.2,396.8,180.3,398.2z"/>
	<path class="st56" d="M221.9,408.9c-2.4-4.5-5.9-8.3-10.2-11c-1.4-0.9-2.7,1.3-1.3,2.2c3.9,2.5,7.1,5.9,9.3,10
		C220.4,411.6,222.6,410.4,221.9,408.9z"/>
	<path class="st57" d="M200.3,389.7c-1.4-22.3-6.7-66.6-6.8-66.7c0.6-1.5,2.7-5.3,2.2-5.7c-1.3-1-3-2.7-4.3-3.8
		c-0.5-0.4-3.1,3.7-4.3,4.8c-0.3,0.3,1.9,3.5,2.7,4.8c0,0.1-4.9,45.3-3.7,68.1c0,0.1,4.8,4.8,7.7,6.5
		C195.3,396.6,200.3,390.1,200.3,389.7z"/>
	<path class="st41" d="M216.3,413.6c-2.1-4.9-5.3-9.1-9.4-12.5c-0.3-0.2-0.7-0.2-1,0c-0.1-0.1-0.3-0.1-0.5,0c-3.7,1.4-6.8,3-8,7
		c-0.1,0.4,0.1,0.8,0.6,0.9c0.2,0,0.4,0,0.6-0.1c1.1-0.7,2.4-1.3,3.7-1.7c-3.2,3.1-5.2,7.3-5.5,11.7c0,0.4,0.4,0.8,0.8,0.8
		c0.3,0,0.5-0.1,0.7-0.4c1.2-2.1,2.7-4.1,4.4-5.9c-1.3,2.8-1.9,5.8-1.7,8.9c0,0.6,0.9,1.1,1.3,0.5c1.1-1.4,2.3-2.8,3.4-4.3
		c-0.2,1.4-0.2,2.7-0.1,4.1c0,0.4,0.3,0.8,0.8,0.8h0.5c0.3,0,0.6-0.2,0.7-0.6c0.7-1.5,1.5-2.9,2.5-4.3c0.4,0.8,0.8,1.7,1.1,2.5
		c0.3,0.7,1.2,0.3,1.4-0.2c0.9-2.3,2.3-4.4,3.1-6.7C216,414.6,216.6,414.2,216.3,413.6z"/>
	<path class="st41" d="M196.4,411.2c-0.8-4.9-4.3-8.8-9.1-10.1h-0.1c-0.2-0.3-0.6-0.3-0.9-0.1c0,0-0.1,0.1-0.1,0.1
		c-3.5,4-6.3,8.7-8.2,13.6c-0.1,0.2,0,0.5,0.1,0.7c1.7,3.1,4.1,5.7,7,7.7c0.2,0.1,0.4,0.1,0.5,0.1c0.3,0.4,0.8,0.4,1.1,0.2
		c0.2-0.1,0.3-0.4,0.3-0.6c0.1-1.3,0.3-2.5,0.4-3.8c1.4,1.1,2.7,2.2,3.9,3.5c0.6,0.6,1.4-0.1,1.3-0.8c-0.3-2.2-0.6-4.4-1.2-6.5
		c1,0.7,1.9,1.4,2.8,2.2c0.5,0.5,1.6,0,1.3-0.8c-0.7-1.9-1.2-3.9-1.9-5.8c0.5,0.3,0.9,0.7,1.3,1.1c0.3,0.3,0.8,0.3,1.1,0
		C196.3,411.8,196.4,411.5,196.4,411.2z"/>
	<path class="st58" d="M194.7,293.3c-3.4,0.3-8.5,0.3-11.2-1.1c-3.5-1.8-5.9-8.2-7.7-11.6c-2.5-4.5-1.2-6.6-0.9-11.2
		c0.1-2.3,0.5-4.6,1.4-6.7c2.4-0.7,4.7-2.9,6.7-4.5c3-2.2,6.9-2.8,10.4-1.6c2,0.6,5.1,0.5,6.6,1.8c0.2-0.7,0.1-1.5-0.1-2.2
		c1.1,0.7,1.5,2.2,2.6,2.9s2.8,0,3.8,1.6c-0.3,0.1-0.6,0.2-0.9,0.3c4.6-1.4,5,9.7,5.3,12.1c0.4,2.6,1,6.2,0.3,8.7
		c-2,7.5-7.8,10.5-15.1,11.3L194.7,293.3z"/>
	<path class="st41" d="M200,272.6c3.6,2.6,5.5,7,5.7,13c2.4-1,2.4,1.5,2.2,3.2c-0.1,1.2-0.5,2.3-1.2,3.2c-1,1.3-2.7,1.1-3.6,2.5
		s-0.3,2.9-1,4.2s-3.2,2.7-4.3,3.9c-1.5,1.6-3.2,3.6-5.5,4c-4.6,0.9-8.5-0.6-10.5-4.6s-5-8-4.8-12.6c0.1-3.5-1-7-0.6-10.5
		c0.2-1.6,1.8-10,3.9-10.1c3.6-0.3,6.1,0.8,9.5,0.9C194.1,269.8,197.5,270.8,200,272.6z"/>
	<path class="st39" d="M181.9,280.9c2.1,0.5,3.6,1.2,4.5,3.3c0.5,1,0.6,2.2,0.5,3.3c-0.4,0.9-0.9,1.7-1.5,2.5
		c-0.5-1.9,0.4-5.5-1.9-6.3c-1-0.4-3.8-0.3-4.3-1.6C178.5,280.6,180.4,280.6,181.9,280.9z"/>
	<path class="st39" d="M200.2,282.5c1,1.4-6.4,2.2-7.2,2.1C193.4,281.5,198,279.4,200.2,282.5z"/>
	<rect x="160.8" y="420.8" class="st13" width="62.1" height="3.9"/>
	<path class="st10" d="M160.8,420.8l-9.7-42.7c0,0,0-4.8,3.9-5.8h67.9c0,0,4.9,2.9,3.9,7.8l-3.9,40.8l-59.8,0.3"/>
</g>
<g id="人物_2">
	<path class="st41" d="M15.2,661c-0.1,2.3,0.6,4.6,0.6,6.9c0,1.8-0.6,2.3-2.4,1.4c-1.9-0.8-3.2-2.5-3.6-4.5
		c-0.8-2.4-1.4-4.9-1.8-7.4c-0.7-8.5,2-17.4,2.3-26c0.9-21.9,3.4-43.6,4.1-65.5c4.3,1.6,8.9,2,13.4,1.2c-1.2,4.7-1.9,9.5-2.3,14.3
		c-0.6,9.7-4.4,18.8-4.4,28.6c0.2,6.7-0.2,13.4-1.2,20c-1.1,6.6-2.7,9.9-1.1,16.8c0.5,2.1,2.2,3.9,1.6,6.2c-0.4,1.8-0.7,3.7-0.8,5.6
		c-0.1,1-0.2,3.2-1.7,2.1c-1-0.6-0.5-2.5-0.5-3.4c-0.1-1.1-0.3-2.3-0.4-3.4c0-0.1-0.7,0.9-0.8,1c-0.1,0.4-0.2,1-0.3,1.5
		C15.6,658,15.3,659.5,15.2,661z"/>
	<path class="st59" d="M30.1,558c0.1,3.1,0.5,6.3,1.1,9.3c0.7,4.1,0.4,8.7,0.5,12.8c-4,1.2-20.4,2.7-19.8-4.7
		c0.2-2.4,0.6-4.8,0.8-7.2c0.2-3.5-0.6-6.9-0.5-10.4c-0.1-3.1,0.1-6.2,0.4-9.3c0.6-3.9,3-7.4,4.7-10.9c2.8-5.5,5.5-3.7,10.6-4.1
		c0.1,2.8,0.5,5.5,0.9,8.3C29.8,547.1,30.2,552.6,30.1,558z"/>
	<path class="st41" d="M66.8,809c-6.1-1.1-4.8-8.6-4.7-13.7c3.9,1.8,7.5-3.6,11.2-1.5c1.8,1,3.6,4.3,5.1,5.8s4.5,3.6,5,5.7
		c0.6,2.5,0.8,1.3-1.2,2.1c-1.6,0.7-4.8,0.7-6.7,1.2C72.6,809.4,69.7,809.6,66.8,809z"/>
	<path class="st41" d="M46.7,806.5c0.9-0.6,1.6-1.5,2-2.5c1.3-3.8-1.3-8.8-2.7-12.3c-3.5,3.5-10.7-0.2-14.7,1.9
		c-2.2,1.1-1.6,4.7-2.5,6.8c-1.4,3.1-4.2,4.7-6.7,6.6c2.2,1.1,4.6,0.3,7,0.6s4.4,1.5,6.7,1.5C39.3,809,43.7,808.5,46.7,806.5z"/>
	<path class="st58" d="M1.4,819.5c2.7,2.6,8.7,2.3,11.7,2.4c6.5,0.1,11.9-3.8,18.3-4.4c2-0.1,4.1-0.5,6-1.2c1.3-0.5,1.3-1.2,3.1-1.3
		c1.3-0.1,1.7,1,2.9,0.9c3.8-0.3,6.3-4.6,6.2-8c0-2.1,0.3-5.4-1.4-6.7c-1.5-1.1-5.8-0.5-7.5-0.2c-2.6,0.5-4.9,3.1-7.6,3.3
		c-3.5,0.4-1.4-3.2-4.6-4.1c-2.5-0.7-5.1,3.7-6.9,5c-3.5,2.4-7.3,4.3-11.4,5.4C7.1,811.6-1,812.3,0,817.2
		C0.3,818.1,0.7,818.9,1.4,819.5z"/>
	<path class="st58" d="M105.3,814.6c1.2,1,1.5,2.8,0.6,4.2c-2.1,3.9-5.4,5.1-9.6,5.2c-3.9,0-8.8,1.2-12.4-0.5
		c-1.4-0.7-2.4-1.7-4-2.1c-2-0.5-4.2-0.2-6.2-0.8c-2.3-0.7-2.8-2.5-5.7-2.4c-3.3,0.1-3.5,1.6-5.4-1.7c-1-1.9-3.8-5.1-4.1-7.1
		c-0.4-2.1,1.7-4.6,2.3-6.5c4.2,0.1,10.4,2.1,14.3,4c-1.1-4.1,3-6.7,6.6-6.6c1.3,2.1,2.8,4.1,4.4,6c4,3.7,8.4,4,13.3,5.5
		C101.1,812.2,103.7,813.1,105.3,814.6z"/>
	<path class="st60" d="M22.9,697.6c0,0,0,0.1,0,0.1c1.4,15.5,1.4,31.1,3.8,46.6c1.5,10.2,4.3,20.2,3.4,30.6c-0.4,4.7-1.9,9.2-2,13.9
		c-0.1,3.7-4.9,12.2,2.1,9.4c3.6-1.5,4.9-2.1,8.7-0.7c1.1,0.4,11.5,2.9,11.5,2.1c0.2-3.5-0.4-6.9-0.3-10.4c0.1-2.6,1-4.3,0.9-6.9
		c-0.4-5.7-1.2-10.8-0.2-16.4s2-12.2,1.7-18c-0.3-4-1-8-2.1-11.8c-1.1-3.9-1.6-8-1.6-12.1c0-3.2,0-6.3,0-9.5c0-4.8-0.9-9.3-0.9-14.1
		c0-1.8-0.6-15.3,0.7-15.9c2-1,3,3.4,3.3,4.6c2.3,8.1,2.5,16.7,4.6,24.9c1,4.2,0.5,8-0.2,12.2c-0.5,3.5,0.5,6.5,0.7,9.9
		c0.2,3.4,0.7,6.7,1.5,10c0.6,2.6-0.1,4.3-0.3,6.8c-0.4,7.4,3.8,15,4.3,22.4c0.4,5.3-1.3,10.4-1.3,15.6c0,1.2,0.8,2.6,0.7,3.6
		c-0.1,2.6-3.1,2.5-2.3,5.3c2.9,0.6,5.5-0.3,8.3-0.4c3.6-0.1,7.2,1.4,10.8,2c2.3,0.4,8.1,0.8,6.5-3.2c-0.7-1.8-2.6-3-2.9-5
		s0.6-4,0.8-5.9c0.5-5.5-0.5-11.1,0.1-16.7c0.9-7.7,1.7-15.5,0.9-23.3c-0.8-6.9-3.7-13.2-4.7-20c-1.1-7.4,1-13,2.3-20.1
		c1.4-7.6-1.7-15.7-0.5-23.5c0.4-2.5,0.3-5.2,0.5-7.7c0.6-6.6-2-12.9-1-19.5s-0.7-13.6-2.3-20.2c-2.9-11.5-4.7-13.3-16.2-13.9
		c-6.4-0.3-12.9-0.4-19.3-0.9c-6.7-0.5-13.1-2.5-19.5,0.4c-4.9,2.3-1.7,13.5-2.9,18.4c-1.7,6.8-0.9,12.7-0.7,20.1s0.4,15,0.7,22.5
		C20.6,688.2,22.4,692.6,22.9,697.6z"/>
	<path class="st41" d="M37.8,522.5c0.4-0.9,0.7-1.8,1.5-2.1c1.3-0.5,5.4,2.1,6.8,2.6c2.3,0.9,4.7,1.4,7.1,1.3c0.8,0,7.5-2.2,7.3-2.4
		c1.2,1.1,2.5,2.2,3.9,3.2c13,10.1-10.5,33.6-22.4,25.4c-3.7-2.5-7.4-5.7-9.7-9.5c-1.2-2-2-4.2-2.3-6.5c0-2.1,0.5-4.2,1.5-6
		c0.2-0.4,2.9-4.1,2.9-4.1C36.3,524.4,37.1,524.4,37.8,522.5z"/>
	<path class="st39" d="M39.2,520.2c0.5-1.3,0.2-2.9,1.1-4.2c2.1,0.5,4.1-0.5,6.1-0.5c3.7,0,7.1-0.4,10.7,0c-0.1,2.5,1.4,4.6,3.2,6.3
		c-1.8,0.9-3.7,1.6-5.7,2.3c-1.8,0.3-3.6,0.2-5.4-0.2c-3.6-0.7-6.8-3.3-10.4-3.2C39,520.6,39.1,520.4,39.2,520.2z"/>
	<path class="st61" d="M59.1,503.1c-1-0.4-2.1-0.8-3.1-1.4c-3.7-1.8-7.4-3.6-11.2-5.1c-1.3-0.6-2.6-1.3-3.9-2.2
		c-1.6-0.9-3-0.8-4.8-0.9c-0.2-3-1.8-5.3-1.3-8.4c0.5-2.9,1.7-5.7,3.7-8c3.5-4.3,11.3-7.6,16.9-5.3c2,0.8,5,1,6.4,2.4
		c0.2-0.7,0.3-1.5,0.1-2.2c1.1,0.8,1.3,2.3,2.4,3.1s2.8,0.3,3.6,1.9c-0.3,0-0.6,0.1-0.9,0.2c3.6,0.3,3.7,4.1,4.1,6.7
		c0.4,2.2,1.4,4.6,1.2,6.9c-0.1,1.8-0.9,3.7-1.3,5.5s-0.7,4.9-2.2,6.4c-0.7,0.6-1.3,0.9-1.9,1.7s-0.9,1.7-1.9,2.2
		c-0.8,0.4-0.2,0.4-0.9,0c-1.3-0.8-1.7-2.4-3.4-3L59.1,503.1z"/>
	<path class="st41" d="M59,490.3l0.7,0.4c2.3,1.4,3.4,2.1,4.3,4.9c0.6,2,0.9,4.1,1.1,6.3c2.7-1.2,2.3,1.6,2,3.3
		c-0.2,1.2-0.7,2.2-1.5,3.1c-0.6,0.7-1.5,1-2.4,0.9c-0.2-0.4-0.5-0.6-0.7-0.9c0.9,1.6-1.2,5.1-2.1,6.3s-3.4,2.4-4.6,3.5
		c-1.7,1.5-3.5,3.3-5.8,3.5c-2.5,0.3-5.8-0.1-7.8-1.8c-3.5-2.9-4.8-5.7-5.3-10.1c-0.4-3.6-1.2-6.6-1.1-10.3c0-2.4-0.3-4.8,0.3-7.2
		c0.5-2,1.6-5.2,3.5-6.3c1.2-0.7,2.9-0.2,4.1-0.1c2.5,0.2,5.4-0.4,7.8,0.1C54.5,486.6,56.5,488.7,59,490.3z"/>
	<path class="st39" d="M40.4,496.8c2.1,0.6,3.5,1.5,4.2,3.6c0.6,1.7,1.1,4.6,0.3,6.3c-2.6,0.4-1.1-6.1-3.2-7.1c-1-0.5-3.8-0.7-4.2-2
		C37,496.2,38.9,496.3,40.4,496.8z"/>
	<path class="st39" d="M56.8,498.9c1.2,2-8.9,1.2-5.5-1.2C52.3,497,56.2,497.8,56.8,498.9z"/>
	<path class="st62" d="M35.7,530.4c-1.1-2.7-1.4-4.9,0-5.5c-1.4-1.8-2.7,0.4-3.7,1.1c-2.1,1.6-4.4,1.6-6.6,2.6
		c-1.8,0.8-1.6,1.9-2.7,3.3s-3,1.6-3.8,3s-0.1,3.8,0.1,5.5c0.5,4.7,0.6,9.3,0.4,14c-0.2,4,0.5,8.5-0.4,12.4c-0.9,2.9-0.8,5.9,0,8.8
		c1,3.7,0.1,8,0.5,11.8c0.3,3.2,1.4,6,0.6,9.1c-0.7,3-1.7,5.7-1.9,8.9c-0.5,6.1-0.4,12.3,0.2,18.4c0.2,2,0.9,4.3,0.6,6.4
		c-0.3,2.6-3.3,5.3-3.3,7.5c0,2,3.2,3.9,4.6,5.3c4.6,4.9,10.6,5.8,16.5,8.5c4.3,2.1,9.1,2.7,13.8,1.9c5.3-0.8,10.5-2.1,15.6-3.2
		c3.7-0.8,7.6-0.7,11.3-1.6c1.4-0.4,4.5-0.8,5.3-2.3c1-2.1-1.6-3.8-1.4-5.9c0.1-0.9,1.4-1.7,1.5-2.8s-0.9-2-0.9-3.1
		c0.1-1.3,1.1-2,1.3-3.1c0.8-4.1-1.4-8.2-1.4-12.2c-0.1-5.3,0.4-10.6,1.5-15.8c0.8-3.6,1.4-7.5,0.7-11.2c-1-5.2-3.5-8-2-13.5
		c0.9-3.3-0.5-3.3-1.5-6.2c-1.1-3.1,0.6-8.2,0.9-11.4c0.5-4.7,1.2-9.3,1.9-14c0.5-3.3,3.1-8,1.2-11.1c-1.5-2.4-4.5-2.8-6.9-3.7
		c-2.4-1-4.7-2.3-6.9-3.9c-1.7-1.1-4.9-4.1-7-3.8c-1.3,4.2-4,7.9-7.6,10.5c-1.7,1.1-3.4,2.3-4.9,3.7c-1.9,2-4.1,3.7-6.5,5.2
		C44.1,544.1,38.1,536.1,35.7,530.4z"/>
	<path class="st61" d="M61.2,501.3c0.2-1.6,0.3-3.3,0.3-4.9c0.1-1,0.1-2.1,0-3.1c-0.3-1.1-1.4-1.8-1.7-2.9c2.5,0,5.1,1.6,5,4.3
		c0,1.9,0.1,3.8,0.5,5.7c0.3,1.3-1.2,1.9-1.8,3.1c-0.5,1.3-0.9,2.6-1.3,3.9c-2.2,6-4.7,11.8-10.9,14.4c-2.8,1.2-4.6,0.6-7.5-0.1
		c-1.4-0.4-3.4-1.1-4.1-2.3c-0.2-0.3-1.4-2.9-1.2-3.1c0.6-0.6,2,1,2.7,1.2c1.3,0.3,2.8-0.2,4-0.1c1.5,0.1,2.9,1,4.4,1.2
		c1.5,0.1,3.1-0.3,4.3-1.3C59.1,513.8,60.6,507,61.2,501.3z"/>
	<path class="st41" d="M94.2,574.7c0,7.5,0.6,30.8-10.4,31.8c-13.5,1.1-7.9-19.7-8-26.4c0-1-0.7-3-0.1-3.9
		C78.2,572.8,90.7,574.3,94.2,574.7z"/>
	<path class="st59" d="M74.3,547.3c2.1-4.4,5.4-8.9,9.7-11.3c1.8,1.5,3.9,2.3,5.6,4c5.3,5.2,4.8,13.7,4.8,20.5
		c-0.1,4.3,0.2,8.6,1,12.9c0.9,3.9,2.7,8,1.9,12c-4,1.3-8.3-0.4-12.5,0.3c-3.9,0.7-7.2,2.5-11.4,1.7c-0.5-3-1.4-6-1.7-9
		c-0.5-5.7,0.8-11.3,0.1-16.9C71.1,556.7,72,551.7,74.3,547.3z"/>
	<path class="st3" d="M24.4,563.7l10.5-0.3c1,0,1.9,0.8,1.9,1.8l0.7,26.8c0,1-0.8,1.9-1.8,1.9l-10.5,0.3c-1,0-1.9-0.8-1.9-1.8
		l-0.7-26.8C22.5,564.5,23.3,563.7,24.4,563.7z"/>
	<path class="st41" d="M63.3,605.8c3,1,5.9,2.2,9,2.4c4,0.4,19.7-0.4,17.5-8c-1.3-4.3-8.1-6.3-12-7.5c-5-1.7-10.4-1.5-15.6-1
		c-3.7,0.3-7.8,0.8-11.4,0.3c-1.2-0.2-2.3-0.2-3.5-0.3c-2.1-0.4-4.2-0.8-6.3-1.4c-1.4-0.4-2.6-0.4-3.6-1.5c-1.1-1-2.3-1.8-3.5-2.6
		c-1.1-0.9-2.2-1.7-3.4-2.3c-1.2-0.6-2.1-0.2-3.1,0.5s-2.6,0.5-3.4,1.2s0.1,1.8-0.1,2.8c-0.1,0.4-0.5,0.6-0.5,1.1s0.3,0.8,0.4,1.2
		c0.2,1-0.4,1.6,0.1,2.7c0.3,0.9-0.1,1.9,0.4,2.6c0.5,0.8,1.2,1.5,2,2.1c0.9,0.5,1.3-0.1,2.1,0s1.5,0.8,2.1,1.1
		c1.6,0.8,3.3,0.4,5,0.1c1.1-0.1,2.3-0.1,3.5,0c1.4,0,2.8,0.2,4.1,0.6c1.1,0.3,2.2,0.6,3.2,1c1.1,0.4,2.2,0.7,3.4,0.9
		c3.8,1,7.4,2.5,11.2,3.4C61.5,605.3,62.4,605.5,63.3,605.8z"/>
</g>
<g id="人物5">
	<path class="st63" d="M473.2,635c-4.9-0.5-9.1-4.3-10.7-10.3c-1.5-5.8-7-12.3-5.5-18.5s6-11.8,12.1-13.2c0.8-0.2,1.7-1.5,2.8-1.7
		c1.5-0.2,3.1,0,4.6,0.4c3,0.6,5.9,1.8,8.5,3.5c5.5,3.5,8.7,9.7,8.3,16.2c-0.4,6.8-5,15.8-10.4,20.2
		C480.3,634,476.7,635.2,473.2,635z"/>
	<path class="st64" d="M488.2,643.3c-1.6-0.4-3.2-1-4.6-1.9c-3.3-2.1-7.4-2.8-11.3-2c-3.5,0.8-8.7-0.7-10.5,3.4s0,8.6-0.7,12.9
		c-0.8,4.9-1.9,9.7-2.3,14.7c-1,10.7-0.7,21.5-0.7,32.2c0,6.2-0.1,12.3-0.5,18.5c-0.4,6.4-1.4,12.6-1.5,19.1
		c-0.1,4.3-1,24.9-0.5,29.2c4.8,0.7,9.4,2.5,14.2,3.1c4.6,0.6,10-0.8,14.4,0.3c-0.7-3.6-2.4-22.9-2.6-26.5s-1-7.5-0.9-11.3
		c0.1-6.2,1.8-12.3,1.8-18.5c0.2-12.3,0.2-24,1.2-36.2c0.9-10.1,1.8-20.3,3-30.4C486.9,649.6,487.6,643.1,488.2,643.3z"/>
	<path class="st41" d="M481.2,637.3c-5.4,3.3-10.9,6.3-16.3,2.6c-0.3,0.4-0.6,0.7-1,1c2,2.5,4.6,4.3,7.6,5.2
		c1.7,0.6,3.5,0.9,5.3,0.9c2.1-0.3,3.4-2.2,4.6-3.7c0.7-0.6,1-1.6,0.8-2.5C482.3,640.3,480.9,637.5,481.2,637.3z"/>
	<path class="st39" d="M481.2,637.3c-0.4-1.4-0.5-2.9-0.4-4.3c-2.9,0.1-5.8-0.1-8.6-0.1c-1.3,0-3.5-0.4-4.8,0
		c-1.7,0.5-1.2,2.3-1.2,3.8c0,1.2-0.4,2.4-1.2,3.3C470.4,643.6,475.8,640.6,481.2,637.3z"/>
	<path class="st41" d="M481.5,607.4c7.3,3.5,7.3,7.9,6.6,15.6c-0.3,2.2-1,4.2-2.1,6.1c-3.2,6.1-10.5,12.6-17.3,8
		c-4.8-3.3-7.6-10.4-8-16c-0.2-3.3-1.8-7.1,0.9-9.6s7-3.7,10.1-5.1c3.9-1.9,6,0.8,9.5,1.8C481.4,607.9,481.5,607.7,481.5,607.4z"/>
	<path class="st39" d="M467.1,615.6c0.6,0.1,1.2,0.3,1.7,0.5c1,0.7,4.4,4,2,5.1c-0.5-1.5-0.5-2.6-2.1-3.1c-1-0.3-3.7-0.1-4.3-1.3
		C463.8,615.4,465.6,615.3,467.1,615.6z"/>
	<path class="st39" d="M484,616.5c1.2,1.6-6.2,1.4-6.6,1.4C477.5,615.2,482.8,614.8,484,616.5z"/>
	<path class="st65" d="M508.1,736.7c0.3-6.4,1.1-13,0.5-19.4c-0.3-2.7-1-5.2-1.2-7.9s-0.5-5.5-0.4-8.3c3.1-1.1,6.4-1.1,9.5-2.1
		c0.9-0.2,1.7-0.4,2.6-0.6c1-0.2,2-0.9,3.1-1c-0.6-2.5-1.3-5-2.2-7.5c-1-2.6-1.7-5.3-2.3-8.1c-0.7-3.3-0.6-6.8-2.4-9.8
		c-1.4-2.3-1.6-5.1-1.8-7.8c-0.1-1.5-1.1-2.7-1.3-4.2c-0.4-2.6-0.6-6.1-2.1-8.3c-1.2-1.6-2.8-2.8-4.7-3.6c-3.9-2-8.2-3.2-12.2-5
		c-1-0.5-2.1-0.9-3.2-1.3c-1.4-0.5-2.9-0.7-4.3-0.8c-0.7,0-1.1-0.5-1.8-0.7s-1,0.3-1.6,0c0.5,0.8,1,1.6,1.5,2.4
		c0.4,0.8,0.8,1.6,1.2,2.5c0.7,1.8,1,3.7,1,5.7c0,4-1.3,7.9-1.9,11.8c-5.1,32.5-5.7,81.2-3.2,114c2.6,0.2,5.2,0.3,8,0.3
		c6.8,0,13.5-0.7,20.3-0.7c0.4-4.3-1.2-24.4-1.3-28.6C507.8,744.1,508,740.4,508.1,736.7z"/>
	<path class="st65" d="M439.7,734.7c-0.3-6.4-1.1-13-0.5-19.4c0.3-2.7,1-5.2,1.2-7.9s0.5-5.5,0.4-8.3c-3.1-1.1-6.4-1.1-9.5-2.1
		c-0.9-0.2-1.7-0.4-2.6-0.6c-1-0.2-2-0.9-3.1-1c0.6-2.5,1.3-5,2.2-7.5c1-2.6,1.7-5.3,2.3-8.1c0.7-3.3,0.6-6.8,2.4-9.8
		c1.4-2.3,1.6-5.1,1.8-7.8c0.1-1.5,1.1-2.7,1.3-4.2c0.4-2.6,0.6-6.1,2.1-8.3c1.2-1.6,2.8-2.8,4.7-3.6c3.9-2,8.2-3.2,12.2-5
		c1-0.5,2.1-0.9,3.2-1.3c1.4-0.5,2.9-0.7,4.3-0.8c0.7,0,1.1-0.5,1.8-0.7s1,0.3,1.6,0c-0.5,0.8-1,1.6-1.5,2.4
		c-0.4,0.8-0.8,1.6-1.1,2.5c-0.7,1.8-1,3.7-1,5.7c0,4,1.3,7.9,1.9,11.8c5.1,32.5,5.7,81.2,3.2,114c-2.6,0.2-5.2,0.3-8,0.3
		c-6.8,0-13.5-0.7-20.3-0.7c-0.4-4.3,1.2-24.4,1.3-28.6C440,742.2,439.9,738.5,439.7,734.7z"/>
	<path class="st41" d="M513.6,717.6c-0.2,0.7-0.4,1.4-0.6,2c-3,10.4-6.3,20.8-9.4,31.2c-1,3.4-1.7,23.1-2,26.7
		c-0.5,6.5-0.3,10.7-4.2,16.1c-2.1,3-6.7,10.3-11.2,9.1c-4.9-1.4-2.3-8.5-1.6-11.8c0.6-2.9,1.6-5.8,1.9-8.8c1-8.3,1-33.2,2.4-41.2
		c1.6-9.2,5.9-18.5,9.2-27.3c1.6-4.3,3.4-8.3,4.6-12.6c1.1-3.7,1.6-8.2,5.2-10.5s9.6-3,10.5,1.8c0.8,4-1.3,8.6-2,12.5
		C515.8,709.1,514.8,713.3,513.6,717.6z"/>
	<path class="st41" d="M433.7,718c0.2,0.7,0.4,1.3,0.6,2c3.3,10.3,6.9,20.6,10.2,30.9c1.1,3.4,1.9,23.1,2.3,26.6
		c0.7,6.5,0.6,10.7,4.6,16c2.2,2.9,7,10.2,11.5,8.8c4.9-1.5,2-8.6,1.3-11.9c-0.7-2.9-1.7-5.7-2.2-8.7c-1.2-8.3-1.5-33.1-3.1-41.2
		c-1.9-9.2-6.4-18.4-9.9-27c-1.7-4.2-3.6-8.2-5-12.5c-1.2-3.6-1.8-8.2-5.4-10.3s-9.7-2.7-10.5,2.1c-0.7,4,1.5,8.5,2.3,12.5
		C431.3,709.6,432.4,713.8,433.7,718z"/>
	<path class="st65" d="M425.9,695.5c0,0,11.6-1,20.4,4.8l1-18.4C447.3,681.9,430.7,673.2,425.9,695.5z"/>
	<path class="st65" d="M500.6,701.3l21.3-3.9c0,0,1-7.8-7.8-15.5C514.2,681.9,497.7,681.9,500.6,701.3z"/>
	<path class="st66" d="M493.3,752.2c-4.9,1-9.3,18.9-14.4,18.7c-6.9-0.3-14-19.2-19.9-22.4c-7.3-4-20.9-9.1-22.9-18.5
		c8.5-3.4,19.7-2.7,28.7-3.2c10.7-0.6,22-1.8,32.7-1.1c3.5,0.2,12.6-0.4,14.6,3.8c1.5,3.1-2.2,7.6-3.9,9.7
		c-4.8,6-11.1,25.9-17.2,30.4"/>
	<rect x="443.3" y="740.1" class="st13" width="62.1" height="3.9"/>
	<path class="st10" d="M443.4,740.1l-9.7-42.7c0,0,0-4.8,3.9-5.8h67.9c0,0,4.8,2.9,3.9,7.8l-3.9,40.8l-59.8,0.3"/>
	<path class="st67" d="M513.4,777.9c-0.9-1.8-2.9-3.4-4.2-4.7c1.2-0.4,2.3-0.7,3.5-1c7.4-1.8,11.7,3.2,12.1,10.1
		c0.4,7.1-4,12.2-10.9,13c-2.1,0.2-4.1,0.5-6.2,0.7c2-1,3.8-2.3,5.2-4C515.6,788.1,515.4,782,513.4,777.9z"/>
	<path class="st68" d="M488,788.2l8.9-12.8c1.8-0.9,4.7-0.5,6.8-0.8c1.9-0.3,3.8-0.8,5.6-1.4c1.3,1.4,3.3,3,4.2,4.7
		c2,4.1,2.2,10.2-0.5,13.9c-1.5,1.7-3.3,3-5.2,4c-1.8,0.2-3.7,0.4-5.5,0.6C495.5,797.2,492.3,792.7,488,788.2z"/>
	<path class="st69" d="M418.7,729.9c-5.2,0-6.9,5.2-7,9.5c-0.2,6.3,4.7,29.4,8.9,34c5,5.6,11.4,6.8,18.5,7.9
		c7.1,0.9,14.1,2.5,21,4.6c4.2,1.4,5.7,6.4,9.6,7.7c3,1,5.5-1,8.3,0.6c5.2,2.9,11.3,8.6,17.9,4.8c-1.3-4-1.5-8.2-0.5-12.3
		c0.9-4.1,5.1-9,4.9-12.9c-2.2-0.8-4.5-0.5-6.7-1.5c-3.9-1.8-4.5-1.1-8.8-1c-3.8,0.1-2.3-17.9-5.1-19.9c-2.3-1.7-7.4-1-10.2-1.6
		c-7.5-1.6-14.7-6.2-20.6-11c-4.6-3.7-12.1-9.4-18.2-9.4"/>
	<path class="st67" d="M436.4,786.1c0.7-1.8,2.6-3.6,3.8-5.1c-1.2-0.3-2.4-0.6-3.6-0.8c-7.5-1.2-11.4,4.2-11.2,11
		c0.2,7.1,5,11.8,11.9,12.1c2.1,0.1,4.2,0.1,6.2,0.2c-2.1-0.8-3.9-2-5.5-3.6C435,796.4,434.7,790.4,436.4,786.1z"/>
	<path class="st68" d="M462.5,794.3l-9.8-12c-1.8-0.8-4.7-0.1-6.8-0.2c-1.9-0.2-3.8-0.5-5.7-1c-1.2,1.5-3,3.3-3.8,5.1
		c-1.7,4.3-1.4,10.3,1.6,13.9c1.6,1.5,3.5,2.8,5.5,3.6c1.8,0.1,3.7,0.2,5.5,0.2C455.8,803.8,458.7,799.1,462.5,794.3z"/>
	<path class="st70" d="M528.2,730.5c5.2-0.4,7.3,4.7,7.8,8.9c0.7,6.3-3.6,29.7-7.4,34.6c-4.5,6-10.8,7.7-17.8,9.3
		c-7,1.5-13.9,3.6-20.5,6.3c-4,1.8-5.2,6.9-9,8.5c-2.9,1.2-5.6-0.5-8.3,1.3c-4.9,3.3-10.6,9.5-17.4,6.2c1-4,0.8-8.3-0.5-12.3
		c-1.2-4-5.8-8.5-5.9-12.4c2.2-1,4.5-0.9,6.5-2c3.8-2.1,4.4-1.5,8.7-1.7c3.7-0.2,2.2-2.1,4.7-4.3c2.2-1.9,7.3-1.6,10.1-2.4
		c7.3-2.2,14.1-23.4,19.7-28.6c4.3-4,11.3-10.4,17.3-10.8"/>
</g>
<g id="人物6">
	<path class="st41" d="M1100.2,656.3c0.4-2.1,0.6-4.3,0.6-6.4c0-9,4.6-19.1,2.3-28c-2.5-9.5-12.5-10.1-20.5-11.8
		c-2.1-0.4-4.1-1.1-5.9-2.3c-3.8-2.3-10.5-2.4-15-2.7c-3.5-0.2-5.7,0.7-8.7,2.1c-6.5,3.2-13.3,5.9-20.1,8.3
		c-5.7,1.8-8.2,5.7-8.1,11.7c0.1,8.2,0.4,14.6,4.8,21.7c6.3,10,7.2,19.8,9.7,31.2c1,4.5,2.3,8.5,2.3,13.2c-0.1,4.9-0.8,9.8-1,14.7
		c-0.2,2.7,0,5.6-0.7,8.3c10.6-0.5,21.5-0.6,32.3-0.6c8.7,0,16.4-0.6,24.8,0.8c0.4-6.8-0.2-13.4,0.1-20.1
		c0.4-10.4-0.1-21.2,1.6-31.5C1099,661.8,1099.7,659.1,1100.2,656.3z"/>
	<path class="st71" d="M1009.9,645.6c0,0,14.3,4.7,15.7,8.3l3.7-6.7c0,0,14.7,43.3,10.7,69.3h57c0.3-27.9,2.3-55.7,6-83.3
		c0,0,4.3-13.7-6.3-19.7c0,0-20.7-5-23.7-7c0,0-4,13-20,1c0,0-21,6.3-24,9.7c0,0-3.7,1-7.3,5.7
		C1021.6,622.9,1010.9,641.6,1009.9,645.6z"/>
	<path class="st66" d="M1052.8,734.2c4.6,0.6,8.8,2.1,13.6,1.6c6.4-0.7,12.9-3.8,18.2-7.3c6.6-4.2,18.9-9.9,20.1-18.7
		c-8.2-2.6-18.6-1.2-27-1.1c-10,0.1-20.7-0.2-30.6,1.1c-3.3,0.5-11.8,0.5-13.4,4.5c-1.2,3,2.5,7,4.2,8.8c4.9,5.3,11,8.5,17,12.3"/>
	<path class="st72" d="M1063.4,598.9h-0.6c-10.5,0.6-10.4-11.7-14.8-17.9c-0.6-0.8-1.5-1.6-1.5-2.5c-0.1-1.6,0.9-3.3,1-5
		c0-1.2,0.1-2.4,0.3-3.6c0.3-1.3,0.9-2.5,1.8-3.5c0.9-0.7,2.3-0.3,2.9-1.4c0.5-0.8-0.4-1.5,0.5-2.4c1.6-1.5,4.8-1.5,6.8-1.8
		c3.8-0.6,6.9-0.9,10.3,1c2.6,1.4,5.3,2.5,7.8,4c5.3,2.9,8.1,8.1,5.8,13.9C1080.5,588,1072.9,598,1063.4,598.9z"/>
	<path class="st41" d="M1072,603.6c-5.6,3.3-11.2,6.5-16.8,2.7c-0.3,0.4-0.6,0.7-1,1c2,2.5,4.8,4.4,7.9,5.3c1.7,0.7,3.6,1,5.5,0.9
		c2.2-0.3,3.5-2.3,4.8-3.8c0.7-0.7,1-1.6,0.8-2.6C1073.1,606.7,1071.7,603.8,1072,603.6z"/>
	<path class="st39" d="M1072,603.6c-0.4-1.5-0.5-3-0.4-4.5c-3,0.2-5.9-0.1-8.9-0.1c-1.4,0-3.6-0.4-5,0c-1.8,0.5-1.3,2.4-1.2,3.9
		c0,1.3-0.4,2.5-1.3,3.4C1060.8,610.1,1066.4,606.9,1072,603.6z"/>
	<path class="st41" d="M1070.7,573.2c2.3,1.1,3.7,3.5,3.7,6c0.1,2.2,0,4.5-0.2,6.7c-0.1,1-0.5,3.7-0.1,4.6c0.6,1.6,1.7-1,1.9-1.6
		c0.6-1.5,0.8-3.1,1.5-4.5c1.6-3.2,4.2-2.2,4,1.4c-0.1,2.2-2.3,6.5-5.1,5.4c-1.1,1.9-1.5,4.2-2.5,6.2c-1.5,2.9-4.2,4.4-6.9,5.9
		c-3.3,1.8-7.2,2.3-9.7-0.9c-2-2.5-4.8-5.6-5.3-8.9c-0.8-4.5-1-8.8-1.4-13.4c-0.2-2.3-1.2-5.7,0.3-7.6c2.2-3,6.9-1.7,10.1-1.4
		S1067.9,571.7,1070.7,573.2z"/>
	<path class="st39" d="M1055.2,581.2c0.6,0.1,1.2,0.3,1.8,0.5c1,0.8,4.5,4.2,2.1,5.3c-0.5-1.6-0.5-2.6-2.2-3.2
		c-1.1-0.3-3.8-0.1-4.4-1.4C1051.7,581,1053.6,580.9,1055.2,581.2z"/>
	<path class="st39" d="M1072.1,582.1c1.3,1.6-6.3,1.4-6.8,1.4C1065.4,580.8,1070.8,580.4,1072.1,582.1z"/>
	<path class="st41" d="M1106.6,655.7c0.7,5.9,1.9,11.8,2.7,17.6c0.9,6.5,3.5,12.9,3.1,19.4c-0.2,6.6,0.1,13.2,0.8,19.7
		c0.6,6.4,1.3,12.7,0.8,19.1c-0.3,2.9,0.4,5.6-2,7.7c-1.7,1.6-3.6,3.1-5.7,4.3c-0.1-0.3-0.3-0.6-0.4-0.9c-0.8,1-2.3,2.5-3.3,1.1
		s2-5.8,2.3-7.6c0.2-1.5,1.2-7-0.7-7.8s-3.3,2.6-3.7,3.9c-4.1,0,1.1-11,1.3-12.8c0.4-5.3-0.5-10.8-1.1-16.1c-0.6-5.9-1-12-2.6-17.8
		c-1.4-5.1-1.2-10.6-1.5-15.9c-0.7-14-5.4-27.1-6.6-41c-0.4-4.1-1.5-7.6,1.5-10.9s7.8-4,10.8-0.6c2.6,2.9,2.6,7.4,2.9,11
		c0.7,6.8,0.8,13.3,0.9,20.1C1106.2,650.8,1106.3,653.3,1106.6,655.7z"/>
	<path class="st71" d="M1091.9,651.9c0,0,8.7-1,13.3-1.7l-1.3-25.7c0,0,0.3-8.3-7.3-10.7c0,0-6.7-0.3-9.7,4.7
		C1087.2,629.9,1088.9,641.1,1091.9,651.9z"/>
	<path class="st41" d="M1039.3,626.1c-1.3-5.3-7.3-10.2-12.8-7.8c-5.8,2.5-10,13.1-12.1,18.7c-3.4,9.2-8.6,16.7-14,25
		c-2.1,3.2-4.7,7.2-4.6,11.2c0.2,7.8,10.5,9.9,16.4,12c4.8,1.8,9.5,4,14,6.5c5.1,2.8,7.6,4,9.5,9.2c1.4,3.8,2.5,8.9,7.8,7.8
		c1.4-0.3,1.1-16.8,0.7-18.6c-1.8-7.6-10.1-8.7-15.5-13.5c-1-0.9-12.5-8.5-12.4-8.9c1.5-5.2,6.3-10.6,9.2-15.3
		c2.3-3.7,4.4-7.7,7.1-11.1C1036.4,636.6,1041,632.7,1039.3,626.1z"/>
	<polyline class="st20" points="1068,712.2 1076.1,702.3 1040.2,703.7 1046.8,714.2 1054.3,713.4 	"/>
	<polyline class="st20" points="1055.4,712 1070.3,668.3 1123.4,667.6 1126.9,669.9 1063.7,709.8 1061.5,712.6 	"/>
	<polygon class="st10" points="1126.9,669.9 1072.3,670.5 1057.9,711.7 1116.5,711.6 	"/>
	<rect x="1042.5" y="711.6" class="st73" width="74.2" height="4.2"/>
	<path class="st71" d="M1009.9,645.6c0,0,13.3,3.7,15.7,8.3c0,0,5.3-12.3,12.3-16.3c0,0,7-13-3-19c0,0-7.7-4.3-13.3,4.3
		C1021.6,622.9,1011.9,639.6,1009.9,645.6z"/>
	<path class="st74" d="M1111.6,734.3c-0.8-1.9-2.7-3.7-4-5.2c1.2-0.3,2.4-0.6,3.7-0.8c7.7-1.3,11.8,4.2,11.7,11.2
		c-0.1,7.3-5,12.2-12.1,12.6c-2.1,0.1-4.3,0.2-6.4,0.3c2.1-0.9,4-2.2,5.7-3.8C1113.2,745,1113.5,738.7,1111.6,734.3z"/>
	<path class="st75" d="M1084.8,743l10-12.5c1.9-0.8,4.8-0.2,7-0.3c2-0.2,3.9-0.6,5.8-1.1c1.3,1.5,3.2,3.3,4,5.2
		c1.8,4.4,1.6,10.6-1.5,14.3c-1.6,1.6-3.6,2.9-5.7,3.8c-1.9,0.1-3.8,0.2-5.7,0.3C1091.8,752.9,1088.9,748,1084.8,743z"/>
	<path class="st76" d="M1016.5,694.6c-5.3-0.3-7.5,4.9-7.9,9.3c-0.6,6.5,3.9,14.1,7.8,19.1c4.8,6.1,11.3,7.8,18.5,9.4
		c6.8,1.5,14.9,3.6,21.2,6.3c4.2,1.8,5.4,7,9.3,8.6c3,1.2,5.8-0.6,8.5,1.2c5.1,3.4,11.1,9.7,18.1,6.2c-1.1-4.2-1-8.6,0.4-12.7
		c1.2-4.1,5.9-8.9,6-12.9c-2.2-1-4.6-0.9-6.8-2c-3.9-2.1-4.5-1.5-8.9-1.7c-3.9-0.2-2.3-2.1-4.9-4.4c-2.3-1.9-7.6-1.6-10.4-2.4
		c-7.6-2.2-14.7-7.4-20.4-12.8c-4.4-4.1-11.7-10.6-18-11"/>
	<path class="st74" d="M1031.9,737.2c0.9-1.8,2.9-3.5,4.3-4.9c-1.2-0.4-2.4-0.7-3.6-1c-7.7-1.8-12,3.5-12.3,10.5
		c-0.3,7.3,4.3,12.5,11.4,13.3c2.1,0.2,4.3,0.4,6.4,0.7c-2.1-1-3.9-2.4-5.4-4.1C1029.7,747.7,1029.8,741.5,1031.9,737.2z"/>
	<path class="st75" d="M1058.1,747.5l-9.2-13.1c-1.8-1-4.8-0.4-7-0.7c-1.9-0.3-3.9-0.8-5.7-1.4c-1.3,1.4-3.4,3.1-4.3,4.9
		c-2.1,4.3-2.2,10.5,0.6,14.4c1.5,1.7,3.4,3.1,5.4,4.1c1.9,0.2,3.8,0.4,5.7,0.6C1050.6,756.9,1053.8,752.2,1058.1,747.5z"/>
	<path class="st77" d="M1129.2,703.1c5.3,0,7.2,5.3,7.3,9.7c0.2,6.5-4.7,13.8-8.9,18.6c-5.1,5.8-11.7,7.2-19,8.3
		c-6.9,1.1-15.1,2.7-21.6,5c-4.3,1.5-5.8,6.7-9.8,8.1c-3.1,1.1-5.7-0.9-8.6,0.7c-5.3,3.1-11.6,9-18.4,5.2c1.3-4.1,1.4-8.5,0.4-12.6
		c-0.9-4.2-5.4-9.2-5.2-13.2c2.3-0.8,4.6-0.6,6.9-1.6c4-1.8,4.6-1.2,9-1.2c3.9,0,2.4-2,5.2-4.1c2.4-1.8,7.6-1.1,10.6-1.8
		c7.7-1.7,15.1-6.6,21.1-11.5c4.7-3.8,12.3-9.9,18.6-9.9"/>
</g>
<g id="人物7">
	<path class="st41" d="M601,384.5c-2.3-2.8-2.8-6.7-3.5-10.2c-0.4-2-0.8-3.9-1.1-5.9c-0.3-2.5-0.7-5.2-1.2-7.7
		c-1.1-5.3-4.4-9-4-14.6c0.4-5.9-1.7-12.1,2.1-17.3c3.3-4.6,6.5-3.2,8.8-0.1c1.2,1.6,2,3.5,2.6,5.4c2.2,7.5,2.3,16.1,2,23.9
		c-0.1,3.8,0.1,7.7,0.6,11.5c0.4,3.5,2,6.7,3.1,10"/>
	<path class="st41" d="M557,347.1c0-7,0.8-13.9,0.2-20.9c-2.6,1.9-6.2,2.8-8.4,5.2c-2.2,2.6-3.6,5.8-3.7,9.2
		c-0.8,10.2,0.3,20.5,2.3,30.5c1,5,1.8,8.3,1.3,13.5c-1,11.4-1.3,24.1,0.9,35.3c1.7,8.5-3.7,18.3,3.1,25.5c0.8-2.6,0.2-5.3,0-7.9
		c-0.2-4.5-0.3-9.7,1.4-13.9s3.8-8.7,4.9-13.4c1.7-7.2,0.7-13.3,0.6-20.6c-0.2-7,0.3-14.1,0-21.1c-0.2-3.7-0.5-7.3-1.1-11
		c-0.4-3-1.6-6.2-1.6-9.1C557,348.1,557,347.6,557,347.1z"/>
	<path class="st78" d="M580.8,325.4c0.7,0,1.4-0.1,2-0.1c3.2,0,8.5,0.6,8.4-3.7c-0.2-2.5-0.3-4.9-0.1-7.4c0.8-5.9,4.2-11.2,4.4-17
		c0.1-4.4-0.1-8.3-1.8-12.4c-1.3-3-2.4-6.5-5.8-7.6c-1.5-0.5-2.9,0-4.4-0.3c-1.8-0.4-2.9-1.5-5-1.4c-4.2,0.2-8.7,1.6-11.6,4.8
		c-7.8,8.4-7.4,20.6-3.3,30.7c1,2.6,2.1,5.1,3,7.8c0.5,1.5,0.7,3.4,1.8,4.6C570.7,325.9,576.7,325.6,580.8,325.4z"/>
	<path class="st79" d="M557.1,343.5c-0.2,6.6-2.1,12.8-1,19.5c1.1,6.8,4.3,13.5,3.7,20.5c-0.3,3.7-0.6,8.9-1.7,12.4
		c-0.6,1.9-2,3.5-2.7,5.3s-0.5,4.3-0.9,6.3c-0.5,2.6-3.9,13.2-1.7,15.1c2.9,2.5,8.5-1.9,11.5-2.4c5.5-1.1,11.7,0.9,17.3,0.7
		c5-0.2,9.7-1.7,14.6-2.2c4.4-0.5,9,0.1,12.3,3c0.4,0.4-1.3-7.4-1.4-7.7c-1-3.3-1.7-6.8-2.7-10.1c-1.8-6.2-5.6-13.2-5.3-19.8
		c0.2-4.9,0.5-9.6,0.8-14.5c0.2-3.8,1-7.5,1.2-11.2c0.2-3.6-0.1-7.2-1-10.7c-0.3-1.3-0.5-2.7-0.6-4c-0.1-1.5-0.6-2.8-0.7-4.3
		s-0.3-2.8-0.3-4.2c-0.1-1.6,0-3.2,0.3-4.8c0.1-1,0.1-1.9-0.1-2.9c0-0.7,0.1-1.6-0.5-2.1c-0.8-0.4-1.7-0.7-2.6-0.9
		c-0.6-0.4-1.2-0.7-1.8-0.9c-0.6,0-1.1,0-1.7,0.2c-2,0.3-3.9,0.3-5.9,0c-1.8-0.3-3.5-0.6-5.3-0.9c-3-0.6-5.9-1-9-1.3
		c-1.3,0-2.6,0.2-3.9,0.6c-1.6,0.4-3.2,0.2-4.8,0.7c-1.8,0.6-4.7,1.1-6,2.5c-0.9,1-0.9,2.3-1,3.6c-0.2,1-0.3,2-0.4,3
		c0.1,3,1.2,5.9,1.3,8.9C557.1,341.8,557.1,342.6,557.1,343.5z"/>
	<path class="st41" d="M571.5,316.2c-0.1,0.3-0.2,0.5-0.3,0.6c-0.6,0.9-1.2,1.8-1.9,2.6c-1.3,1.4-2.8,2.5-4.5,3.2
		c-0.4,0.2-1.2,0.4-1.5,0.7c-1,1.4-0.1,4-0.2,5.6c-0.1,1.9,0.5,3.8,1.7,5.3c2,3.3,5.2,6.2,9,6.9c5.4,0.9,12.3-1.3,15.1-6.2
		c0.6-1,5.7-11.2,3.5-11.4c-2-0.2-5.1-0.1-6.7-1.5c-0.2-0.2-0.8-2-1.1-1.8c-0.9,0.6-2.1,0.8-3.1,0.6c-0.8-0.4-1.5-0.7-2.3-1
		c-2-0.5-4.2-1.2-5.5-3c-0.5-0.6-0.6-2.1-1.3-1.8C572.1,315.1,571.8,315.7,571.5,316.2z"/>
	<path class="st39" d="M585.1,321.3c-1.1-2.2-0.5-4.8-0.4-7.1c0-0.3-11.1,0.4-12-2.2c0,0.6,0,1.1,0,1.7c-0.2,1.5-1.3,2.5-0.3,4
		c0.9,1.1,2.7,1.7,3.9,2.2c2.8,1.2,5.8,2.2,8.9,1.7L585.1,321.3z"/>
	<path class="st41" d="M587,291.7c-1.6,1.7-3.8,3.8-5.3,3.5c0.1-1,0.2-2,0.4-3c-1.1,0.5-1.9,1.6-3.1,2.1c-0.8,0.4-3,1.5-3.8,1.3
		c-0.4-0.1-1.6-1.3-0.7-1.5c-3.7,0.8-3.4,2.7-5.2,5.5c-0.5,0.7-1.5,1.6-1.6,2.5c-0.3,1.9,1,3.6,1.4,5.4s0.6,3.3,1.9,4.9
		c1.5,1.9,4,3.2,6,4.4c3.8,2.3,7.3,0.2,10-2.6s3.7-6,4.2-10c0.3-2.2,1.5-3.6,0.9-5.8c-0.4-1.4-0.4-3.1-1-4.4
		c-0.3-0.6-3.2-3.3-2.5-4.1C588.1,290.5,587.6,291,587,291.7z"/>
	<path class="st39" d="M588.3,299c-0.7,0-1.3,0.1-2,0.3c-0.6,0.1-1.5,0.1-1.8,0.7c-0.6,1.2,5.3,0.9,5.3-0.2
		C589.8,299.2,589.1,299,588.3,299z"/>
	<path class="st39" d="M576.7,299.6c-1.2-0.1-3-0.2-3.8,0.9c1,0.4,1.9,0.9,2.8,1.5c1,0.7,1.7,2.2,2.9,2.5c2.2,0.6,1.1-3.5,0.3-4.3
		C578.3,299.8,577.5,299.6,576.7,299.6z"/>
	<path class="st80" d="M594.3,324.8c-0.8,0.4-1.5,0.7-2.4,1.1c-2.4,1-3.8,3-6,4.4c-4.7,2.8-10.5,1.7-15.4,0.1
		c-2.2-0.7-9.4-5.4-7.7-8.4c1.3-2.2,4,0.7,4.6-2.6c1.5-0.1,1.9-0.8,3.2-1s2.5,0.6,3.7,0.8c2.6,0.4,5.2,0.5,7.8,0.3
		c2.5-0.1,4.6-1.2,7-1.4c3-0.3,0.9,1.8,2.5,3c0.8,0.6,2.2-0.1,3.1,0.4c0.8,0.5,1.3,1.3,1.5,2.2C595.7,324,595,324.4,594.3,324.8z"/>
	<path class="st80" d="M568.5,360.7c-0.1,5.9,0.7,11.7,2.3,17.3c1.1,4.4,0.3,7.6-0.4,12c-0.5,3.3,0.9,6.3-0.6,9.6
		c-0.7,1.5-1.9,2.5-2.2,4.2c-0.3,2.1,0.1,4.2,1.1,6c-1-1.1-2.7-1-3.6-1.8s-1-3.6-1.3-4.9c-0.4-1.9-1-3.6-1.9-5.3
		c-1.1-1.8-3-3.5-3.3-5.6c-0.3-1.8,0.4-4.1,0.6-5.9c0.6-4.7,2.1-9.5,1.1-14.3c-1-5-2-9.5-0.8-14.6s4-9.5,4.6-14.6
		c0.6-4.5-4.1-19.1,3.2-20.5c6.3-1.2,4.7,12.1,4.1,15.2C570,345,568.7,352.7,568.5,360.7z"/>
	<path class="st81" d="M555.8,408.3c-2.9,7-6.3,17.6-4.3,22.1s9.2,7,15.3,5.7s22.5-10.2,25-14.3s10.2-23.7,5.3-22.9s-1.2-2-15.1,0.4
		S562.7,400.9,555.8,408.3z"/>
	<path class="st82" d="M603.2,430.6c2.8,1.7,3.7,6,3,7.6c-5.3,12.1-26.9,68.9-28.9,71.9c-2.4-0.1-6.1-1.4-5.1-4
		c14.8-26.6,16-55.9,24.7-72.5C598.9,432.1,600.9,429.2,603.2,430.6z"/>
	<path class="st81" d="M612.6,409.5c2.8,1.7,5.2,5.7,3.6,9c-5.6,11.9-27.7,71.5-29.6,74.5c-1-5.4-4.2-5-8.2-5.7
		c8.8-18.3,7-46.6,24.6-76.2C605.5,407.8,610.3,408,612.6,409.5z"/>
	<path class="st82" d="M576.6,506c2,3.4,3.9,12,5.5,15.8c1.4,3.2,3.5,6,6.2,8.1c2.2,1.8-2.9,1.5-4,1.3s-3.2-2-5-3.4
		s-1.5-5.3-4.5-6.8s-7.2-9.3-4.6-12C572.9,505.9,572.9,503.8,576.6,506z"/>
	<path class="st81" d="M551.5,430.9c-3.1-10,9.1-16.4,9.1-16.4c12.4-2.9,36.9-5.2,47.1-3.7c3.3,0.5,6.9,3.4,6.8,6.8
		c-0.1,4.5-7.5,7.1-12.1,9.2c-11.2,5-18.6,9.6-34,12.7C568.5,439.3,554.7,440.9,551.5,430.9z"/>
	<path class="st83" d="M571.1,507.4c0.5,0.1,3.6,4.9,3.9,7.6c0.5,3.3,4.5,11.6,5.5,12.1s2.9,1.8,5.2-0.2c0.8,1.1,2.3,3.2,3.5,3.8
		c1.7,0.8,6.3,1.9,6.5,3.8c0.1,0.7-3.8,1-5.9,1.2c-1,0.1-8,0.1-9.5-1c-2.8-2-5.2-9.6-5.7-10.6c-1.3-2.8-2.6-1.8-3.2-0.2
		c-0.6,3.5-1,7-1,10.5c-0.5,0.2-1.1,0.1-1.5-0.2c0-1,0.1-11.1-0.9-14c-0.4-1.1-0.7-2.8-1.7-5.7C565.7,512.6,568.6,509,571.1,507.4z"
		/>
	<path class="st41" d="M560.4,406.1c-0.3-0.8,3.6-5.8,5.1-8c0.5-0.8,0.9-2.3,1.8-2.8c1.1-0.7,11.9-9.2,13.2-9.3s2.1,0.5,2.6,2.7
		c0.6,2.8-9.4,11.5-9.7,11.5c-1.3-0.6-5-1.3-5.6-1.5c-0.7,0.3-2.2,2.9-3.1,3.8C563.7,403.8,560.8,407.2,560.4,406.1z"/>
	<path class="st41" d="M561,404.6c0.2-0.2,0.5-0.2,0.7,0c0.1,0.2,0.2,0.4,0.1,0.6c-0.3,0.6-1.5,1.7-1.7,1.3S560.7,404.9,561,404.6z"
		/>
	<path class="st41" d="M563.6,408.9c-0.4-0.8,1.6-4.8,2.9-7c0.8-1.3,1.4-2.7,1.7-4.2c0.8,0.3,3.2-0.2,4.2,1
		c-0.3,0.6-2.1,1.3-2.7,1.9c-0.6,0.8-1.7,2.5-2.5,3.8C566.7,405.3,564.1,409.9,563.6,408.9z"/>
	<path class="st41" d="M563.9,407.1c0.2-0.4,1.1-0.1,1,0.5s-1.2,2.2-1.5,1.8S563.7,407.4,563.9,407.1z"/>
	<path class="st41" d="M566.3,409c-0.4-0.7,1.4-4.8,2.6-7.2c0.7-1.3,1.2-2.8,1.5-4.3c0.8,0.3,3.2-0.3,4.3,0.8c-0.2,0.7-2,1.4-2.6,2
		c-0.6,0.9-1.5,2.5-2.3,3.9C569.2,405.3,566.9,410,566.3,409z"/>
	<path class="st41" d="M566.5,407.2c0.2-0.4,1-0.2,1,0.4s-1,2-1.3,1.7S566.4,407.6,566.5,407.2z"/>
	<path class="st41" d="M570.8,408.4c-0.7-0.6-0.2-5,0.1-7.6c0.2-1,0.4-2,0.8-3c1.1-0.2,2.3-0.1,3.4,0.4c-1,1-2.5,2.8-2.5,4.7
		C572.4,404,571.7,409.2,570.8,408.4z"/>
	<path class="st41" d="M570.5,406.7c0-0.4,0.9-0.5,1.1,0.1s-0.3,2.3-0.7,2.1S570.5,407.1,570.5,406.7z"/>
	<path class="st41" d="M580.5,386c1.3,0.2,18-4.9,20.8-4.8c6.9,0.3,12.5,3.8,12,5.6c-0.8,2.1-2.6,3.7-4.8,4
		c-1.7,0.8-26.3-1.3-28.1-1.2C579,388.1,579.1,387.2,580.5,386z"/>
	<path class="st83" d="M624.9,538.3c2.3,6.8,5.9,18.4,5.9,21.3s-2.7,8.6-4.7,10.2c-5.7-2.5-8.6-9.4-8.6-11.9s-2.5-23.7-1.2-27.8
		C617.1,533.8,624.9,540.4,624.9,538.3z"/>
	<path class="st82" d="M602,423.1c3.6,0,7,3.5,7.2,5.6c1.9,14.5,13.9,84.9,13.8,88.8c-2.4,1.3-4,3-6.7,1.4
		c-1.1-33.8-17.3-68.5-18.5-89.4C598.8,427.1,598.9,423.1,602,423.1z"/>
	<path class="st82" d="M622.8,516.2c0.7,4.3,2.2,16.7,2.3,21.3s3.9,13.4,3.3,16c-2.3,2.7-5.9,1.7-8-2.3c-1.8-3.7-2.9-11.6-3.9-15.2
		c-1.3-5,0.6-5.5-0.3-17C618.5,515.6,619.9,512.5,622.8,516.2z"/>
	<polyline class="st20" points="577.8,405.2 585.7,395.7 550.9,397 557.3,407.2 564.7,406.4 	"/>
	<polyline class="st20" points="565.7,405 580.1,362.8 631.5,362 634.9,364.3 573.7,402.9 571.5,405.6 	"/>
	<polygon class="st10" points="634.9,364.3 582,364.9 568.1,404.7 624.8,404.6 	"/>
	<rect x="553.2" y="404.6" class="st73" width="71.8" height="4"/>
	<path class="st84" d="M591.4,396.8c-4.5,0.4-16.4,8.2-16.8,11.9s0,7,4.5,7.8s16.8,0,19.6-1.6s1.8-11.9,0.8-13.9
		C597.9,397.9,594.7,396.3,591.4,396.8z"/>
	<path class="st84" d="M598.9,397.6c3.6,0,8.2,2.5,8.6,6.5c1.5,14.5,15.1,90.1,14.9,94c-5.3-7.4-6.1,2.1-11-0.8
		c-2-22.5-20.5-54.5-20.7-92.8C591.1,400.1,595.9,397.6,598.9,397.6z"/>
</g>
<g id="人物8">
	<circle class="st85" cx="1521.8" cy="482.1" r="1.8"/>
	<path class="st86" d="M1492.7,565.1"/>
	<path class="st41" d="M1497.6,494.4c0,0,3.5,0,4.2-11.2c0,0,6.3,7.7,13.3,8.4c0,0-0.7,1.4,0,4.2
		C1509.4,498.2,1502.9,497.7,1497.6,494.4z"/>
	<path class="st41" d="M1516.5,491.6c-1.1,0.5-2.3,0.7-3.5,0.7c0,0-11.2-5.6-13.3-13.3c0,0-2.1,2.1-5.6-5.6c0,0-1.4-4.9,2.8-2.8
		c0.9,0.3,1.8,0.6,2.8,0.7c0,0,3.5-14,16.8-14c0,0,4.9-0.7,6.3,6.3c0.5,1.3,0.8,2.8,0.7,4.2c-0.9,2-1.1,4.2-0.7,6.3
		c0,0,1.4,4.9-2.8,10.5L1516.5,491.6z"/>
	<path class="st41" d="M1510,777.3c2.3-2.2,5-3.9,7.9-5c0,0-0.7-3.5-4.2-9.1l-4.9-7.7c0,0,0.7-8.4,0.7-13.3c0,0-2.8-2.1-4.9,0
		c0,0-2.8,0.7-0.7,14.7C1505.3,763.9,1507.3,770.7,1510,777.3z"/>
	<path class="st41" d="M1510.2,782.8c0,0-3.5,5.6-11.9,1.4c0,0-1.4-8.4,0-13.3s0.7-3.5-0.7-6.3c0,0-0.7-2.1,1.4-6.3
		c0,0,0.7-5.6,0-9.1l-0.7-9.1c0,0,3.5-4.9,7.7-1.4c0,0,1.4,0.7,1.4,8.4c0,0-0.7,5.6-0.7,8.4c0,0,0,3.5,0.7,4.9
		c0,1.9-0.2,3.8-0.7,5.6c0.1,3.1,0.8,6.2,2.1,9.1C1508.8,775.1,1511.6,780,1510.2,782.8z"/>
	<path class="st83" d="M1497.6,784.9c3.7-3.8,9.4-4.6,14-2.1c0,0,2.8,5.6-1.4,9.1c0,0-3.5,1.4-6.3,0.7
		C1503.9,792.6,1498.3,792.6,1497.6,784.9z"/>
	<path class="st83" d="M1510,778.4c4.6,1.4,9.4,1.9,14.2,1.6c0,0,2.8,0,2.1-2.1c0,0-4.2-4.9-7-6.3
		C1519.3,771.6,1512.6,772.5,1510,778.4z"/>
	<path class="st83" d="M1497.6,771.6c0,0-2.6-2.6-0.2-7.9c0,0,0.9,1.9,1.6,3.5C1499,768.8,1498.5,770.3,1497.6,771.6z"/>
	<path class="st87" d="M1476.6,741.5c0,0-0.7,2.1,2.1,2.1l3.5-0.7c0,0,0,2.1,2.8,2.8c0,0,0.7,0.7,4.9,0l0.7-1.4
		c1.9-0.8,4-0.5,5.6,0.7c0,0,0.7,4.2,4.2,4.2s7,0.7,10.5-1.4c0.9-1,1.4-2.2,1.4-3.5c0,0,1.4-2.1,4.2,0c0,0,0.7,0.7,3.5-0.7
		c1.8-0.8,3.8-0.2,4.9,1.4c0,0,1.4,0.7,4.2-0.7c0,0,0.7,0,1.4-3.5c0,0-0.7-0.7,1.4-1.4c0,0,2.1,0,2.8-1.4c0,0-2.1-59.5-0.7-79.1
		c0,0,4.9-53.9,3.5-77.7c0,0-0.7-18.9-2.8-23.8c0,0-31.5,7-44.8,4.9c0,0,2.1,1.4-2.8,11.2c0,0-3.5,3.5-4.2,20.3
		c-0.3,10.8,0.1,21.5,1.4,32.2c0,0,2.1,9.8-1.4,40.6c0,0-0.7,24.5-2.1,38.5C1480.8,705.1,1478,728.2,1476.6,741.5z"/>
	<path class="st88" d="M1482.9,501.8c0,0,10.5-5.3,13.3-8.8c0,0,7.7,6.3,21,1.4c0,0,1.4,0,1.4,3.5c0,0,9.8,6.3,11.2,21
		c0,0,1.4,16.8,4.2,26.6c0,0,2.8,9.1,0.7,13c0,0-25.9,6.7-44.4,4.5c0,0-0.7-23.5,0.9-36.6c0,0,3.3-11.7,2.4-16.6
		C1493.6,509.8,1492.7,497.9,1482.9,501.8z"/>
	<path class="st79" d="M1514.8,493.4c1.3-0.2,2.6-0.2,3.8,0.3c0.8,1.2,1.8,2.4,2.8,3.5c2.3,2,4.9,3.6,7.7,4.9c0,0,6.3,0.7,7,4.2
		c0.9,2.2,1.2,4.6,0.7,7c0,7.7,0.5,15.4,1.4,23.1c0,0,2.8,14,3.5,18.9c0,0,2.1,4.2,1.4,24.5c0,0-2.8,39.2-2.8,48.3
		c0,0-3.5,1.4-5.6,0c0,0,2.1-24.5,2.8-30.8v-37.8c0,0-7-25.2-7.7-33.6c0,0-5.6-18.9-9.1-24.5c-1.2-1.1-1.9-2.6-1.9-4.2
		c0.3-1.2-0.4-2.4-1.6-2.8l-2.5,0.7C1514.7,495.1,1514.4,495.3,1514.8,493.4z"/>
	<path class="st89" d="M1499.7,479c0.5,1.5,1.2,2.9,2.1,4.2c0,0-0.7,3.5-5.6,2.8c0,0-6.3,0-5.6-6.3c0,0-0.7,0.7,0-2.8
		c0,0,0-1.9,3.5-3c1.2,1.8,2.7,3.5,4.3,5L1499.7,479z"/>
	<path class="st89" d="M1501.1,469.2c-0.1,0.9-0.6,1.7-1.4,2.1c0,0-5.6,0-6.3-2.8l0.7-1.4c0,0-1.4-1.4-0.7-4.9c0,0-2.1-1.4,0-5.6
		c0,0,0.7-9.1,12.6-10.5c0,0,1.4-0.7,5.6,0.7c0,0,2.8-1.4,5.6,1.4c0,0,2.8,0,4.2,4.2c0,0,2.8,1.4,2.8,6.3c0,1.7-0.5,3.4-1.4,4.9
		c-0.9-2.8-3.1-5-5.8-6c-1.6-0.2-3.2-0.1-4.7,0.3c-0.4,0.8-0.8,1.5-1.4,2.1c-0.7,1.1-1.7,2.1-2.8,2.8c0,0-0.7,0.7-4.9,2.8
		C1502.3,466.7,1501.6,467.9,1501.1,469.2z"/>
	<path class="st39" d="M1516.5,481.8c0,0,2.8-0.7,2.8-1.4c-1-1.7-1.5-3.6-1.4-5.6c0-1.4,0.3-2.8,0.7-4.2c-0.3,3.1,0.1,6.2,1.4,9.1
		C1520,479.7,1520.7,483.2,1516.5,481.8z"/>
	<path class="st39" d="M1501.8,483.2c0,0,6.3,7.7,13.3,8.4c0,0-0.7,1.4,0,4.2C1515.1,495.8,1501.1,492.3,1501.8,483.2z"/>
	<path class="st41" d="M1488.5,563.7c0,0-4.9-7-7-13.3c0,0-3.5-11.2-2.8-17.5c0,0-0.7-16.8,0-22.4c0,0,1.4-9.8,7-9.8
		c0,0,8.4,0,7.7,8.4c0,0-2.1,18.9-3.5,24.5c0,0,0,10.5,4.9,16.1c0,0,0,2.1,17.5-2.1c0,0,10.5-2.1,12.6-3.5c0,0,6.3-1.4,3.5,3.5
		c-2.6,3.8-6.3,6.7-10.5,8.4c0,0-17.5,4.9-21.7,7C1496.2,563,1492,567.9,1488.5,563.7z"/>
	<path class="st79" d="M1486.4,633.7c-4-0.1-8.1-0.8-11.9-2.1c-4.7-1.6-8.8-4.5-11.9-8.4l1.4-8.4c0,0,4.2-50.4,5.6-61.6
		c0,0,3.5-20.3,4.9-28c0,0,0.7-4.2,0-12.6c0,0-1.4-6.3,5.6-10.5c0,0,9.1-4.9,10.5-5.6l3.5-3.5c1.8-1.3,4.1-1.8,6.3-1.4
		c-0.5,1-1.3,1.9-2.2,2.6c0,0-2-0.5-2.7,0.2c-0.5,1.6-0.7,3.2-0.7,4.9c0,0,0,9.8-0.7,12.6c0,0-4.9,30.8-6.3,35.7
		c0,0-2.1,9.1-2.1,15.4v30.1c0,0,0.7,18.2,0.7,23.8L1486.4,633.7z"/>
	<circle class="st85" cx="1499.4" cy="480.8" r="1.8"/>
	<path class="st89" d="M1514.4,455.2c0,0,4,5.9,9,8.6C1523.5,463.8,1523.5,456.6,1514.4,455.2z"/>
	<polygon class="st0" points="1523.2,525.1 1518.1,557.2 1539.4,553.1 1545.4,522.8 	"/>
	<polygon class="st13" points="1524.4,525.1 1519.3,557.2 1540.6,553.1 1546.7,522.8 	"/>
	<path class="st41" d="M1531.2,567.2c0,0-1.4-0.7-4.9-2.1c-1-0.6-1.5-1.7-1.4-2.8c0,0-1.4-0.7-0.7-2.8c0-0.8,0.6-1.4,1.3-1.4
		c0,0,0,0,0.1,0c0,0,0-1.4-2.1-2.1c0,0-4.2-1.4-4.2-2.1c0,0-0.7-2.1,2.1-2.1c2.9,1,5.7,2.2,8.4,3.5c0,0,2.8,1.4,3.5,0.7
		c-0.1-1.5-0.6-3-1.4-4.2c-1.3-1-1.9-2.6-1.4-4.2c0,0,1.4-0.7,2.8,1.4c0,0,2.1,1.4,2.1,2.1c0,0,1.4,3.5,2.1,4.9c0,0,0.7,2.1-0.7,2.8
		c0,0-0.7,3.5-2.1,4.9c0,0-0.7,0-1.4,1.4C1533.3,565.1,1532.6,567.2,1531.2,567.2z"/>
	<path class="st39" d="M1507.4,470.6c2-0.9,4.1-1.4,6.3-1.4c0,0,1.4-0.7,1.4,1.4h-3.5C1511.6,470.6,1508.8,469.9,1507.4,470.6z"/>
	<path class="st39" d="M1519.3,470.6c0,0-0.5-0.9,1.2-1.9c1-0.2,2-0.5,3-0.9c0,0-1.9,1.8-1.6,1.6
		C1520.9,469.3,1519.9,469.8,1519.3,470.6z"/>
</g>
</svg>
